<svg width="188" height="27" viewBox="0 0 188 27" fill="none" xmlns="http://www.w3.org/2000/svg">
<path d="M36.9121 3.2562H29.2883V2.25778H45.675V3.2562H38.0512V25.9021H36.9121V3.2562Z" fill="white"/>
<path d="M44.5471 17.3815C44.5471 11.7881 48.1109 8.3504 51.8889 8.3504C55.8023 8.3504 58.2947 11.1414 58.2947 16.2356C58.2947 16.5987 58.2947 16.9504 58.2271 17.3815H45.6862C45.6862 21.9652 48.3252 25.3348 52.3852 25.3348C54.3137 25.3348 55.8023 24.6881 57.088 23.7578L57.5842 24.6881C56.2986 25.471 54.8776 26.3333 52.3175 26.3333C48.032 26.3333 44.5471 22.9636 44.5471 17.3815ZM57.2233 16.3718C57.2233 11.6406 55.0918 9.34882 51.8777 9.34882C48.8101 9.34882 46.0358 12.0037 45.6749 16.3718H57.2233Z" fill="white"/>
<path d="M60.5841 21.7156C60.5841 17.8807 64.0802 16.0881 71.7717 15.2259C71.8393 12.4348 71.1288 9.34881 67.5651 9.34881C65.1403 9.34881 63.0765 10.5628 62.0051 11.4251L61.4299 10.5628C62.5013 9.77995 64.8471 8.33905 67.6327 8.33905C71.6251 8.33905 72.8318 11.3456 72.8318 14.7834V25.8908H71.907L71.7604 23.599H71.6927C69.9108 25.0285 67.7793 26.3219 65.4899 26.3219C62.8622 26.3333 60.5841 24.9718 60.5841 21.7156ZM71.7717 22.3963V16.1562C64.2945 17.0185 61.7232 18.7317 61.7232 21.6702C61.7232 24.3251 63.5051 25.3235 65.5689 25.3235C67.644 25.3348 69.4936 24.3251 71.7717 22.3963Z" fill="white"/>
<path d="M77.9294 8.78154H78.8542L79.0008 11.5045H79.0685C80.6361 9.71188 82.6323 8.3504 84.4818 8.3504C87.2562 8.3504 88.6095 9.77995 89.1847 11.9356C91.1809 9.71188 93.0981 8.3504 95.0266 8.3504C98.3761 8.3504 100.079 10.4267 100.079 14.8742V25.9135H99.0189V15.0216C99.0189 11.2209 97.7333 9.36016 94.9589 9.36016C93.2447 9.36016 91.5417 10.5061 89.5456 12.7979V25.9135H88.4742V15.0216C88.4742 11.2209 87.1885 9.36016 84.4142 9.36016C82.7789 9.36016 80.997 10.5061 79.0008 12.7979V25.9135H77.9294V8.78154Z" fill="white"/>
<path d="M117.334 5.41187C116.623 5.10554 115.552 4.9467 114.131 4.9467C112.71 4.9467 111.56 5.57071 110.68 6.80738C109.8 8.04406 109.361 10.2224 109.361 13.3311C109.361 16.4398 109.778 18.6409 110.624 19.9456C111.469 21.2504 112.721 21.8971 114.379 21.8971C116.917 21.8971 119.195 21.5113 121.213 20.7512L122.499 23.9393C119.984 25.4483 117.029 26.1971 113.635 26.1971C110.24 26.1971 107.793 25.2327 106.282 23.2926C104.771 21.3525 104.015 18.1984 104.015 13.7963C104.015 9.40554 104.951 6.14933 106.812 4.05039C108.673 1.95145 111.289 0.896301 114.661 0.896301C117.368 0.896301 119.939 1.64511 122.386 3.15408C122.386 3.30158 122.386 3.57387 122.386 3.98232C122.386 4.39076 122.307 5.08284 122.138 6.05857C121.969 7.0343 121.732 7.83984 121.428 8.46385H118.044C117.717 7.8058 117.481 6.79604 117.334 5.41187Z" fill="white"/>
<path d="M123.943 0.465171C125.273 0.158839 126.503 0 127.642 0C128.781 0 129.739 0.0340371 130.529 0.102111V21.9198C131.454 22.2828 132.108 22.6799 132.491 23.1338L132.13 25.8908H123.943L123.582 23.1338C123.909 22.6799 124.563 22.2715 125.544 21.9198V4.44749C124.71 4.16385 124.055 3.75541 123.582 3.23351L123.943 0.465171Z" fill="white"/>
<path d="M141.559 26.1971C138.705 26.1971 136.563 25.4369 135.13 23.9053C133.698 22.3736 132.976 20.1498 132.976 17.2454C132.976 15.4754 133.224 13.9551 133.721 12.6731C134.217 11.391 134.893 10.4153 135.751 9.71185C137.408 8.37307 139.348 7.70367 141.559 7.70367C143.769 7.70367 145.461 8.27096 146.634 9.40552C147.806 10.5401 148.393 12.571 148.393 15.5095C148.393 17.234 147.547 18.0849 145.867 18.0849H138.141C138.232 19.5939 138.626 20.6491 139.303 21.2731C139.98 21.8971 141.051 22.2034 142.528 22.2034C143.34 22.2034 144.107 22.1126 144.84 21.9198C145.573 21.7269 146.115 21.534 146.442 21.3411L146.938 21.0575L148.009 23.9279C147.863 24.0981 147.66 24.3024 147.389 24.552C147.119 24.8016 146.431 25.1419 145.325 25.5504C144.209 25.9815 142.957 26.1971 141.559 26.1971ZM143.803 14.9082C143.848 14.5791 143.871 14.1707 143.871 13.6942C143.871 13.2177 143.679 12.7071 143.295 12.1739C142.912 11.6406 142.258 11.3683 141.322 11.3683C140.386 11.3683 139.664 11.652 139.168 12.2306C138.671 12.8092 138.333 13.7736 138.175 15.1351L143.803 14.9082Z" fill="white"/>
<path d="M150.242 10.6422C150.242 10.2791 150.254 9.90473 150.276 9.49629C152.487 8.30499 154.855 7.70367 157.404 7.70367C159.941 7.70367 161.768 8.19154 162.874 9.15592C163.979 10.1203 164.531 11.7314 164.531 13.9778V21.6134C165.366 21.7836 166.02 21.9878 166.494 22.2261V25.3461C165.287 25.9248 163.55 26.2084 161.295 26.2084C161.058 25.5844 160.855 24.8356 160.686 23.9506C159.659 25.4596 157.81 26.2084 155.126 26.2084C153.536 26.2084 152.171 25.7432 151.043 24.8129C149.915 23.8826 149.352 22.6118 149.352 21.0121C149.352 19.4124 149.882 18.153 150.942 17.234C152.002 16.315 153.569 15.8498 155.656 15.8498H159.535V14.1253C159.535 12.2646 158.554 11.3343 156.581 11.3343C155.848 11.3343 155.239 11.4024 154.765 11.5498C154.72 12.5483 154.573 13.3311 154.336 13.8757H150.851C150.445 13.0361 150.242 11.9583 150.242 10.6422ZM156.648 22.5324C157.855 22.5324 158.825 22.1694 159.535 21.4546V18.5161H157.043C155.329 18.5161 154.483 19.1741 154.483 20.4902C154.483 21.0915 154.663 21.5794 155.036 21.9538C155.396 22.3509 155.938 22.5324 156.648 22.5324Z" fill="white"/>
<path d="M167.881 7.98735C169.189 7.70371 170.362 7.55621 171.411 7.55621C172.46 7.55621 173.317 7.5789 174.016 7.62429V9.4169C174.614 8.91769 175.403 8.4979 176.384 8.18022C177.366 7.86255 178.313 7.69236 179.215 7.69236C181.538 7.69236 183.174 8.23695 184.11 9.33748C185.046 10.438 185.519 12.3327 185.519 15.033V21.9085C186.444 22.2715 187.098 22.6686 187.482 23.1224L187.121 25.8794H178.933L178.572 23.1224C178.899 22.6686 179.553 22.2602 180.535 21.9085V14.8174C180.535 13.524 180.332 12.6618 179.914 12.2193C179.497 11.7768 178.753 11.5612 177.693 11.5612C176.621 11.5612 175.561 11.947 174.49 12.7071V21.9198C175.414 22.2829 176.069 22.68 176.452 23.1338L176.091 25.8908H167.903L167.543 23.1338C167.87 22.68 168.524 22.2715 169.505 21.9198V11.9583C168.67 11.6747 168.016 11.2662 167.543 10.7443L167.881 7.98735Z" fill="white"/>
<path d="M7.52228 6.20605V9.03112L6.32683 9.17861C6.07872 8.96305 5.87572 8.56595 5.72911 7.97598H3.20289V10.9372H5.44717C5.57122 10.6082 5.70656 10.3813 5.85317 10.2564L6.86817 10.3699V13.263L5.85317 13.3878C5.71783 13.2744 5.5825 13.0475 5.44717 12.7071H3.20289V15.4074C3.92467 15.5662 4.44345 15.7931 4.7705 16.0768L4.61261 17.4269H0.157889L0 16.0768C0.135333 15.8952 0.439834 15.7137 0.890945 15.5435V8.11212C0.451111 7.95328 0.157889 7.76041 0 7.55619L0.157889 6.20605H7.52228Z" fill="white"/>
<path d="M12.8905 11.2889C12.0673 11.2889 11.5034 11.4477 11.1989 11.7654V15.4868C12.0673 15.6456 12.665 15.8725 12.992 16.1675L12.8341 17.4155H8.21026L8.05237 16.1675C8.19898 15.9633 8.50348 15.7818 8.94331 15.6116V11.096C8.57115 10.9712 8.26665 10.7783 8.05237 10.5401L8.21026 9.29206C8.80798 9.16726 9.33804 9.09918 9.8117 9.09918C10.2854 9.09918 10.6801 9.11053 10.9959 9.13322V10.1543C11.244 9.85934 11.5598 9.62108 11.9545 9.42821C12.3379 9.23533 12.6988 9.14457 13.0146 9.14457C13.3304 9.14457 13.5446 9.16726 13.6687 9.22398L13.6236 11.3343C13.3868 11.3002 13.1499 11.2889 12.8905 11.2889Z" fill="white"/>
<path d="M14.3002 10.4947C14.3002 10.3359 14.3002 10.1543 14.3115 9.9728C15.3152 9.42821 16.3866 9.15591 17.5482 9.15591C18.6985 9.15591 19.5218 9.37148 20.0293 9.81396C20.5255 10.2564 20.7849 10.9826 20.7849 12.0037V15.4641C21.1571 15.5435 21.4616 15.6343 21.6759 15.7364V17.1546C21.1233 17.4155 20.3451 17.5403 19.3188 17.5403C19.206 17.2567 19.1158 16.9163 19.0481 16.5192C18.5857 17.2 17.7399 17.5403 16.5332 17.5403C15.8114 17.5403 15.1911 17.3248 14.6836 16.905C14.1761 16.4852 13.9167 15.9066 13.9167 15.1805C13.9167 14.4543 14.1536 13.887 14.6385 13.4673C15.1122 13.0475 15.834 12.8432 16.7813 12.8432H18.5406V12.0604C18.5406 11.2208 18.0895 10.7897 17.1986 10.7897C16.8602 10.7897 16.5896 10.8237 16.3753 10.8918C16.3527 11.3456 16.2851 11.6973 16.1836 11.9469H14.6047C14.3904 11.5725 14.3002 11.0847 14.3002 10.4947ZM17.2099 15.8839C17.7625 15.8839 18.191 15.725 18.5181 15.396V14.0686H17.3903C16.6121 14.0686 16.2287 14.3636 16.2287 14.9649C16.2287 15.2372 16.3076 15.4527 16.4768 15.6343C16.646 15.8045 16.8828 15.8839 17.2099 15.8839Z" fill="white"/>
<path d="M25.6682 19.1401C26.6268 19.1401 27.1005 18.5614 27.1005 17.4042V16.6894C26.5705 17.0184 25.9051 17.1773 25.1156 17.1773C24.1006 17.1773 23.3225 16.8823 22.7811 16.281C22.2398 15.6796 21.9691 14.6926 21.9691 13.3084C21.9691 10.5401 23.2322 9.16724 25.7472 9.16724C26.39 9.16724 26.999 9.30338 27.5516 9.58702C27.6644 9.39415 27.8223 9.29204 28.0366 9.29204H29.3561V17.2907C29.3561 18.482 29.0628 19.367 28.4764 19.9343C27.89 20.5129 26.9765 20.7965 25.7585 20.7965C25.1156 20.7965 24.439 20.7171 23.751 20.5696C23.0631 20.4221 22.5443 20.2292 22.1834 20.0023C22.1721 19.9002 22.1721 19.8095 22.1721 19.7073C22.1721 19.106 22.3074 18.5387 22.5894 17.9828H24.0217C24.1457 18.2097 24.2247 18.516 24.2811 18.8905C24.6983 19.0606 25.1607 19.1401 25.6682 19.1401ZM24.5292 14.9081C24.7547 15.2372 25.1269 15.396 25.657 15.396C26.187 15.396 26.672 15.2485 27.1005 14.9422V11.0847C26.672 10.9031 26.1983 10.8124 25.6908 10.8124C24.6871 10.8124 24.1908 11.6065 24.1908 13.2063C24.2021 14.0232 24.3149 14.5905 24.5292 14.9081Z" fill="white"/>
</svg>
