<svg width="179" height="41" viewBox="0 0 179 41" fill="none" xmlns="http://www.w3.org/2000/svg">
<path d="M174.92 16.4489L174.427 13.0499C174.279 12.0203 173.452 11.214 172.415 11.0899L167.06 10.4697C167.035 10.4697 167.023 10.4573 166.998 10.4573C166.973 10.4573 166.949 10.4573 166.924 10.4573C166.912 10.4573 166.912 10.4573 166.899 10.4573C166.875 10.4573 166.85 10.4573 166.825 10.4697C166.566 10.5069 166.357 10.6806 166.258 10.9039C166.11 11.152 166.036 11.4497 166.011 11.7722C166.011 11.8342 165.999 11.9087 165.999 11.9707L165.221 11.4373C165.246 11.214 165.295 11.0031 165.394 10.8046C165.394 10.7922 165.406 10.7922 165.406 10.7798C165.456 10.7054 165.517 10.6309 165.579 10.5689C165.209 10.6434 164.814 10.755 164.419 10.879C162.679 13.1244 162.136 11.8963 162.136 11.8963C162.025 11.9583 161.927 12.0203 161.828 12.0823C161.655 12.194 161.606 12.2808 161.569 12.4173C161.556 12.4421 161.556 12.4545 161.556 12.4793C161.556 12.4917 161.556 12.4917 161.556 12.5041C161.532 12.7522 161.569 13.0003 161.63 13.236L161.606 13.298C161.593 13.2732 161.581 13.2608 161.556 13.236C161.396 13.0251 161.137 12.9259 160.89 12.9507C160.89 12.9011 160.902 12.8639 160.902 12.8142C160.902 12.7894 160.915 12.7522 160.927 12.715C160.779 12.839 160.643 12.9631 160.532 13.0871L160.52 13.0995L156.201 16.4861C156.189 16.4985 156.176 16.4985 156.176 16.4985C156.152 16.5109 156.115 16.5109 156.09 16.5109C156.053 16.4985 156.016 16.4737 156.004 16.4365L154.659 13.2236L153.289 13.8066L154.646 17.0195C154.844 17.4785 155.251 17.8383 155.732 17.9623C156.201 18.0864 156.719 17.9871 157.139 17.6646L161.026 14.6254C161.162 14.7742 161.273 14.9603 161.347 15.1588C161.384 15.258 161.421 15.3697 161.458 15.4813C161.816 16.4117 162.383 17.5405 162.975 18.3593C163.062 18.4833 163.161 18.6198 163.235 18.7438C163.284 18.595 163.235 18.4337 163.173 18.26L162.297 16.2008L166.344 15.1836L166.998 16.6598C167.109 16.9079 167.381 17.0443 167.64 16.9947L167.776 16.9699C167.763 16.7838 167.751 16.5978 167.751 16.4117C167.763 16.0643 167.763 15.7418 167.751 15.4317C167.751 15.1712 167.739 14.9355 167.751 14.7122C167.776 13.8935 167.702 13.1988 167.541 12.6157C167.479 12.4173 167.467 12.2064 167.492 12.0079L172.267 12.5661C172.637 12.6158 172.933 12.9011 172.983 13.2608L173.489 16.6722L174.92 16.4489Z" fill="white"/>
<path d="M151.635 9.89925C151.648 9.88684 151.672 9.88684 151.685 9.88684C151.722 9.88684 151.746 9.86203 151.759 9.83722C151.771 9.81241 151.771 9.7752 151.759 9.75039L151.709 9.62634C151.66 9.51469 151.722 9.37823 151.833 9.32861C151.857 9.31621 151.882 9.31621 151.907 9.31621C151.944 9.31621 151.968 9.2914 151.993 9.26659C152.005 9.24178 152.018 9.20457 152.005 9.16735L151.981 9.09292C151.931 8.96887 151.993 8.83241 152.117 8.77039C152.24 8.72077 152.388 8.77039 152.437 8.89444L152.45 8.93165C152.462 8.95646 152.487 8.98127 152.511 8.98127C152.536 8.98127 152.573 8.98127 152.585 8.95646C152.61 8.93165 152.635 8.90684 152.672 8.89444C152.795 8.84482 152.943 8.89444 152.993 9.01849C153.474 10.1473 153.548 10.3582 153.659 10.5939C153.684 10.6435 153.721 10.6684 153.77 10.6684C153.819 10.6684 153.869 10.6435 153.881 10.5939C154.079 10.1349 154.214 9.91165 154.214 9.89925C154.276 9.7876 154.424 9.75038 154.523 9.82481C154.634 9.88684 154.671 10.0357 154.597 10.1349C154.597 10.1349 154.473 10.3458 154.288 10.7676C154.14 11.1273 154.017 11.4995 153.93 11.884C153.881 12.1321 153.758 12.3306 153.56 12.4299C153.128 12.6656 152.536 12.3678 152.228 11.76C151.956 11.2142 152.351 12.157 151.512 10.1473C151.487 10.0605 151.537 9.93646 151.635 9.89925Z" fill="#9FC8D6"/>
<path d="M154.078 12.1071C153.93 11.7474 153.511 11.5737 153.153 11.7226C152.795 11.8715 152.622 12.2932 152.77 12.653L153.141 13.5461C153.684 13.3228 153.906 13.2236 154.449 12.9879L154.078 12.1071Z" fill="#9FC8D6"/>
<path d="M173.662 17.888C173.723 18.3098 174.118 18.5951 174.538 18.5207C174.957 18.4586 175.241 18.0617 175.167 17.6399L175.007 16.6103C174.39 16.7095 174.118 16.7467 173.501 16.846L173.662 17.888Z" fill="#9FC8D6"/>
<path d="M178.19 37.7114C178.178 37.5749 178.129 37.4633 178.042 37.364C177.993 37.302 177.919 37.24 177.845 37.2028C177.45 36.9919 177.055 36.9175 176.697 37.0043L175.957 36.3965L174.785 37.8354L175.315 38.282C175.056 38.7658 174.933 39.2868 174.945 39.7954C174.945 40.0931 175.007 40.3909 175.106 40.6762C175.13 40.7382 175.167 40.8002 175.217 40.8499C175.303 40.9367 175.402 40.9863 175.525 40.9987C175.71 41.0111 175.883 40.9367 176.006 40.7754L177.993 38.344C178.141 38.1456 178.215 37.9223 178.19 37.7114Z" fill="white"/>
<path d="M159.977 35.4162L160.236 34.4858L158.447 33.9896L158.262 34.6595C157.719 34.6223 157.188 34.7091 156.732 34.92C156.46 35.0441 156.213 35.2177 155.991 35.4286C155.942 35.4782 155.905 35.5403 155.88 35.6023C155.831 35.7139 155.831 35.838 155.868 35.9496C155.93 36.1233 156.078 36.2597 156.263 36.3094L159.286 37.1529C159.508 37.2149 159.73 37.1901 159.915 37.0785C160.026 37.004 160.113 36.9172 160.174 36.8056C160.211 36.7311 160.236 36.6443 160.248 36.5575C160.286 36.0985 160.187 35.7139 159.977 35.4162Z" fill="white"/>
<path d="M165.974 13.9308L165.999 13.4222C165.999 13.4098 165.999 13.385 165.986 13.385C165.974 13.3726 165.974 13.3726 165.962 13.3726C165.962 13.5835 165.949 13.7944 165.949 14.0052C165.949 13.9804 165.962 13.9556 165.974 13.9308Z" fill="#E7DEE4"/>
<path d="M165.147 13.447C165.147 13.447 165.135 13.447 165.147 13.447C165.11 13.4594 165.098 13.4842 165.098 13.509L165.086 14.0176C165.086 14.03 165.086 14.0424 165.098 14.0548C165.11 14.0672 165.123 14.0672 165.135 14.0672C165.135 13.8687 165.147 13.6578 165.147 13.447Z" fill="#E7DEE4"/>
<path d="M162.618 15.0595L162.358 14.6625C162.346 14.6377 162.321 14.6253 162.297 14.6377C162.321 14.6874 162.358 14.737 162.383 14.7742C162.395 14.799 162.507 14.9479 162.605 15.1215C162.605 15.1091 162.618 15.1091 162.618 15.0967C162.63 15.0843 162.618 15.0719 162.618 15.0595Z" fill="#E7DEE4"/>
<path d="M174.562 34.9948L172.119 32.9852C170.959 32.03 170.071 30.7895 169.552 29.3753L167.8 24.6986C168.047 24.6242 168.294 24.5373 168.565 24.4257C169.577 24.0039 170.182 23.3961 170.379 22.6022C170.502 22.106 170.441 21.6098 170.305 21.188C170.108 20.5677 169.713 20.0343 169.194 19.6498L168.96 19.4761L168.787 19.0543L168.442 18.2232L168.281 17.0695C168.281 17.0571 168.281 17.0447 168.281 17.0323C168.257 16.9455 168.17 16.8834 168.084 16.9082L167.948 16.9331L167.763 16.9703L167.627 16.9951C167.368 17.0447 167.097 16.9082 166.986 16.6601L165.949 14.3032H165.937C165.937 14.266 165.937 14.2164 165.937 14.1791C165.937 14.1791 165.937 14.1791 165.924 14.1791L165.135 14.266C165.135 14.3156 165.135 14.3652 165.135 14.4272H165.11C163.531 15.0847 164.382 14.725 162.803 15.3948C162.778 15.3576 162.753 15.3204 162.729 15.2708L162.716 15.2832L162.087 15.7918C162.112 15.829 162.136 15.8786 162.161 15.9034L163.16 18.248C163.222 18.4217 163.271 18.5829 163.222 18.7318C163.222 18.7442 163.21 18.769 163.21 18.7814L163.136 18.9427L163.111 19.0047C163.074 19.0667 163.099 19.1536 163.148 19.2156L163.642 19.8358L163.888 20.146L164.407 21.3989L164.357 21.7586C164.345 21.8206 164.345 21.8951 164.357 21.9571C164.357 21.9695 164.37 21.9943 164.37 22.0067C164.419 22.23 164.481 22.4533 164.567 22.6642L164.579 22.7014C164.69 22.9743 164.802 23.2472 164.925 23.4953L162.605 24.8102C161.235 25.5918 160.248 26.8571 159.816 28.3829L158.805 32.03H158.792C158.73 32.0176 158.681 32.0424 158.656 32.1044L158.545 32.5138L158.299 33.3821L158.188 33.7915C158.175 33.8535 158.2 33.9031 158.262 33.9279C158.99 34.1264 159.705 34.3373 160.433 34.5358C160.495 34.5482 160.544 34.5234 160.569 34.4614L160.68 34.052C160.396 33.9652 160.1 33.8907 159.816 33.8039C160.162 33.9031 160.433 33.9776 160.68 34.052L160.927 33.1836L161.038 32.7743C161.05 32.7122 161.026 32.6626 160.964 32.6378C160.458 32.5014 159.952 32.3525 159.434 32.216C159.927 32.3525 160.384 32.489 160.952 32.6378L161.963 28.9907C162.223 28.0356 162.84 27.254 163.703 26.7702L165.789 25.5794L167.504 30.1444C168.17 31.9183 169.293 33.4938 170.749 34.6847L173.192 36.6943C173.674 36.0864 174.056 35.6274 174.562 34.9948ZM163.469 16.9951C163.95 16.7966 164.197 16.685 164.444 16.5857C164.197 16.685 163.95 16.7966 163.469 16.9951ZM165.221 19.5753L165.986 19.2528V19.2652L165.221 19.5753Z" fill="url(#paint0_linear)"/>
<path d="M176.068 36.0615L175.747 35.801L175.056 35.2304L174.735 34.9699C174.686 34.9327 174.624 34.9327 174.587 34.9823C174.106 35.5653 173.637 36.1484 173.155 36.7314C173.118 36.781 173.118 36.843 173.168 36.8803L173.489 37.1408L174.18 37.7114L174.5 37.9719C174.55 38.0091 174.611 38.0091 174.649 37.9595C175.327 37.1284 175.747 36.6074 176.08 36.2104C176.117 36.1732 176.117 36.1111 176.068 36.0615Z" fill="url(#paint1_linear)"/>
<path d="M166.011 11.7725C166.06 11.1646 166.258 10.594 166.924 10.4576C166.529 10.4327 166.072 10.4824 165.591 10.5816C165.517 10.6436 165.455 10.7181 165.418 10.7925C165.283 11.0406 165.233 11.3507 165.221 11.636C165.209 11.8965 165.209 12.1446 165.196 12.4051C165.184 12.6905 165.172 12.9758 165.172 13.2611L165.974 13.1743C165.961 12.6905 165.974 12.2315 166.011 11.7725Z" fill="url(#paint2_linear)"/>
<path d="M165.937 13.993C165.949 13.7821 165.949 13.5712 165.949 13.3604L165.159 13.4472C165.159 13.6581 165.147 13.869 165.135 14.0798L165.937 13.993C165.924 13.993 165.924 13.993 165.937 13.993Z" fill="url(#paint3_linear)"/>
<path d="M161.556 14.9975L162.186 14.4889C162.186 14.4889 162.186 14.4889 162.198 14.4889C162.161 14.4393 162.136 14.3773 162.099 14.3277C161.902 13.9927 161.729 13.6454 161.63 13.2608C161.569 13.0127 161.532 12.7646 161.556 12.5165C161.556 12.4917 161.556 12.4545 161.569 12.4297C161.606 12.2932 161.655 12.2064 161.828 12.0948C161.495 12.3056 161.186 12.5165 160.927 12.7398C160.915 12.777 160.915 12.8018 160.902 12.8391C160.816 13.3477 160.976 13.8935 161.211 14.3649C161.322 14.5634 161.445 14.7742 161.556 14.9975Z" fill="url(#paint4_linear)"/>
<path d="M161.655 15.1592C161.742 15.2832 161.865 15.4693 161.976 15.643L162.605 15.1344C162.605 15.1344 162.605 15.1344 162.618 15.1219C162.507 14.9607 162.408 14.7994 162.396 14.7746C162.371 14.725 162.334 14.6754 162.309 14.6382C162.309 14.6382 162.309 14.6382 162.297 14.6382L161.655 15.1592Z" fill="url(#paint5_linear)"/>
<path d="M161.655 15.2331L161.914 15.6301C161.926 15.6549 161.963 15.6673 161.976 15.6549C161.865 15.4812 161.741 15.2951 161.655 15.1711C161.643 15.1711 161.643 15.2083 161.655 15.2331Z" fill="#E7DEE4"/>
<path d="M175.525 20.6418C175.512 20.6418 175.488 20.6418 175.475 20.6418C175.438 20.6418 175.414 20.6542 175.389 20.679C175.364 20.7038 175.352 20.7286 175.364 20.7659L175.389 20.8899C175.401 21.014 175.315 21.1256 175.192 21.1504C175.167 21.1504 175.142 21.1504 175.118 21.1504C175.081 21.138 175.056 21.1504 175.031 21.1752C175.006 21.2 174.994 21.2372 175.006 21.2621L175.019 21.3365C175.043 21.4729 174.945 21.5846 174.809 21.6094C174.673 21.6342 174.55 21.535 174.538 21.4109V21.3737C174.538 21.3489 174.513 21.3241 174.488 21.3117C174.464 21.2993 174.426 21.2993 174.402 21.3241C174.377 21.3489 174.34 21.3613 174.303 21.3613C174.167 21.3861 174.044 21.2869 174.032 21.1628C173.859 19.9471 173.822 19.7238 173.785 19.4757C173.772 19.4261 173.735 19.3889 173.698 19.3765C173.649 19.3641 173.6 19.3765 173.563 19.4261C173.267 19.8231 173.069 20.0091 173.069 20.0091C172.983 20.096 172.835 20.096 172.748 20.0091C172.662 19.9223 172.662 19.7734 172.748 19.6866C172.748 19.6866 172.921 19.5129 173.205 19.1532C173.439 18.8431 173.649 18.5081 173.822 18.1608C173.933 17.9375 174.106 17.7762 174.315 17.7266C174.784 17.6026 175.29 18.0491 175.438 18.7066C175.574 19.3021 175.414 18.2972 175.735 20.4433C175.722 20.5302 175.636 20.6294 175.525 20.6418Z" fill="#9FC8D6"/>
<path d="M162.334 9.48952L162.371 9.50193C162.469 9.52674 162.63 9.50193 162.716 9.4399L162.753 9.41509C162.839 9.35306 162.815 9.31585 162.704 9.34066L162.371 9.40268C162.235 9.41509 162.235 9.46471 162.334 9.48952Z" fill="#F6916F"/>
<path d="M161.26 8.22419C161.087 8.249 161.013 8.36064 161.05 8.55912C161.075 8.7452 161.186 8.83204 161.359 8.79482C161.531 8.77001 161.605 8.65836 161.568 8.45988C161.531 8.27381 161.433 8.18697 161.26 8.22419Z" fill="#454545"/>
<path d="M163.321 7.8523C163.148 7.87711 163.074 7.98876 163.111 8.18723C163.136 8.37331 163.247 8.46015 163.419 8.42293C163.592 8.39812 163.666 8.28647 163.629 8.08799C163.592 7.90192 163.481 7.81509 163.321 7.8523Z" fill="#454545"/>
<path d="M161.544 7.55483L160.841 7.67888C160.791 7.69128 160.767 7.7285 160.767 7.77812C160.779 7.82774 160.816 7.85255 160.865 7.85255L161.569 7.7285C161.618 7.71609 161.643 7.67888 161.643 7.62926C161.643 7.56723 161.593 7.54242 161.544 7.55483Z" fill="#4C3513"/>
<path d="M163.518 7.19482L162.815 7.31887C162.765 7.33128 162.741 7.36849 162.741 7.41811C162.753 7.46773 162.79 7.49254 162.839 7.49254L163.543 7.36849C163.592 7.35609 163.617 7.31887 163.617 7.26925C163.604 7.21963 163.567 7.19482 163.518 7.19482Z" fill="#4C3513"/>
<path d="M161.408 10.9906C161.803 11.2139 162.272 11.2759 162.803 11.1642C162.84 11.1642 162.864 11.1518 162.901 11.1518C163.42 11.065 163.827 10.8293 164.111 10.4571C164.394 10.085 164.555 9.58879 164.592 8.95614C164.592 8.8693 164.592 8.79487 164.604 8.70803C164.579 8.6212 164.086 6.72323 163.876 6.46273C163.666 6.20222 163.136 5.92931 162.766 5.95412C162.395 5.96652 161.914 6.04095 161.914 6.04095C161.914 6.04095 161.433 6.14019 161.075 6.25184C160.717 6.36349 160.322 6.79766 160.211 7.12019C160.1 7.43032 160.285 9.39031 160.298 9.47715C160.322 9.55158 160.359 9.63841 160.384 9.71284C160.631 10.3207 160.976 10.7549 161.408 10.9906ZM161.05 8.54677C161.013 8.3607 161.087 8.23664 161.26 8.21183C161.433 8.17462 161.544 8.26145 161.569 8.44753C161.606 8.63361 161.532 8.75766 161.359 8.78247C161.186 8.81968 161.075 8.74525 161.05 8.54677ZM163.42 8.42272C163.247 8.45994 163.136 8.3731 163.111 8.18702C163.074 8.00095 163.148 7.8769 163.321 7.85209C163.494 7.81487 163.605 7.90171 163.629 8.08778C163.654 8.28626 163.592 8.39791 163.42 8.42272ZM162.358 9.40272L162.692 9.34069C162.803 9.31588 162.827 9.3531 162.741 9.41512L162.704 9.43993C162.617 9.50196 162.469 9.52677 162.358 9.50196L162.321 9.48955C162.235 9.46474 162.235 9.41512 162.358 9.40272Z" fill="#FDCEA2"/>
<path d="M160.236 9.7502C160.236 9.7502 160.236 9.76261 160.236 9.7502C160.507 10.4077 160.878 10.8542 161.334 11.1148C161.741 11.338 162.21 11.4125 162.728 11.3132C162.753 11.3132 162.79 11.3008 162.815 11.3008C162.852 11.3008 162.877 11.2884 162.914 11.2884C163.469 11.1892 163.913 10.9411 164.209 10.5441C164.505 10.1596 164.678 9.62615 164.715 8.96869V8.95628C164.826 8.94387 165.147 8.84464 165.172 8.11274C165.184 7.5173 164.962 7.39325 164.814 7.36844C164.765 8.05071 164.579 8.70818 164.579 8.70818C164.579 8.79501 164.579 8.88185 164.567 8.95628C164.53 9.57653 164.37 10.0851 164.086 10.4573C163.802 10.817 163.395 11.0527 162.877 11.152C162.852 11.152 162.815 11.1644 162.778 11.1644C162.247 11.276 161.778 11.214 161.383 10.9907C160.964 10.755 160.618 10.3208 160.359 9.71299C160.322 9.63856 160.298 9.56413 160.273 9.47729C160.273 9.47729 159.878 8.91907 159.594 8.29882C159.459 8.36084 159.298 8.55932 159.508 9.11755C159.792 9.79982 160.125 9.77501 160.236 9.7502Z" fill="#FCB97C"/>
<path d="M159.606 8.29898C159.89 8.91923 160.285 9.47746 160.285 9.47746C160.273 9.39062 160.1 7.43063 160.199 7.1205C160.31 6.79797 160.705 6.36379 161.062 6.25215C161.42 6.1405 161.902 6.04126 161.902 6.04126C161.902 6.04126 162.383 5.97924 162.753 5.95443C163.123 5.94202 163.654 6.20253 163.864 6.46303C164.073 6.72354 164.567 8.6091 164.592 8.70834C164.592 8.70834 164.764 8.05088 164.826 7.3686C164.838 7.25696 164.838 7.14531 164.838 7.04607C164.838 6.30177 164.505 5.50785 163.999 5.02405C163.493 4.54025 162.37 4.03165 162.37 4.03165L162.284 4.45342L161.47 3.54785L161.013 4.67671L160.791 4.30456C160.791 4.30456 159.903 5.17291 159.594 5.80557C159.286 6.43822 159.236 7.29417 159.495 7.98885C159.52 8.1005 159.569 8.19974 159.606 8.29898Z" fill="#71431C"/>
<path d="M150.92 20.7785C150.932 21.2002 151.277 21.5352 151.697 21.5228C152.117 21.5104 152.45 21.163 152.437 20.7412L152.413 19.6992C151.783 19.7116 151.512 19.7116 150.895 19.724L150.92 20.7785Z" fill="#FEE89B"/>
<path d="M146.23 1.17848C146.304 1.15367 146.366 1.11645 146.44 1.07924C146.576 0.992403 146.699 0.880758 146.786 0.756707C146.798 0.731897 146.823 0.682277 146.86 0.607846C146.934 0.458986 147.02 0.235696 147.02 0.136456C147.02 0.111646 146.971 0.14886 146.909 0.186075C146.872 0.210885 146.823 0.2481 146.81 0.2481C146.391 0.409366 145.934 0.210886 145.49 0.223291C145.354 0.223291 145.206 0.260506 145.083 0.310126C145.07 0.322531 145.046 0.322531 145.033 0.334936C145.009 0.347341 144.972 0.372151 144.947 0.384557C144.922 0.409367 144.885 0.421772 144.861 0.446582C144.824 0.483797 144.787 0.508606 144.75 0.558226L144.737 0.570632C144.713 0.607847 144.626 0.756707 144.589 0.769112H144.577C144.565 0.769112 144.552 0.756707 144.54 0.756707C144.515 0.744302 144.491 0.731897 144.466 0.719492C144.379 0.682277 144.268 0.669872 144.182 0.694682C144.157 0.707087 144.12 0.731896 144.096 0.744301C144.083 0.756706 144.059 0.756707 144.046 0.756707C144.034 0.756707 144.022 0.744302 144.022 0.731897C143.997 0.694682 143.96 0.632656 143.948 0.620251C143.849 0.521011 143.738 0.434176 143.627 0.359746C143.491 0.272911 143.343 0.210886 143.183 0.173671C143.084 0.14886 142.973 0.136455 142.862 0.12405C142.677 0.111645 142.492 0.111645 142.306 0.111645C142.22 0.111645 142.146 0.111646 142.06 0.0992406C141.998 0.0992406 141.924 0.0868359 141.862 0.0744309C141.801 0.0620259 141.739 0.0496205 141.677 0.0372155C141.64 0.0248104 141.591 0 141.554 0C141.554 0.012405 141.554 0.0124058 141.566 0.0124058C141.566 0.0124058 141.566 0.0124056 141.578 0.0248106C141.603 0.0496207 141.628 0.0868352 141.652 0.12405C141.677 0.161265 141.689 0.186076 141.702 0.198481C141.813 0.384557 141.912 0.570632 142.072 0.719492C142.084 0.731897 142.097 0.744302 142.121 0.756707C142.158 0.793922 142.195 0.831137 142.232 0.868352C142.38 1.00481 142.541 1.11645 142.714 1.21569C142.714 1.21569 142.726 1.21569 142.726 1.2281C142.726 1.2281 142.738 1.2281 142.738 1.2405C142.837 1.29012 143.01 1.32734 142.948 1.43898C142.886 1.56303 142.837 1.67468 142.812 1.81113C142.812 1.82354 142.812 1.82354 142.812 1.83594V1.84835C142.812 1.86075 142.812 1.87316 142.812 1.88556C142.8 1.95999 142.8 2.03442 142.812 2.12126C142.825 2.28253 142.886 2.44379 142.973 2.59265C142.997 2.62987 143.059 2.7043 143.108 2.76632C143.146 2.81594 143.183 2.84075 143.207 2.85316C143.232 2.84075 143.269 2.75392 143.306 2.67949C143.318 2.64227 143.331 2.60506 143.343 2.58025C143.368 2.53063 143.392 2.4686 143.417 2.41898C143.442 2.35695 143.466 2.30734 143.503 2.24531C143.54 2.17088 143.59 2.08404 143.639 2.00961C143.725 1.88556 143.812 1.77392 143.911 1.66227C143.96 1.61265 144.009 1.55063 144.083 1.52582C144.17 1.50101 144.281 1.55063 144.379 1.56303C144.392 1.56303 144.416 1.56303 144.429 1.56303C144.491 1.56303 144.552 1.55063 144.614 1.52582C144.614 1.52582 144.614 1.52582 144.626 1.52582H144.639C144.676 1.50101 144.725 1.4762 144.762 1.46379C144.873 1.43898 145.033 1.55063 145.12 1.60025C145.391 1.76151 145.638 1.95999 145.873 2.17088C145.91 2.19569 145.934 2.2329 145.971 2.25771C146.095 2.38177 146.218 2.50582 146.341 2.64227C146.403 2.7167 146.527 2.97721 146.601 3.00202C146.601 3.00202 146.601 3.00202 146.613 3.00202C146.675 3.01442 146.761 2.79113 146.81 2.62987C146.823 2.56784 146.835 2.51822 146.835 2.49341C146.847 2.35696 146.81 2.19569 146.81 2.04683C146.81 2.04683 146.81 2.04683 146.81 2.03442C146.81 1.93518 146.786 1.84835 146.749 1.76151C146.736 1.7243 146.712 1.67468 146.687 1.63746C146.687 1.62506 146.675 1.62506 146.675 1.62506C146.625 1.53822 146.551 1.45139 146.477 1.37696C146.477 1.37696 146.477 1.37696 146.465 1.36455C146.44 1.33974 146.354 1.25291 146.292 1.20329C146.267 1.17848 146.243 1.16607 146.23 1.16607C146.23 1.16607 146.23 1.16607 146.218 1.16607H146.23C146.206 1.20329 146.218 1.20329 146.23 1.17848Z" fill="#DF5457"/>
<path d="M146.367 0.297791C146.342 0.297791 146.317 0.297791 146.28 0.297791C146.305 0.310299 146.342 0.310299 146.367 0.297791C146.367 0.310299 146.367 0.297791 146.367 0.297791Z" fill="#DF5457"/>
<path d="M146.835 6.14055C146.625 6.78561 146.255 7.257 145.774 7.52991C146.119 8.57193 147.02 8.96889 147.02 8.96889C146.699 7.70358 147.613 7.21978 147.045 6.05371C146.959 6.11574 146.872 6.11574 146.835 6.11574C146.835 6.12814 146.835 6.14055 146.835 6.14055Z" fill="#78512D"/>
<path d="M144.96 6.16528H144.626C144.515 6.16528 144.491 6.2025 144.589 6.25212L144.626 6.26453C144.725 6.31415 144.873 6.31415 144.972 6.26453L145.009 6.25212C145.095 6.2025 145.071 6.16528 144.96 6.16528Z" fill="#F6916F"/>
<path d="M145.761 2.96481C145.687 2.81595 145.675 2.59266 145.675 2.45621C145.663 2.58026 145.613 2.79114 145.44 2.87798C145.181 3.00203 144.034 2.72912 143.392 4.03165C142.825 5.18531 143.232 5.96683 143.219 6.78556C143.59 7.34379 144.145 7.64151 144.811 7.64151C145.157 7.64151 145.478 7.55468 145.761 7.39341C146.206 7.1329 146.539 6.69873 146.736 6.09088C146.785 5.95443 146.81 5.80557 146.847 5.6443C146.847 5.6319 146.847 5.6319 146.847 5.61949C146.847 5.21012 146.81 4.51544 146.576 4.18051C146.23 3.73393 145.872 3.1881 145.761 2.96481ZM144.626 6.16531H144.959C145.07 6.16531 145.095 6.20253 144.996 6.25215L144.959 6.26455C144.861 6.31417 144.712 6.31417 144.614 6.26455L144.577 6.25215C144.49 6.20253 144.515 6.16531 144.626 6.16531ZM143.503 5.09848C143.503 4.88759 143.59 4.77595 143.762 4.77595C143.935 4.77595 144.021 4.88759 144.021 5.09848C144.021 5.30937 143.935 5.42101 143.762 5.42101C143.59 5.43342 143.503 5.32177 143.503 5.09848ZM145.86 5.42101C145.848 5.42101 145.835 5.42101 145.823 5.42101C145.65 5.42101 145.564 5.30937 145.564 5.09848C145.564 4.88759 145.65 4.77595 145.823 4.77595C145.996 4.77595 146.082 4.88759 146.082 5.09848C146.082 5.1481 146.082 5.18531 146.07 5.22253C146.045 5.34658 145.971 5.40861 145.86 5.42101Z" fill="#FCCAB4"/>
<path d="M146.81 5.94188C146.81 5.94188 146.823 5.83023 146.823 5.66897C146.823 5.65656 146.823 5.64416 146.823 5.63175C146.823 5.64416 146.823 5.64416 146.823 5.65656C146.798 5.80542 146.761 5.95428 146.712 6.10314C146.514 6.71099 146.181 7.15757 145.737 7.40567C145.453 7.56694 145.145 7.65377 144.787 7.65377C144.12 7.65377 143.577 7.34365 143.195 6.79783C143.195 6.87226 143.195 6.93428 143.183 7.00871C143.577 7.51732 144.133 7.79023 144.787 7.79023C145.145 7.79023 145.478 7.70339 145.774 7.54213C146.255 7.26922 146.625 6.78542 146.835 6.15276V6.14036C146.884 6.14036 146.959 6.12795 147.045 6.07833C147.168 6.0039 147.304 5.81783 147.39 5.43327C147.464 5.04871 147.403 4.86264 147.304 4.7634C147.193 5.23479 147.008 5.60694 146.897 5.80542C146.847 5.87985 146.81 5.94188 146.81 5.94188Z" fill="#FAB599"/>
<path d="M145.737 1.50104C145.737 1.50104 142.639 0.70712 142.084 3.53547C141.554 6.22736 143.121 6.5623 142.701 8.11292C143.034 7.70356 143.158 7.34381 143.207 6.98407C143.219 6.90964 143.219 6.84761 143.219 6.77318C143.232 5.95445 142.825 5.17293 143.392 4.01926C144.034 2.71674 145.181 2.98965 145.44 2.8656C145.613 2.77876 145.663 2.56788 145.675 2.44382C145.675 2.56788 145.687 2.79117 145.761 2.95243C145.872 3.17572 146.243 3.72154 146.551 4.18053C146.785 4.51546 146.823 5.22255 146.823 5.61951C146.823 5.63192 146.823 5.64432 146.823 5.65673C146.823 5.81799 146.81 5.92964 146.81 5.92964C146.81 5.92964 146.847 5.88002 146.897 5.78078C147.008 5.5823 147.193 5.21015 147.304 4.73876C147.427 4.23015 147.464 3.6099 147.23 2.98965C146.674 1.53826 145.737 1.50104 145.737 1.50104Z" fill="#855D33"/>
<path d="M144.021 5.09844C144.021 4.88756 143.935 4.77591 143.762 4.77591C143.59 4.77591 143.503 4.88756 143.503 5.09844C143.503 5.30933 143.59 5.42097 143.762 5.42097C143.935 5.43338 144.021 5.32173 144.021 5.09844Z" fill="#454545"/>
<path d="M145.86 5.42097C145.971 5.40857 146.045 5.34654 146.07 5.22249C146.082 5.18528 146.082 5.14806 146.082 5.09844C146.082 4.88756 145.996 4.77591 145.823 4.77591C145.65 4.77591 145.564 4.88756 145.564 5.09844C145.564 5.30933 145.65 5.42097 145.823 5.42097C145.835 5.42097 145.848 5.42097 145.86 5.42097Z" fill="#454545"/>
<path d="M151.104 40.1055C151.092 40.0435 151.08 39.9815 151.055 39.9318C150.932 39.6589 150.771 39.4108 150.586 39.2123C150.315 38.9146 149.969 38.6913 149.599 38.5673L149.513 37.761C148.254 37.8602 148.883 37.8106 147.625 37.9098L147.748 39.1255C147.637 39.324 147.563 39.5721 147.514 39.8574C147.501 39.9442 147.501 40.0311 147.514 40.1179C147.538 40.2296 147.575 40.3412 147.649 40.4404C147.773 40.6141 147.958 40.7133 148.155 40.7133H150.598C150.771 40.7133 150.932 40.6141 151.018 40.4528C151.092 40.3288 151.117 40.2171 151.104 40.1055Z" fill="white"/>
<path d="M143.478 39.845C143.429 39.5472 143.343 39.2867 143.232 39.0759L143.256 37.8105C141.985 37.8105 142.639 37.8105 141.368 37.8105L141.356 38.5673C140.998 38.6913 140.69 38.9022 140.418 39.1875C140.233 39.386 140.073 39.6341 139.949 39.907C139.925 39.969 139.912 40.0186 139.9 40.0807C139.888 40.1923 139.912 40.304 139.962 40.4032C140.048 40.5645 140.208 40.6637 140.381 40.6637H142.824C143.022 40.6637 143.207 40.5645 143.33 40.3908C143.404 40.2916 143.441 40.1923 143.466 40.0683C143.491 40.0186 143.491 39.9318 143.478 39.845Z" fill="white"/>
<path d="M147.97 20.5431C147.97 20.5059 147.958 20.4811 147.958 20.4439C148.057 19.8733 148.02 19.2282 147.97 18.6948C147.958 18.5335 147.896 18.3723 147.798 18.2358L147.625 18.0001L147.427 17.7396V17.2806V16.3378L147.477 16.2138L147.835 15.1842C147.859 15.1097 147.835 15.0229 147.773 14.9733L147.551 14.7996C147.551 14.7996 147.551 14.7996 147.538 14.7996C147.477 14.75 147.415 14.688 147.378 14.6259C147.316 14.5267 147.279 14.4151 147.267 14.291L147.119 11.6611L147.144 11.5371C147.144 11.5371 147.144 11.5371 147.131 11.5371L146.132 11.3014C146.132 11.3014 146.132 11.3014 146.119 11.3014L146.082 11.4503C145.453 11.4503 145.379 11.4503 144.762 11.4503C144.75 11.4503 144.737 11.4503 144.725 11.4503C144.429 11.4503 144.022 11.4503 143.405 11.4503L143.368 11.3014C143.368 11.3014 143.368 11.3014 143.355 11.3014L142.356 11.5371C142.356 11.5371 142.356 11.5371 142.344 11.5371L142.368 11.6611L142.22 14.291C142.208 14.4151 142.171 14.5267 142.109 14.6259C142.072 14.688 142.01 14.75 141.949 14.7996C141.949 14.7996 141.949 14.7996 141.936 14.7996L141.714 14.9609C141.653 15.0105 141.628 15.0973 141.653 15.1718L142.01 16.2014L142.06 16.3254V17.2682V17.7148L141.862 17.9877L141.69 18.2234C141.591 18.3598 141.529 18.5087 141.517 18.6824C141.467 19.2406 141.443 19.8112 141.504 20.3198C141.492 20.3943 141.48 20.4563 141.48 20.5307L141.307 37.8109C141.998 37.8109 140.702 37.8109 143.195 37.8109L143.713 22.1682C144.009 22.2054 144.343 22.2178 144.713 22.2178C145.12 22.2178 145.478 22.193 145.799 22.1558L147.575 37.8854C148.353 37.8233 148.698 37.7985 149.463 37.7365L147.97 20.5431Z" fill="#FCCAB4"/>
<path d="M147.365 10.5816C147.378 10.5816 147.378 10.5816 147.365 10.5816L147.945 8.05095C147.834 8.02614 147.736 8.01373 147.625 8.01373C147.365 7.98892 147.131 7.96411 146.909 7.9393L146.366 10.3459C146.366 10.3459 146.366 10.3459 146.378 10.3459L147.365 10.5816Z" fill="#FCCAB4"/>
<path d="M147.193 11.3508L147.329 10.7678C147.329 10.7678 147.329 10.7678 147.316 10.7678L146.317 10.5321C146.317 10.5321 146.317 10.5321 146.305 10.5321L146.169 11.1151C146.169 11.1151 146.169 11.1151 146.181 11.1151L147.193 11.3508Z" fill="#FCCAB4"/>
<path d="M142.208 10.7678L142.344 11.3508C142.344 11.3508 142.344 11.3508 142.356 11.3508L143.355 11.1151C143.355 11.1151 143.355 11.1151 143.368 11.1151L143.232 10.5321C143.232 10.5321 143.232 10.5321 143.22 10.5321L142.208 10.7678Z" fill="#FCCAB4"/>
<path d="M142.171 10.5816L143.17 10.3459C143.17 10.3459 143.17 10.3459 143.183 10.3459L142.64 7.9393C142.418 7.96411 142.183 7.97652 141.924 8.00133C141.813 8.00133 141.702 8.01373 141.603 8.03854L142.171 10.5816Z" fill="#FCCAB4"/>
<path d="M150.87 19.5382H152.351V16.7719C152.351 15.4073 151.993 14.0676 151.314 12.8891L148.957 8.78304C148.896 8.6714 148.797 8.58456 148.698 8.52253C148.476 8.32405 148.205 8.2 147.921 8.13798L147.81 8.62177C147.6 8.82026 147.526 9.14279 147.625 9.4157L147.514 9.88709L147.106 8.13798L146.884 8.10076L146.897 8.03874C146.539 8.00152 146.243 7.97671 145.971 7.9519C144.947 8.98152 143.639 7.9519 143.639 7.9519C143.367 7.97671 143.059 8.00152 142.713 8.02633L141.702 8.15038V8.13798C141.652 8.15038 141.615 8.16279 141.566 8.1752C141.331 8.23722 141.122 8.36127 140.924 8.52253C140.801 8.59696 140.69 8.70861 140.628 8.85747L138.358 13.8443C138.358 13.8567 138.345 13.8691 138.333 13.8691C138.308 13.8939 138.284 13.9063 138.259 13.9187C138.222 13.9311 138.173 13.9187 138.148 13.8939L135.482 11.6734L134.545 12.8271L137.198 15.0352C137.58 15.3577 138.098 15.4818 138.592 15.3701C139.061 15.2585 139.48 14.9359 139.703 14.4645L141.344 10.8671C141.541 11.6982 141.874 12.9883 141.985 13.4101C142.047 13.6458 142.158 14.0676 142.158 14.0676C142.195 14.2288 142.232 14.3901 142.257 14.5514C142.319 14.4521 142.356 14.3405 142.356 14.2288L142.454 12.4053H147.143L147.242 14.2288C147.242 14.3405 147.279 14.4521 147.341 14.5514C147.365 14.3901 147.402 14.2288 147.439 14.0676C147.439 14.0676 147.551 13.6458 147.612 13.4225C147.649 13.2613 148.093 11.5494 148.303 10.6686L150.018 13.6458C150.561 14.601 150.858 15.6802 150.858 16.7843V19.5382H150.87Z" fill="white"/>
<path d="M132.262 8.95657C132.274 8.95657 132.299 8.94417 132.311 8.94417C132.348 8.94417 132.373 8.93176 132.385 8.90695C132.398 8.88214 132.41 8.84493 132.398 8.82012L132.361 8.69607C132.324 8.57202 132.398 8.44797 132.521 8.41075C132.546 8.39835 132.571 8.39835 132.595 8.39835C132.632 8.39835 132.657 8.38594 132.682 8.36113C132.706 8.33632 132.706 8.29911 132.694 8.26189L132.669 8.18746C132.632 8.06341 132.706 7.92695 132.83 7.88974C132.953 7.85252 133.089 7.92696 133.138 8.05101L133.151 8.08822C133.163 8.11303 133.175 8.13784 133.212 8.15024C133.237 8.16265 133.274 8.15024 133.299 8.12543C133.323 8.10062 133.36 8.08822 133.397 8.07582C133.521 8.0386 133.656 8.11303 133.706 8.23708C134.051 9.41556 134.113 9.62644 134.187 9.87454C134.199 9.92417 134.249 9.96138 134.298 9.96138C134.347 9.96138 134.397 9.93657 134.422 9.89935C134.668 9.46518 134.829 9.25429 134.829 9.24189C134.903 9.14265 135.051 9.11784 135.15 9.20467C135.248 9.2791 135.273 9.42796 135.187 9.5272C135.187 9.5272 135.039 9.72568 134.816 10.1226C134.619 10.47 134.471 10.8297 134.347 11.2019C134.273 11.4376 134.125 11.6237 133.916 11.7105C133.459 11.8966 132.904 11.5368 132.669 10.9042C132.46 10.3335 132.756 11.3135 132.139 9.21708C132.102 9.09303 132.163 8.98138 132.262 8.95657Z" fill="#FEE89B"/>
<path d="M134.545 10.7799C134.212 10.507 133.706 10.5442 133.434 10.8916C133.163 11.2265 133.2 11.7351 133.545 12.008L134.372 12.6903C134.779 12.1817 134.964 11.9708 135.372 11.4622L134.545 10.7799Z" fill="#FEE89B"/>
<path d="M152.388 23.7681C152.376 23.7681 152.351 23.7681 152.339 23.7681C152.314 23.7557 152.277 23.7681 152.252 23.7929C152.227 23.8178 152.215 23.8426 152.215 23.8798V24.0038C152.215 24.1279 152.116 24.2271 151.993 24.2271C151.968 24.2271 151.944 24.2271 151.919 24.2147C151.882 24.2023 151.857 24.2147 151.82 24.2271C151.796 24.2519 151.783 24.2767 151.783 24.314V24.3884C151.783 24.5248 151.672 24.6241 151.536 24.6365C151.401 24.6365 151.29 24.5372 151.29 24.4008V24.3636C151.29 24.3388 151.277 24.3016 151.253 24.2891C151.228 24.2767 151.191 24.2767 151.166 24.2891C151.129 24.3016 151.105 24.314 151.055 24.314C150.919 24.314 150.808 24.2147 150.808 24.0783C150.796 22.8502 150.796 22.6269 150.796 22.3788C150.796 22.3292 150.759 22.2795 150.722 22.2671C150.685 22.2547 150.623 22.2547 150.586 22.2919C150.241 22.6393 150.019 22.8005 150.019 22.8005C149.92 22.875 149.772 22.8502 149.698 22.7509C149.624 22.6517 149.648 22.5028 149.747 22.4284C149.747 22.4284 149.945 22.2795 150.265 21.957C150.549 21.6841 150.796 21.374 151.018 21.0514C151.154 20.8406 151.351 20.7041 151.573 20.6793C152.055 20.6297 152.499 21.1259 152.548 21.8081C152.598 22.416 152.585 21.3988 152.598 23.5697C152.598 23.6813 152.499 23.7681 152.388 23.7681Z" fill="#FEE89B"/>
<path d="M143.774 22.1807C144.071 22.2179 144.404 22.2303 144.774 22.2303C145.181 22.2303 145.539 22.2055 145.86 22.1683" fill="url(#paint6_linear)"/>
<path d="M147.97 20.5433C147.97 20.5061 147.958 20.4813 147.958 20.4441C148.056 19.8734 148.019 19.2284 147.97 18.695C147.958 18.5337 147.896 18.3724 147.797 18.236L147.624 18.0003L147.427 17.7398V17.2808V16.338L147.476 16.214L147.834 15.1843C147.859 15.1099 147.834 15.0231 147.772 14.9735L147.55 14.7998C147.55 14.7998 147.55 14.7998 147.538 14.7998C147.476 14.7502 147.415 14.6881 147.378 14.6261C147.316 14.5269 147.279 14.4152 147.267 14.2912L147.118 11.6613L147.143 11.5373C147.143 11.5373 147.143 11.5373 147.131 11.5373L146.131 11.3016C146.131 11.3016 146.131 11.3016 146.119 11.3016L146.082 11.4504C145.453 11.4504 145.379 11.4504 144.762 11.4504C144.749 11.4504 144.737 11.4504 144.725 11.4504C144.428 11.4504 144.021 11.4504 143.404 11.4504L143.367 11.3016C143.367 11.3016 143.367 11.3016 143.355 11.3016L142.355 11.5373C142.355 11.5373 142.355 11.5373 142.343 11.5373L142.368 11.6613L142.22 14.2912C142.207 14.4152 142.17 14.5269 142.109 14.6261C142.072 14.6881 142.01 14.7502 141.948 14.7998C141.948 14.7998 141.948 14.7998 141.936 14.7998L141.714 14.9611C141.652 15.0107 141.627 15.0975 141.652 15.1719L142.01 16.2016L142.059 16.3256V17.2684V17.715L141.862 17.9879L141.689 18.2236C141.59 18.36 141.529 18.5089 141.516 18.6826C141.467 19.2408 141.442 19.8114 141.504 20.32C141.492 20.3945 141.479 20.4565 141.479 20.5309L141.023 25.1084H149.389L147.97 20.5433Z" fill="url(#paint7_linear)"/>
<path d="M147.365 10.5818C147.378 10.5818 147.378 10.5818 147.365 10.5818L147.945 8.05116C147.834 8.02635 147.735 8.01395 147.624 8.01395C147.365 7.98914 147.131 7.96432 146.909 7.93951L146.366 10.3461C146.366 10.3461 146.366 10.3461 146.378 10.3461L147.365 10.5818Z" fill="url(#paint8_linear)"/>
<path d="M147.192 11.3511L147.328 10.768C147.328 10.768 147.328 10.768 147.316 10.768L146.316 10.5323C146.316 10.5323 146.316 10.5323 146.304 10.5323L146.168 11.1154C146.168 11.1154 146.168 11.1154 146.181 11.1154L147.192 11.3511Z" fill="url(#paint9_linear)"/>
<path d="M142.207 10.768L142.343 11.3511C142.343 11.3511 142.343 11.3511 142.355 11.3511L143.355 11.1154C143.355 11.1154 143.355 11.1154 143.367 11.1154L143.231 10.5323C143.231 10.5323 143.231 10.5323 143.219 10.5323L142.207 10.768Z" fill="url(#paint10_linear)"/>
<path d="M142.17 10.5818L143.17 10.3461C143.17 10.3461 143.17 10.3461 143.182 10.3461L142.639 7.93951C142.417 7.96432 142.183 7.97673 141.923 8.00154C141.812 8.00154 141.701 8.01394 141.603 8.03875L142.17 10.5818Z" fill="url(#paint11_linear)"/>
<path d="M141.739 18.2231C141.739 18.2231 139.777 22.3415 140.418 26.981C140.418 26.981 144.836 29.4992 150.031 26.981C150.031 26.981 149.833 21.2995 147.797 18.2231H141.739Z" fill="url(#paint12_linear)"/>
<path d="M89.681 32.5207C89.4056 32.4478 89.1181 32.4114 88.8183 32.4114C88.5186 32.4114 88.2756 32.4883 88.0893 32.6422C87.9111 32.7881 87.822 32.9987 87.822 33.2741C87.822 33.5414 87.8908 33.752 88.0285 33.9059C88.1662 34.0598 88.4376 34.1935 88.8426 34.3069L89.9241 34.6228C90.5073 34.7929 90.969 35.0602 91.3092 35.4248C91.6576 35.7812 91.8317 36.3077 91.8317 37.0044C91.8317 37.8306 91.532 38.4827 90.9326 38.9607C90.3412 39.4386 89.6041 39.6775 88.7211 39.6775C88.2351 39.6775 87.7329 39.6168 87.2144 39.4953C86.7041 39.3657 86.2788 39.1875 85.9386 38.9607C85.9386 38.912 85.9386 38.8189 85.9386 38.6812C85.9386 38.5435 85.967 38.3086 86.0237 37.9764C86.0804 37.6443 86.1614 37.3729 86.2667 37.1623H87.421C87.5506 37.4135 87.6276 37.7496 87.6519 38.1709C87.9354 38.2924 88.2635 38.3531 88.6361 38.3531C89.0168 38.3531 89.3287 38.264 89.5717 38.0858C89.8147 37.9076 89.9362 37.6524 89.9362 37.3203C89.9362 37.1664 89.9241 37.0408 89.8998 36.9436C89.8755 36.8383 89.7985 36.729 89.6689 36.6155C89.5474 36.494 89.3692 36.3968 89.1343 36.3239L87.8827 35.9594C86.6109 35.5949 85.9751 34.7848 85.9751 33.5292C85.9751 32.7921 86.2424 32.2048 86.777 31.7674C87.3116 31.3219 88.0083 31.0991 88.8669 31.0991C89.7337 31.0991 90.5802 31.2935 91.4065 31.6823C91.4065 31.7309 91.4065 31.8241 91.4065 31.9618C91.4065 32.0995 91.3781 32.3344 91.3214 32.6665C91.2647 32.9987 91.1837 33.27 91.0784 33.4806H89.9241C89.7863 33.2862 89.7053 32.9663 89.681 32.5207Z" fill="white"/>
<path d="M95.2593 34.6471C94.5141 34.6471 94.1414 35.2871 94.1414 36.5669C94.1414 37.215 94.2427 37.6686 94.4452 37.9278C94.6558 38.179 94.9555 38.3045 95.3444 38.3045C95.96 38.3045 96.5027 38.2478 96.9726 38.1344L97.3371 39.07C97.0779 39.2401 96.7295 39.3859 96.2921 39.5074C95.8547 39.6208 95.4294 39.6775 95.0163 39.6775C93.2666 39.6775 92.3917 38.665 92.3917 36.6399C92.3917 35.4572 92.6955 34.6066 93.303 34.0882C93.8458 33.6346 94.506 33.4077 95.2836 33.4077C96.0613 33.4077 96.7093 33.5536 97.2277 33.8452C97.2358 33.9262 97.2399 34.0031 97.2399 34.076C97.2399 34.5378 97.1346 34.9752 96.924 35.3883H95.8547C95.7413 35.1858 95.6724 34.9428 95.6481 34.6593C95.5509 34.6512 95.4213 34.6471 95.2593 34.6471Z" fill="white"/>
<path d="M98.1171 34.4041C98.1171 34.2826 98.1212 34.153 98.1293 34.0153C98.8826 33.6103 99.6927 33.4077 100.559 33.4077C101.426 33.4077 102.046 33.5738 102.418 33.9059C102.799 34.2299 102.99 34.7727 102.99 35.5341V38.1222C103.273 38.179 103.496 38.2478 103.658 38.3288V39.3859C103.245 39.5803 102.653 39.6775 101.884 39.6775C101.803 39.4669 101.734 39.2118 101.677 38.912C101.329 39.4224 100.697 39.6775 99.7818 39.6775C99.239 39.6775 98.7733 39.5196 98.3844 39.2037C98.0037 38.8877 97.8133 38.4584 97.8133 37.9157C97.8133 37.3729 97.9916 36.9477 98.348 36.6399C98.7125 36.3239 99.2512 36.166 99.964 36.166H101.288V35.5827C101.288 34.9509 100.952 34.635 100.28 34.635C100.029 34.635 99.8223 34.6593 99.6603 34.7079C99.6441 35.0481 99.5955 35.3114 99.5145 35.4977H98.3237C98.186 35.2142 98.1171 34.8496 98.1171 34.4041ZM100.304 38.4382C100.717 38.4382 101.045 38.3167 101.288 38.0736V37.0773H100.438C99.8547 37.0773 99.5631 37.3 99.5631 37.7456C99.5631 37.9481 99.6238 38.1141 99.7453 38.2438C99.8749 38.3734 100.061 38.4382 100.304 38.4382Z" fill="white"/>
<path d="M104.213 33.5049C104.659 33.4077 105.06 33.3591 105.416 33.3591C105.773 33.3591 106.068 33.3672 106.303 33.3834V33.991C106.506 33.8209 106.773 33.6832 107.105 33.5779C107.445 33.4644 107.77 33.4077 108.077 33.4077C108.871 33.4077 109.426 33.5941 109.742 33.9667C110.066 34.3393 110.228 34.9833 110.228 35.8987V38.2316C110.544 38.3531 110.767 38.4908 110.896 38.6447L110.775 39.5803H107.98L107.859 38.6447C107.972 38.4908 108.195 38.3531 108.527 38.2316V35.8257C108.527 35.3883 108.454 35.0967 108.308 34.9509C108.17 34.797 107.919 34.72 107.555 34.72C107.19 34.72 106.826 34.8496 106.461 35.1089V38.2316C106.777 38.3531 107 38.4908 107.13 38.6447L107.008 39.5803H104.213L104.092 38.6447C104.205 38.4908 104.428 38.3531 104.76 38.2316V34.8537C104.477 34.7565 104.254 34.6188 104.092 34.4406L104.213 33.5049Z" fill="white"/>
<path d="M111.44 33.5049C111.885 33.4077 112.286 33.3591 112.643 33.3591C112.999 33.3591 113.295 33.3672 113.53 33.3834V33.991C113.732 33.8209 114 33.6832 114.332 33.5779C114.672 33.4644 114.996 33.4077 115.304 33.4077C116.098 33.4077 116.652 33.5941 116.968 33.9667C117.292 34.3393 117.454 34.9833 117.454 35.8987V38.2316C117.77 38.3531 117.993 38.4908 118.123 38.6447L118.001 39.5803H115.207L115.085 38.6447C115.198 38.4908 115.421 38.3531 115.753 38.2316V35.8257C115.753 35.3883 115.68 35.0967 115.535 34.9509C115.397 34.797 115.146 34.72 114.781 34.72C114.417 34.72 114.052 34.8496 113.688 35.1089V38.2316C114.004 38.3531 114.226 38.4908 114.356 38.6447L114.234 39.5803H111.44L111.318 38.6447C111.432 38.4908 111.654 38.3531 111.987 38.2316V34.8537C111.703 34.7565 111.48 34.6188 111.318 34.4406L111.44 33.5049Z" fill="white"/>
<path d="M121.461 39.6775C120.489 39.6775 119.756 39.4183 119.262 38.8999C118.776 38.3815 118.533 37.6281 118.533 36.6399C118.533 36.0404 118.618 35.526 118.788 35.0967C118.958 34.6593 119.189 34.3231 119.48 34.0882C120.047 33.6346 120.708 33.4077 121.461 33.4077C122.214 33.4077 122.789 33.6022 123.186 33.991C123.591 34.3717 123.794 35.0602 123.794 36.0566C123.794 36.6399 123.506 36.9315 122.931 36.9315H120.294C120.327 37.4418 120.456 37.8023 120.683 38.0129C120.918 38.2235 121.287 38.3288 121.789 38.3288C122.064 38.3288 122.328 38.2964 122.579 38.2316C122.83 38.1668 123.012 38.102 123.126 38.0372L123.296 37.94L123.66 38.912C123.612 38.9688 123.539 39.0417 123.441 39.1308C123.352 39.2118 123.117 39.3252 122.737 39.471C122.364 39.6087 121.939 39.6775 121.461 39.6775ZM122.226 35.85C122.243 35.7366 122.251 35.5989 122.251 35.4369C122.251 35.2749 122.186 35.1048 122.056 34.9266C121.927 34.7403 121.7 34.6471 121.376 34.6471C121.06 34.6471 120.817 34.7443 120.647 34.9387C120.477 35.1332 120.363 35.4612 120.307 35.923L122.226 35.85Z" fill="white"/>
<path d="M128.064 34.9995C127.448 34.9995 127.023 35.117 126.788 35.3519V38.1344C127.444 38.2559 127.893 38.426 128.136 38.6447L128.015 39.5803H124.54L124.418 38.6447C124.532 38.4908 124.755 38.3531 125.087 38.2316V34.8537C124.803 34.7565 124.58 34.6188 124.418 34.4406L124.54 33.5049C124.985 33.4077 125.386 33.3591 125.743 33.3591C126.099 33.3591 126.395 33.3672 126.63 33.3834V34.1489C126.816 33.9302 127.055 33.752 127.347 33.6143C127.638 33.4685 127.902 33.3956 128.136 33.3956C128.38 33.3956 128.546 33.4158 128.635 33.4563L128.598 35.0359C128.436 35.0116 128.258 34.9995 128.064 34.9995Z" fill="white"/>
<path fill-rule="evenodd" clip-rule="evenodd" d="M24.245 9.18657H19.3873V8.49133H29.8266V9.18657H24.969V24.896H24.245V9.18657Z" fill="white"/>
<path fill-rule="evenodd" clip-rule="evenodd" d="M38.7638 18.6203C38.7638 15.2881 37.2588 13.6788 34.9975 13.6788C32.8365 13.6788 30.8762 15.5537 30.6292 18.6203H38.7638ZM29.8265 19.3263C29.8265 15.3943 32.3426 12.9653 35.0052 12.9653C37.7682 12.9653 39.5202 14.9389 39.5202 18.5141C39.5202 18.7646 39.5202 19.0226 39.4739 19.3263H30.6292C30.6292 22.5599 32.4815 24.9357 35.3525 24.9357C36.7109 24.9357 37.7605 24.4803 38.6635 23.8275L39.0185 24.4803C38.1155 25.0344 37.1045 25.6416 35.2985 25.6416C32.2885 25.634 29.8265 23.2658 29.8265 19.3263Z" fill="white"/>
<path fill-rule="evenodd" clip-rule="evenodd" d="M48.4822 22.8635V18.4761C43.4847 19.0834 41.7726 20.2903 41.7726 22.3625C41.7726 24.2374 42.9579 24.9357 44.3408 24.9357C45.7237 24.9357 46.9603 24.2222 48.4822 22.8635ZM41.0116 22.3853C41.0116 19.683 43.3457 18.423 48.4895 17.8157C48.5334 15.8422 48.0578 13.6713 45.6871 13.6713C44.0701 13.6713 42.6872 14.529 41.9774 15.1362L41.597 14.529C42.3067 13.9749 43.8798 12.9653 45.7384 12.9653C48.4017 12.9653 49.2139 15.0831 49.2139 17.5121V25.338H48.5993L48.5042 23.7212H48.4603C47.2749 24.7308 45.8408 25.6416 44.3189 25.6416C42.5335 25.634 41.0116 24.6776 41.0116 22.3853Z" fill="white"/>
<path fill-rule="evenodd" clip-rule="evenodd" d="M52.9421 13.2684H53.5927L53.6933 15.2348H53.7398C54.8472 13.9446 56.2644 12.9653 57.5655 12.9653C59.5325 12.9653 60.4851 13.999 60.8878 15.5534C62.305 13.9524 63.6602 12.9653 65.0232 12.9653C67.3852 12.9653 68.6011 14.4653 68.6011 17.6675V25.6261H67.8499V17.7763C67.8499 15.0405 66.9438 13.6881 64.9768 13.6881C63.7687 13.6881 62.5605 14.5198 61.1511 16.1752V25.6339H60.3999V17.784C60.4076 15.0405 59.4938 13.6959 57.5345 13.6959C56.3729 13.6959 55.1183 14.5275 53.7088 16.183V25.6416H52.9576V13.2684H52.9421Z" fill="white"/>
<path fill-rule="evenodd" clip-rule="evenodd" d="M79.9795 10.9419C79.4916 10.7283 78.7636 10.6063 77.7805 10.6063C76.8048 10.6063 76.0167 11.0487 75.4088 11.9183C74.8084 12.8032 74.5007 14.3365 74.5007 16.5335C74.5007 18.7304 74.7934 20.2942 75.3713 21.2172C75.9492 22.1402 76.8123 22.6056 77.9456 22.6056C79.6868 22.6056 81.2479 22.3309 82.6363 21.7893L83.5144 24.0473C81.7882 25.1153 79.7618 25.6416 77.4352 25.6416C75.1086 25.6416 73.4274 24.9627 72.3917 23.5896C71.356 22.2165 70.8381 19.9814 70.8381 16.8691C70.8381 13.7568 71.4761 11.4606 72.7595 9.97313C74.0354 8.48561 75.8291 7.74567 78.1407 7.74567C80.002 7.74567 81.7657 8.27965 83.4394 9.33998V9.91973C83.4394 10.2096 83.3793 10.6978 83.2743 11.392C83.1617 12.0862 82.9966 12.6507 82.7864 13.0931H80.4673C80.2347 12.643 80.0771 11.926 79.9795 10.9419Z" fill="white"/>
<path fill-rule="evenodd" clip-rule="evenodd" d="M85.2405 7.3412C86.1357 7.12407 86.9575 7 87.7206 7C88.4837 7 89.1294 7.02326 89.6577 7.07754V22.7802C90.274 23.0361 90.7142 23.3308 90.9711 23.6565L90.7363 25.6416H85.2405L85.0057 23.6565C85.2259 23.323 85.6661 23.0361 86.3191 22.7802V10.2026C85.7615 10.001 85.3212 9.70629 85.0057 9.32633L85.2405 7.3412Z" fill="white"/>
<path fill-rule="evenodd" clip-rule="evenodd" d="M98.8164 17.4571C98.8481 17.2148 98.864 16.9177 98.864 16.5738C98.864 16.222 98.7291 15.8624 98.4515 15.4716C98.1818 15.0807 97.6979 14.8853 97.0157 14.8853C96.3414 14.8853 95.8179 15.0885 95.453 15.5107C95.0881 15.925 94.8501 16.6285 94.7311 17.6135L98.8164 17.4571ZM97.1902 25.6416C95.1198 25.6416 93.573 25.0866 92.5338 23.9766C91.4946 22.8666 90.9711 21.2562 90.9711 19.1378C90.9711 17.8558 91.1456 16.7536 91.5105 15.8233C91.8754 14.8931 92.3672 14.1818 92.9859 13.6815C94.1917 12.7121 95.5958 12.2197 97.1982 12.2197C98.8005 12.2197 100.022 12.634 100.879 13.4548C101.736 14.2834 102.156 15.753 102.156 17.8871C102.156 19.13 101.545 19.7554 100.324 19.7554H94.7232C94.7946 20.8497 95.0722 21.6158 95.564 22.0692C96.0559 22.5226 96.8333 22.7415 97.8962 22.7415C98.4832 22.7415 99.0385 22.6711 99.57 22.5382C100.101 22.4053 100.49 22.2568 100.728 22.1239L101.093 21.9207L101.863 24C101.759 24.1173 101.609 24.2658 101.41 24.4534C101.212 24.6332 100.712 24.8834 99.9111 25.1804C99.1178 25.4931 98.2056 25.6416 97.1902 25.6416Z" fill="white"/>
<path fill-rule="evenodd" clip-rule="evenodd" d="M107.247 22.9901C108.095 22.9901 108.766 22.732 109.262 22.2157V20.0804H107.522C106.331 20.0804 105.736 20.5576 105.736 21.5118C105.736 21.9498 105.858 22.294 106.125 22.5755C106.37 22.8493 106.751 22.9901 107.247 22.9901ZM102.774 14.355C102.774 14.0969 102.782 13.8153 102.797 13.5181C104.339 12.6499 105.995 12.2197 107.759 12.2197C109.53 12.2197 110.804 12.5716 111.568 13.2756C112.331 13.9717 112.72 15.1371 112.72 16.7719V22.3096C113.3 22.4269 113.758 22.5755 114.087 22.7554V25.0159C113.239 25.4304 112.033 25.6416 110.461 25.6416C110.301 25.188 110.148 24.6405 110.041 24.0069C109.331 25.1019 108.034 25.6416 106.171 25.6416C105.064 25.6416 104.11 25.2975 103.332 24.6248C102.545 23.9522 102.156 23.0292 102.156 21.8716C102.156 20.714 102.522 19.791 103.263 19.1262C103.996 18.4614 105.095 18.125 106.553 18.125H109.262V16.8814C109.262 15.536 108.575 14.8477 107.202 14.8477C106.69 14.8477 106.263 14.9025 105.934 15.0042C105.904 15.7316 105.805 16.2948 105.637 16.6937H103.202C102.919 16.0836 102.774 15.3092 102.774 14.355Z" fill="white"/>
<path fill-rule="evenodd" clip-rule="evenodd" d="M115.066 12.5351C116 12.3301 116.825 12.2197 117.58 12.2197C118.32 12.2197 118.935 12.2354 119.425 12.2749V13.5839C119.846 13.2133 120.414 12.9136 121.107 12.6771C121.807 12.4405 122.484 12.3222 123.123 12.3222C124.781 12.3222 125.941 12.7244 126.602 13.5287C127.264 14.3331 127.607 15.721 127.607 17.7004V22.7238C128.261 22.984 128.728 23.2837 129 23.6149L128.751 25.6337H122.928L122.679 23.6149C122.913 23.2837 123.38 22.984 124.073 22.7238V17.5348C124.073 16.5885 123.925 15.9576 123.629 15.6343C123.333 15.311 122.804 15.1454 122.049 15.1454C121.293 15.1454 120.531 15.4293 119.768 15.9892V22.7317C120.422 22.9919 120.889 23.2916 121.161 23.6228L120.912 25.6416H115.082L114.832 23.6228C115.066 23.2916 115.533 22.9919 116.226 22.7317V15.445C115.634 15.24 115.167 14.9403 114.832 14.5539L115.066 12.5351Z" fill="white"/>
<path fill-rule="evenodd" clip-rule="evenodd" d="M5.05756 11.6619V13.6107L4.2526 13.71C4.08553 13.5648 3.94884 13.2821 3.85012 12.877H2.16427V14.9099H3.67546C3.759 14.6883 3.85012 14.5278 3.94884 14.4361L4.6323 14.5125V16.5072L3.94884 16.5989C3.85772 16.5224 3.76659 16.3696 3.67546 16.125H2.16427V17.9745C2.65028 18.0815 3.0072 18.2343 3.21983 18.433L3.11351 19.3654H0.106315L0 18.4407C0.0911272 18.3184 0.296163 18.1961 0.59992 18.0662V12.9534C0.296163 12.8464 0.106315 12.7165 0 12.5713L0.106315 11.6389L5.05756 11.6619Z" fill="#394A70"/>
<path fill-rule="evenodd" clip-rule="evenodd" d="M8.44329 15.2779C7.90099 15.2779 7.51685 15.3892 7.31349 15.6199V18.2844C7.89345 18.3957 8.29265 18.5707 8.51107 18.7775L8.40563 19.6763H5.32505L5.2196 18.7775C5.31752 18.6343 5.52088 18.4912 5.81463 18.3798V15.1426C5.56608 15.0472 5.36271 14.9199 5.2196 14.745L5.32505 13.8462C5.72425 13.7507 6.07072 13.711 6.39459 13.711C6.71093 13.711 6.97455 13.7189 7.17792 13.7348V14.4666C7.34362 14.2598 7.55451 14.0848 7.8106 13.9496C8.06669 13.8144 8.30771 13.7507 8.51107 13.7507C8.72197 13.7507 8.87261 13.7666 8.94793 13.8064L8.9178 15.3176C8.77469 15.2858 8.60899 15.2779 8.44329 15.2779Z" fill="#394A70"/>
<path fill-rule="evenodd" clip-rule="evenodd" d="M11.9089 18.5054C12.2807 18.5054 12.569 18.3946 12.789 18.1573V17.2079H12.0303C11.5068 17.2079 11.2489 17.4136 11.2489 17.8408C11.2489 18.0307 11.302 18.1968 11.4158 18.3155C11.5372 18.4421 11.6965 18.5054 11.9089 18.5054ZM9.95914 14.6604C9.95914 14.5496 9.95914 14.423 9.96673 14.2885C10.6344 13.9008 11.3627 13.711 12.1365 13.711C12.9104 13.711 13.4718 13.8613 13.8056 14.1778C14.147 14.4942 14.3139 15.0164 14.3139 15.7363V18.1968C14.5643 18.2522 14.7691 18.3155 14.9133 18.3867V19.3915C14.5415 19.5734 14.0104 19.6763 13.3276 19.6763C13.2594 19.4785 13.1987 19.2332 13.1456 18.9484C12.8345 19.4389 12.2655 19.6763 11.4537 19.6763C10.9682 19.6763 10.5509 19.526 10.2095 19.2253C9.86051 18.9247 9.6936 18.5212 9.6936 17.999C9.6936 17.4848 9.85293 17.0734 10.1792 16.7807C10.5054 16.4879 10.9833 16.3297 11.6206 16.3297H12.8042V15.7759C12.8042 15.1746 12.5007 14.874 11.9013 14.874C11.6813 14.874 11.4917 14.8977 11.3475 14.9452C11.3323 15.2695 11.2868 15.5227 11.2185 15.6968H10.1564C10.0198 15.4436 9.95914 15.0876 9.95914 14.6604Z" fill="#394A70"/>
<path fill-rule="evenodd" clip-rule="evenodd" d="M16.4683 17.7651C16.5979 17.9925 16.8298 18.1101 17.1503 18.1101C17.4777 18.1101 17.7641 18.0082 18.0233 17.7886V15.0676C17.7573 14.9421 17.4777 14.8794 17.1708 14.8794C16.5706 14.8794 16.2637 15.444 16.2637 16.5653C16.2637 17.1377 16.3251 17.5455 16.4683 17.7651ZM17.1503 20.7449C17.73 20.7449 18.0233 20.3371 18.0233 19.5216V19.0197C17.7028 19.2471 17.3004 19.3648 16.8161 19.3648C16.2091 19.3648 15.7386 19.1609 15.4044 18.7374C15.077 18.314 14.9133 17.6161 14.9133 16.6359C14.9133 14.6833 15.6772 13.711 17.1981 13.711C17.5868 13.711 17.9551 13.8129 18.2893 14.0089C18.3507 13.8756 18.4461 13.8051 18.5825 13.8051H19.3873V19.4432C19.3873 20.2901 19.21 20.9096 18.8553 21.3095C18.5007 21.7094 17.9551 21.9133 17.2117 21.9133C16.823 21.9133 16.4138 21.8584 15.9977 21.7564C15.5817 21.6545 15.2612 21.5212 15.0497 21.3565C15.0429 21.286 15.0429 21.2232 15.0429 21.1526C15.0429 20.7292 15.1248 20.3214 15.3021 19.9372H16.1614C16.2296 20.094 16.2842 20.3136 16.3183 20.5802C16.5638 20.69 16.8366 20.7449 17.1503 20.7449Z" fill="#394A70"/>
<defs>
<linearGradient id="paint0_linear" x1="166.369" y1="15.2146" x2="166.369" y2="33.0222" gradientUnits="userSpaceOnUse">
<stop stop-color="#384D7A"/>
<stop offset="1" stop-color="#28395E"/>
</linearGradient>
<linearGradient id="paint1_linear" x1="174.614" y1="15.2146" x2="174.614" y2="33.0221" gradientUnits="userSpaceOnUse">
<stop stop-color="#384D7A"/>
<stop offset="1" stop-color="#28395E"/>
</linearGradient>
<linearGradient id="paint2_linear" x1="166.045" y1="15.2146" x2="166.045" y2="33.0221" gradientUnits="userSpaceOnUse">
<stop stop-color="#384D7A"/>
<stop offset="1" stop-color="#28395E"/>
</linearGradient>
<linearGradient id="paint3_linear" x1="165.541" y1="15.2146" x2="165.541" y2="33.0222" gradientUnits="userSpaceOnUse">
<stop stop-color="#384D7A"/>
<stop offset="1" stop-color="#28395E"/>
</linearGradient>
<linearGradient id="paint4_linear" x1="161.543" y1="15.2143" x2="161.543" y2="33.0218" gradientUnits="userSpaceOnUse">
<stop stop-color="#384D7A"/>
<stop offset="1" stop-color="#28395E"/>
</linearGradient>
<linearGradient id="paint5_linear" x1="162.137" y1="15.2147" x2="162.137" y2="33.0222" gradientUnits="userSpaceOnUse">
<stop stop-color="#384D7A"/>
<stop offset="1" stop-color="#28395E"/>
</linearGradient>
<linearGradient id="paint6_linear" x1="144.467" y1="8.92408" x2="144.93" y2="26.3379" gradientUnits="userSpaceOnUse">
<stop stop-color="#384D7A"/>
<stop offset="1" stop-color="#28395E"/>
</linearGradient>
<linearGradient id="paint7_linear" x1="144.837" y1="8.91486" x2="145.3" y2="26.328" gradientUnits="userSpaceOnUse">
<stop stop-color="#384D7A"/>
<stop offset="1" stop-color="#28395E"/>
</linearGradient>
<linearGradient id="paint8_linear" x1="147.152" y1="8.85311" x2="147.614" y2="26.2663" gradientUnits="userSpaceOnUse">
<stop stop-color="#384D7A"/>
<stop offset="1" stop-color="#28395E"/>
</linearGradient>
<linearGradient id="paint9_linear" x1="146.707" y1="8.86509" x2="147.17" y2="26.2782" gradientUnits="userSpaceOnUse">
<stop stop-color="#384D7A"/>
<stop offset="1" stop-color="#28395E"/>
</linearGradient>
<linearGradient id="paint10_linear" x1="142.726" y1="8.97081" x2="143.189" y2="26.3839" gradientUnits="userSpaceOnUse">
<stop stop-color="#384D7A"/>
<stop offset="1" stop-color="#28395E"/>
</linearGradient>
<linearGradient id="paint11_linear" x1="142.374" y1="8.97997" x2="142.836" y2="26.3932" gradientUnits="userSpaceOnUse">
<stop stop-color="#384D7A"/>
<stop offset="1" stop-color="#28395E"/>
</linearGradient>
<linearGradient id="paint12_linear" x1="144.711" y1="8.9177" x2="145.173" y2="26.3308" gradientUnits="userSpaceOnUse">
<stop stop-color="#384D7A"/>
<stop offset="1" stop-color="#28395E"/>
</linearGradient>
</defs>
</svg>
