<svg width="14" height="22" viewBox="0 0 14 22" fill="none" xmlns="http://www.w3.org/2000/svg">
<path fill-rule="evenodd" clip-rule="evenodd" d="M10.8475 0H2.50326C1.12125 0 0 1.18827 0 2.65288V18.5701C0 20.0348 1.12125 21.223 2.50326 21.223H10.8475C12.2295 21.223 13.3507 20.0348 13.3507 18.5701V2.65288C13.3507 1.18827 12.2295 0 10.8475 0ZM2.50326 1.76859H10.8475C11.3064 1.76859 11.6819 2.16652 11.6819 2.65288V17.6859H1.66884V2.65288C1.66884 2.16652 2.04433 1.76859 2.50326 1.76859ZM3.12911 8.84302C2.78491 8.84302 2.5033 8.54456 2.5033 8.17979V6.85332C2.5033 6.00218 3.1604 5.30579 3.96353 5.30579H5.21516C5.55936 5.30579 5.84098 5.60424 5.84098 5.96902C5.84098 6.33379 5.55936 6.63225 5.21516 6.63225H3.96353C3.8488 6.63225 3.75493 6.73173 3.75493 6.85332V8.17979C3.75493 8.54456 3.47331 8.84302 3.12911 8.84302ZM9.59594 8.17979C9.59594 8.54456 9.87756 8.84302 10.2218 8.84302C10.566 8.84302 10.8476 8.54456 10.8476 8.17979V6.85332C10.8476 6.00218 10.1905 5.30579 9.38734 5.30579H8.13571C7.79151 5.30579 7.5099 5.60424 7.5099 5.96902C7.5099 6.33379 7.79151 6.63225 8.13571 6.63225H9.38734C9.50207 6.63225 9.59594 6.73173 9.59594 6.85332V8.17979ZM5.21516 14.1487H3.96353C3.1604 14.1487 2.5033 13.4523 2.5033 12.6012V11.2748C2.5033 10.91 2.78491 10.6116 3.12911 10.6116C3.47331 10.6116 3.75493 10.91 3.75493 11.2748V12.6012C3.75493 12.7228 3.8488 12.8223 3.96353 12.8223H5.21516C5.55936 12.8223 5.84098 13.1207 5.84098 13.4855C5.84098 13.8502 5.55936 14.1487 5.21516 14.1487ZM8.13571 14.1487H9.38734C10.1905 14.1487 10.8476 13.4523 10.8476 12.6012V11.2748C10.8476 10.91 10.566 10.6116 10.2218 10.6116C9.87756 10.6116 9.59594 10.91 9.59594 11.2748V12.6012C9.59594 12.7228 9.50207 12.8223 9.38734 12.8223H8.13571C7.79151 12.8223 7.5099 13.1207 7.5099 13.4855C7.5099 13.8502 7.79151 14.1487 8.13571 14.1487Z" fill="white"/>
</svg>
