<svg width="40" height="40" viewBox="0 0 40 40" fill="none" xmlns="http://www.w3.org/2000/svg">
<path d="M28.9608 0H11.0392C4.95276 0 0 4.95058 0 11.0379V28.9621C0 35.0494 4.95276 40 11.0392 40H28.9608C35.0472 40 40 35.0494 40 28.9621V11.0379C40 4.95058 35.0472 0 28.9608 0ZM36.4462 28.9621C36.4462 33.089 33.0854 36.4498 28.9608 36.4498H11.0392C6.90653 36.4498 3.55377 33.089 3.55377 28.9621V11.0379C3.55377 6.9028 6.90653 3.54201 11.0392 3.54201H28.9608C33.0935 3.54201 36.4462 6.9028 36.4462 11.0297V28.9621Z" fill="white"/>
<path d="M19.996 9.69525C14.3116 9.69525 9.68848 14.3163 9.68848 20C9.68848 25.6837 14.3116 30.3048 19.996 30.3048C25.6804 30.3048 30.3036 25.6837 30.3036 20C30.3036 14.3163 25.6804 9.69525 19.996 9.69525ZM19.996 26.7546C16.2734 26.7546 13.2422 23.7233 13.2422 20C13.2422 16.2768 16.2734 13.2373 19.996 13.2373C23.7186 13.2373 26.7498 16.2686 26.7498 20C26.7578 23.7233 23.7267 26.7546 19.996 26.7546ZM30.7377 6.68042C30.0543 6.68042 29.3789 6.96049 28.8965 7.44648C28.4141 7.93248 28.1327 8.59969 28.1327 9.28339C28.1327 9.96708 28.4141 10.6425 28.8965 11.1203C29.3789 11.6063 30.0543 11.8864 30.7377 11.8864C31.4211 11.8864 32.0965 11.6063 32.5789 11.1203C33.0613 10.6343 33.3427 9.96708 33.3427 9.28339C33.3427 8.59969 33.0694 7.92424 32.5789 7.44648C32.0965 6.96049 31.4211 6.68042 30.7377 6.68042Z" fill="white"/>
</svg>
