<svg width="72" height="72" viewBox="0 0 72 72" fill="none" xmlns="http://www.w3.org/2000/svg">
<rect width="72" height="72" rx="4" fill="#4390ED"/>
<mask id="path-2-inside-1" fill="white">
<path fill-rule="evenodd" clip-rule="evenodd" d="M22.4 25.1C22.4 25.7 22.8 26.2 23.4 26.2H52.5L53.4719 34.6H28.1C22.7 34.6 19.4 36.7 17.4 39.6C15.5 42.5 15 46.4 15 50.2V51.3H16H56.1401C56.2539 51.32 56.3748 51.3209 56.5 51.3H57.5L57.4153 50.2838C57.4154 50.2238 57.4104 50.1624 57.4 50.1L54.4 25C54.4 24.4 53.9 24 53.4 24H23.4C22.9 24 22.4 24.5 22.4 25.1ZM53.9753 38.9505L55.1727 49.3H17.1C17.2 46.2 17.7 43.2 19.2 40.9C20.7 38.4 23.5 36.8 28.1 36.8H53.7L53.9753 38.9505ZM36.2 46.4C37.8 46.4 39 45.1 39 43.5C39 41.9 37.7 40.6 36.2 40.6C34.6 40.6 33.4 41.9 33.4 43.5C33.4 45.1 34.7 46.4 36.2 46.4Z"/>
</mask>
<path fill-rule="evenodd" clip-rule="evenodd" d="M22.4 25.1C22.4 25.7 22.8 26.2 23.4 26.2H52.5L53.4719 34.6H28.1C22.7 34.6 19.4 36.7 17.4 39.6C15.5 42.5 15 46.4 15 50.2V51.3H16H56.1401C56.2539 51.32 56.3748 51.3209 56.5 51.3H57.5L57.4153 50.2838C57.4154 50.2238 57.4104 50.1624 57.4 50.1L54.4 25C54.4 24.4 53.9 24 53.4 24H23.4C22.9 24 22.4 24.5 22.4 25.1ZM53.9753 38.9505L55.1727 49.3H17.1C17.2 46.2 17.7 43.2 19.2 40.9C20.7 38.4 23.5 36.8 28.1 36.8H53.7L53.9753 38.9505ZM36.2 46.4C37.8 46.4 39 45.1 39 43.5C39 41.9 37.7 40.6 36.2 40.6C34.6 40.6 33.4 41.9 33.4 43.5C33.4 45.1 34.7 46.4 36.2 46.4Z" fill="white"/>
<path d="M52.5 26.2L53.4934 26.0851L53.391 25.2H52.5V26.2ZM53.4719 34.6V35.6H54.5943L54.4653 34.4851L53.4719 34.6ZM17.4 39.6L16.5768 39.0323L16.57 39.042L16.5635 39.052L17.4 39.6ZM15 51.3H14V52.3H15V51.3ZM56.1401 51.3L56.3129 50.315L56.2272 50.3H56.1401V51.3ZM56.5 51.3V50.3H56.4172L56.3356 50.3136L56.5 51.3ZM57.5 51.3V52.3H58.5868L58.4965 51.217L57.5 51.3ZM57.4153 50.2838L56.4153 50.2823L56.4153 50.3246L56.4188 50.3668L57.4153 50.2838ZM57.4 50.1L56.4071 50.2187L56.4098 50.2416L56.4136 50.2644L57.4 50.1ZM54.4 25H53.4V25.0595L53.4071 25.1187L54.4 25ZM55.1727 49.3V50.3H56.2951L56.1661 49.1851L55.1727 49.3ZM53.9753 38.9505L54.9687 38.8355L54.9672 38.8235L53.9753 38.9505ZM17.1 49.3L16.1005 49.2678L16.0672 50.3H17.1V49.3ZM19.2 40.9L20.0376 41.4463L20.0478 41.4306L20.0575 41.4145L19.2 40.9ZM53.7 36.8L54.6919 36.673L54.5802 35.8H53.7V36.8ZM23.4 25.2C23.3914 25.2 23.3972 25.1988 23.4097 25.2045C23.4149 25.207 23.4194 25.2097 23.4228 25.2123C23.4244 25.2135 23.4256 25.2146 23.4264 25.2153C23.4272 25.2161 23.4276 25.2165 23.4276 25.2165C23.4271 25.216 23.4 25.1816 23.4 25.1H21.4C21.4 26.1227 22.1265 27.2 23.4 27.2V25.2ZM52.5 25.2H23.4V27.2H52.5V25.2ZM54.4653 34.4851L53.4934 26.0851L51.5066 26.3149L52.4785 34.7149L54.4653 34.4851ZM53.4719 33.6H28.1V35.6H53.4719V33.6ZM28.1 33.6C22.3929 33.6 18.7754 35.8443 16.5768 39.0323L18.2232 40.1677C20.0246 37.5557 23.0071 35.6 28.1 35.6V33.6ZM16.5635 39.052C14.4973 42.2057 14 46.354 14 50.2H16C16 46.4461 16.5027 42.7943 18.2365 40.148L16.5635 39.052ZM14 50.2V51.3H16V50.2H14ZM15 52.3H16V50.3H15V52.3ZM16 52.3H56.1401V50.3H16V52.3ZM56.3356 50.3136C56.3269 50.3151 56.321 50.3153 56.3177 50.3153C56.316 50.3153 56.3148 50.3152 56.314 50.3152C56.3133 50.3151 56.3129 50.315 56.3129 50.315L55.9673 52.285C56.1957 52.325 56.4307 52.3253 56.6644 52.2864L56.3356 50.3136ZM56.5 52.3H57.5V50.3H56.5V52.3ZM58.4965 51.217L58.4119 50.2007L56.4188 50.3668L56.5035 51.383L58.4965 51.217ZM56.4136 50.2644C56.4151 50.2731 56.4153 50.279 56.4153 50.2823L58.4153 50.2852C58.4155 50.1686 58.4058 50.0518 58.3864 49.9356L56.4136 50.2644ZM53.4071 25.1187L56.4071 50.2187L58.3929 49.9813L55.3929 24.8813L53.4071 25.1187ZM53.4 25H55.4C55.4 23.7839 54.3862 23 53.4 23V25ZM23.4 25H53.4V23H23.4V25ZM23.4 25.1C23.4 25.0898 23.402 25.0764 23.409 25.0596C23.4164 25.0419 23.428 25.024 23.442 25.0089C23.4565 24.9935 23.4667 24.9885 23.4655 24.989C23.4641 24.9897 23.442 25 23.4 25V23C22.2879 23 21.4 24.0095 21.4 25.1H23.4ZM56.1661 49.1851L54.9686 38.8355L52.9819 39.0654L54.1794 49.4149L56.1661 49.1851ZM55.1727 48.3H17.1V50.3H55.1727V48.3ZM18.0995 49.3322C18.1977 46.2873 18.6898 43.5129 20.0376 41.4463L18.3624 40.3537C16.7102 42.8871 16.2023 46.1127 16.1005 49.2678L18.0995 49.3322ZM20.0575 41.4145C21.3307 39.2925 23.7514 37.8 28.1 37.8V35.8C23.2486 35.8 20.0693 37.5075 18.3425 40.3855L20.0575 41.4145ZM28.1 37.8H53.7V35.8H28.1V37.8ZM52.7081 36.927L52.9834 39.0774L54.9672 38.8235L54.6919 36.673L52.7081 36.927ZM38 43.5C38 44.5943 37.2023 45.4 36.2 45.4V47.4C38.3977 47.4 40 45.6057 40 43.5H38ZM36.2 41.6C37.1251 41.6 38 42.4294 38 43.5H40C40 41.3706 38.2749 39.6 36.2 39.6V41.6ZM34.4 43.5C34.4 42.4057 35.1977 41.6 36.2 41.6V39.6C34.0023 39.6 32.4 41.3943 32.4 43.5H34.4ZM36.2 45.4C35.2749 45.4 34.4 44.5706 34.4 43.5H32.4C32.4 45.6294 34.1251 47.4 36.2 47.4V45.4Z" fill="white" mask="url(#path-2-inside-1)"/>
</svg>
