<svg width="72" height="72" viewBox="0 0 72 72" fill="none" xmlns="http://www.w3.org/2000/svg">
<rect width="72" height="72" rx="4" fill="#4390ED"/>
<mask id="path-2-inside-1" fill="white">
<path fill-rule="evenodd" clip-rule="evenodd" d="M36.5 19H20.0417C19.4664 19 19 19.4664 19 20.0417V20.1V36.3V52.5V52.5583C19 53.1336 19.4664 53.6 20.0417 53.6H36.5H52.9583C53.5336 53.6 54 53.1336 54 52.5583V52.5V36.3V20.1V20.0417C54 19.4664 53.5336 19 52.9583 19H36.5ZM25.5144 22.8432C26.1622 22.3249 25.8137 21.1 24.984 21.1H24.7738C24.0119 21.1 23.6328 22.0234 24.1749 22.5587L24.4173 22.798C24.7148 23.0918 25.188 23.1044 25.5144 22.8432ZM22.9122 25.4085C23.1835 25.0785 23.1684 24.5956 22.8639 24.2959L22.6351 24.0707C22.0972 23.5413 21.1875 23.9223 21.1875 24.677V24.8735C21.1875 25.6963 22.3896 26.044 22.9122 25.4085ZM21.1875 36.3C21.1875 33.9738 21.6988 31.7703 22.6328 29.8085C23.612 27.7517 26.3003 27.6783 27.9238 29.2763L32.1125 33.3993C33.7045 34.9663 33.7045 37.5337 32.1125 39.1007L27.947 43.2009C26.3019 44.8201 23.5746 44.7191 22.5978 42.6277C21.701 40.7073 21.1875 38.5616 21.1875 36.3ZM22.8817 47.1495C22.3712 46.5212 21.1875 46.8591 21.1875 47.6687V47.8608C21.1875 48.6015 22.0803 48.9754 22.6081 48.4559L22.8302 48.2372C23.1279 47.9442 23.1452 47.4737 22.8817 47.1495ZM25.4337 49.7172C25.116 49.4572 24.6534 49.4689 24.3613 49.7573L24.1338 49.9819C23.6068 50.5023 23.9753 51.4 24.7159 51.4H24.9161C25.7177 51.4 26.054 50.225 25.4337 49.7172ZM47.5927 49.6658C46.9495 50.1847 47.2906 51.4 48.117 51.4H48.3215C49.0833 51.4 49.4617 50.4762 48.9188 49.9418L48.6861 49.7127C48.3874 49.4187 47.9189 49.4026 47.5927 49.6658ZM43.5241 44.6317C45.1879 46.2694 45.0972 49.0267 42.9716 49.9924C40.9898 50.8928 38.776 51.4 36.5 51.4C34.2544 51.4 32.0996 50.9062 30.1496 50.0282C28.0019 49.0611 27.8925 46.2705 29.5686 44.6155L33.721 40.5153C35.2772 38.9787 37.7789 38.9767 39.3375 40.5108L43.5241 44.6317ZM50.1428 47.1243C49.8701 47.4592 49.8863 47.9467 50.1936 48.2502L50.4422 48.4957C50.9893 49.0359 51.9167 48.6483 51.9167 47.8794V47.6663C51.9167 46.8255 50.6736 46.4722 50.1428 47.1243ZM50.1081 25.4332C50.6501 26.0948 51.9167 25.7342 51.9167 24.8789V24.6584C51.9167 23.8755 50.9724 23.4809 50.4152 24.031L50.1578 24.2851C49.8443 24.5947 49.8289 25.0924 50.1081 25.4332ZM45.0956 29.2837C46.7303 27.6695 49.4462 27.7542 50.4298 29.8304C51.3566 31.7867 51.87 33.9825 51.8125 36.3C51.8125 38.5853 51.3191 40.7522 50.4161 42.6879C49.4481 44.7629 46.7437 44.8437 45.1145 43.2349L40.9231 39.0963C39.3371 37.5302 39.3371 34.9698 40.9231 33.4037L45.0956 29.2837ZM42.8497 22.525C45.0145 23.4809 45.1308 26.2868 43.4443 27.9468L39.3375 31.9892C37.7789 33.5233 35.2772 33.5213 33.721 31.9847L29.5919 27.9075C27.9231 26.2597 28.028 23.4855 30.1746 22.5409C32.1579 21.668 34.3506 21.2 36.6042 21.2C38.8096 21.2 40.9275 21.6763 42.8497 22.525ZM48.6501 22.8228C48.3483 23.1198 47.8715 23.1316 47.5434 22.864C46.8977 22.3374 47.2464 21.1 48.0796 21.1H48.3036C49.072 21.1 49.4536 22.0318 48.906 22.5708L48.6501 22.8228Z"/>
</mask>
<path fill-rule="evenodd" clip-rule="evenodd" d="M36.5 19H20.0417C19.4664 19 19 19.4664 19 20.0417V20.1V36.3V52.5V52.5583C19 53.1336 19.4664 53.6 20.0417 53.6H36.5H52.9583C53.5336 53.6 54 53.1336 54 52.5583V52.5V36.3V20.1V20.0417C54 19.4664 53.5336 19 52.9583 19H36.5ZM25.5144 22.8432C26.1622 22.3249 25.8137 21.1 24.984 21.1H24.7738C24.0119 21.1 23.6328 22.0234 24.1749 22.5587L24.4173 22.798C24.7148 23.0918 25.188 23.1044 25.5144 22.8432ZM22.9122 25.4085C23.1835 25.0785 23.1684 24.5956 22.8639 24.2959L22.6351 24.0707C22.0972 23.5413 21.1875 23.9223 21.1875 24.677V24.8735C21.1875 25.6963 22.3896 26.044 22.9122 25.4085ZM21.1875 36.3C21.1875 33.9738 21.6988 31.7703 22.6328 29.8085C23.612 27.7517 26.3003 27.6783 27.9238 29.2763L32.1125 33.3993C33.7045 34.9663 33.7045 37.5337 32.1125 39.1007L27.947 43.2009C26.3019 44.8201 23.5746 44.7191 22.5978 42.6277C21.701 40.7073 21.1875 38.5616 21.1875 36.3ZM22.8817 47.1495C22.3712 46.5212 21.1875 46.8591 21.1875 47.6687V47.8608C21.1875 48.6015 22.0803 48.9754 22.6081 48.4559L22.8302 48.2372C23.1279 47.9442 23.1452 47.4737 22.8817 47.1495ZM25.4337 49.7172C25.116 49.4572 24.6534 49.4689 24.3613 49.7573L24.1338 49.9819C23.6068 50.5023 23.9753 51.4 24.7159 51.4H24.9161C25.7177 51.4 26.054 50.225 25.4337 49.7172ZM47.5927 49.6658C46.9495 50.1847 47.2906 51.4 48.117 51.4H48.3215C49.0833 51.4 49.4617 50.4762 48.9188 49.9418L48.6861 49.7127C48.3874 49.4187 47.9189 49.4026 47.5927 49.6658ZM43.5241 44.6317C45.1879 46.2694 45.0972 49.0267 42.9716 49.9924C40.9898 50.8928 38.776 51.4 36.5 51.4C34.2544 51.4 32.0996 50.9062 30.1496 50.0282C28.0019 49.0611 27.8925 46.2705 29.5686 44.6155L33.721 40.5153C35.2772 38.9787 37.7789 38.9767 39.3375 40.5108L43.5241 44.6317ZM50.1428 47.1243C49.8701 47.4592 49.8863 47.9467 50.1936 48.2502L50.4422 48.4957C50.9893 49.0359 51.9167 48.6483 51.9167 47.8794V47.6663C51.9167 46.8255 50.6736 46.4722 50.1428 47.1243ZM50.1081 25.4332C50.6501 26.0948 51.9167 25.7342 51.9167 24.8789V24.6584C51.9167 23.8755 50.9724 23.4809 50.4152 24.031L50.1578 24.2851C49.8443 24.5947 49.8289 25.0924 50.1081 25.4332ZM45.0956 29.2837C46.7303 27.6695 49.4462 27.7542 50.4298 29.8304C51.3566 31.7867 51.87 33.9825 51.8125 36.3C51.8125 38.5853 51.3191 40.7522 50.4161 42.6879C49.4481 44.7629 46.7437 44.8437 45.1145 43.2349L40.9231 39.0963C39.3371 37.5302 39.3371 34.9698 40.9231 33.4037L45.0956 29.2837ZM42.8497 22.525C45.0145 23.4809 45.1308 26.2868 43.4443 27.9468L39.3375 31.9892C37.7789 33.5233 35.2772 33.5213 33.721 31.9847L29.5919 27.9075C27.9231 26.2597 28.028 23.4855 30.1746 22.5409C32.1579 21.668 34.3506 21.2 36.6042 21.2C38.8096 21.2 40.9275 21.6763 42.8497 22.525ZM48.6501 22.8228C48.3483 23.1198 47.8715 23.1316 47.5434 22.864C46.8977 22.3374 47.2464 21.1 48.0796 21.1H48.3036C49.072 21.1 49.4536 22.0318 48.906 22.5708L48.6501 22.8228Z" fill="white"/>
<path d="M51.8125 36.3L50.8128 36.2752L50.8125 36.2876V36.3H51.8125ZM48.906 22.5708L48.2045 21.8581L48.906 22.5708ZM30.1746 22.5409L29.7718 21.6256L30.1746 22.5409ZM43.4443 27.9468L42.7428 27.2341L43.4443 27.9468ZM40.9231 33.4037L40.2205 32.6922L40.9231 33.4037ZM50.1578 24.2851L49.4552 23.5736L50.1578 24.2851ZM50.4152 24.031L51.1179 24.7425L50.4152 24.031ZM50.4422 48.4957L51.1448 47.7841L50.4422 48.4957ZM50.1936 48.2502L49.491 48.9617L50.1936 48.2502ZM33.721 40.5153L33.0184 39.8037L33.721 40.5153ZM42.9716 49.9924L42.558 49.0819L42.9716 49.9924ZM48.6861 49.7127L49.3876 49L48.6861 49.7127ZM48.9188 49.9418L48.2173 50.6544L48.9188 49.9418ZM24.3613 49.7573L25.0639 50.4689L24.3613 49.7573ZM22.8302 48.2372L22.1288 47.5246L22.8302 48.2372ZM22.6081 48.4559L23.3096 49.1685L22.6081 48.4559ZM22.6328 29.8085L21.7299 29.3786L22.6328 29.8085ZM22.6351 24.0707L21.9336 24.7834L22.6351 24.0707ZM22.8639 24.2959L23.5654 23.5832L22.8639 24.2959ZM24.1749 22.5587L23.4723 23.2703L24.1749 22.5587ZM24.1338 49.9819L23.4312 49.2704L24.1338 49.9819ZM20.0417 20H36.5V18H20.0417V20ZM20 20.1V20.0417H18V20.1H20ZM20 36.3V20.1H18V36.3H20ZM20 52.5V36.3H18V52.5H20ZM20 52.5583V52.5H18V52.5583H20ZM36.5 52.6H20.0417V54.6H36.5V52.6ZM52.9583 52.6H36.5V54.6H52.9583V52.6ZM53 52.5V52.5583H55V52.5H53ZM53 36.3V52.5H55V36.3H53ZM53 20.1V36.3H55V20.1H53ZM53 20.0417V20.1H55V20.0417H53ZM36.5 20H52.9583V18H36.5V20ZM24.984 20.1H24.7738V22.1H24.984V20.1ZM23.4723 23.2703L23.7147 23.5096L25.12 22.0865L24.8776 21.8471L23.4723 23.2703ZM23.5654 23.5832L23.3366 23.358L21.9336 24.7834L22.1624 25.0085L23.5654 23.5832ZM20.1875 24.677V24.8735H22.1875V24.677H20.1875ZM21.7299 29.3786C20.7314 31.4758 20.1875 33.8262 20.1875 36.3H22.1875C22.1875 34.1214 22.6661 32.0649 23.5357 30.2383L21.7299 29.3786ZM32.814 32.6866L28.6253 28.5637L27.2223 29.989L31.411 34.112L32.814 32.6866ZM28.6484 43.9135L32.814 39.8134L31.411 38.388L27.2455 42.4882L28.6484 43.9135ZM20.1875 36.3C20.1875 38.7143 20.7359 41.004 21.6918 43.0508L23.5039 42.2045C22.6661 40.4106 22.1875 38.4089 22.1875 36.3H20.1875ZM20.1875 47.6687V47.8608H22.1875V47.6687H20.1875ZM23.3096 49.1685L23.5317 48.9499L22.1288 47.5246L21.9066 47.7432L23.3096 49.1685ZM24.8364 50.6935L25.0639 50.4689L23.6587 49.0457L23.4312 49.2704L24.8364 50.6935ZM24.9161 50.4H24.7159V52.4H24.9161V50.4ZM48.3215 50.4H48.117V52.4H48.3215V50.4ZM47.9846 50.4254L48.2173 50.6544L49.6203 49.2291L49.3876 49L47.9846 50.4254ZM36.5 52.4C38.9238 52.4 41.2782 51.8601 43.3853 50.9028L42.558 49.0819C40.7013 49.9254 38.6282 50.4 36.5 50.4V52.4ZM29.7391 50.94C31.8126 51.8737 34.1069 52.4 36.5 52.4V50.4C34.4019 50.4 32.3866 49.9387 30.5602 49.1164L29.7391 50.94ZM30.2712 45.3271L34.4236 41.2268L33.0184 39.8037L28.866 43.9039L30.2712 45.3271ZM38.636 41.2235L42.8226 45.3444L44.2256 43.919L40.0389 39.7981L38.636 41.2235ZM49.491 48.9617L49.7396 49.2072L51.1448 47.7841L50.8962 47.5386L49.491 48.9617ZM52.9167 47.8794V47.6663H50.9167V47.8794H52.9167ZM52.9167 24.8789V24.6584H50.9167V24.8789H52.9167ZM49.7126 23.3194L49.4552 23.5736L50.8605 24.9967L51.1179 24.7425L49.7126 23.3194ZM52.8122 36.3248C52.8738 33.8419 52.3233 31.4917 51.3335 29.4023L49.5261 30.2585C50.3898 32.0818 50.8662 34.123 50.8128 36.2752L52.8122 36.3248ZM51.3223 43.1106C52.2875 41.0416 52.8125 38.7303 52.8125 36.3H50.8125C50.8125 38.4403 50.3506 40.4628 49.5098 42.2651L51.3223 43.1106ZM40.2205 39.8078L44.4119 43.9465L45.8171 42.5234L41.6257 38.3847L40.2205 39.8078ZM44.393 28.5721L40.2205 32.6922L41.6257 34.1153L45.7982 29.9953L44.393 28.5721ZM40.0389 32.7019L44.1458 28.6595L42.7428 27.2341L38.636 31.2765L40.0389 32.7019ZM28.8893 28.6191L33.0184 32.6963L34.4236 31.2732L30.2945 27.196L28.8893 28.6191ZM36.6042 20.2C34.2126 20.2 31.8827 20.6966 29.7718 21.6256L30.5774 23.4562C32.4332 22.6395 34.4886 22.2 36.6042 22.2V20.2ZM43.2536 21.6102C41.2095 20.7077 38.9544 20.2 36.6042 20.2V22.2C38.6648 22.2 40.6455 22.6449 42.4458 23.4398L43.2536 21.6102ZM48.3036 20.1H48.0796V22.1H48.3036V20.1ZM49.3515 23.5355L49.6075 23.2835L48.2045 21.8581L47.9486 22.1101L49.3515 23.5355ZM48.3036 22.1C48.2863 22.1 48.2528 22.0926 48.221 22.0702C48.1939 22.051 48.1799 22.0293 48.1729 22.0123C48.166 21.9953 48.1608 21.97 48.1666 21.9373C48.1735 21.8991 48.1922 21.8703 48.2045 21.8581L49.6075 23.2835C50.7928 22.1168 49.9667 20.1 48.3036 20.1V22.1ZM46.9114 23.639C47.6164 24.214 48.6696 24.2067 49.3515 23.5355L47.9486 22.1101C48.0271 22.0328 48.1266 22.0493 48.1754 22.0891L46.9114 23.639ZM30.2945 27.196C29.6635 26.5729 29.3888 25.7559 29.4489 25.0447C29.5069 24.358 29.8692 23.7678 30.5774 23.4562L29.7718 21.6256C28.3333 22.2586 27.5699 23.5278 27.456 24.8763C27.3442 26.2004 27.8515 27.5943 28.8893 28.6191L30.2945 27.196ZM44.1458 28.6595C45.1947 27.627 45.7028 26.2203 45.5875 24.8858C45.4702 23.5278 44.7001 22.2489 43.2536 21.6102L42.4458 23.4398C43.1641 23.757 43.5346 24.359 43.5949 25.0579C43.6574 25.7803 43.3804 26.6066 42.7428 27.2341L44.1458 28.6595ZM41.6257 38.3847C40.4362 37.2101 40.4362 35.2899 41.6257 34.1153L40.2205 32.6922C38.2379 34.6498 38.2379 37.8502 40.2205 39.8078L41.6257 38.3847ZM49.5098 42.2651C49.1926 42.9451 48.6117 43.2928 47.9351 43.3459C47.2347 43.4008 46.4332 43.1317 45.8171 42.5234L44.4119 43.9465C45.425 44.9469 46.7903 45.4418 48.0914 45.3398C49.4163 45.2358 50.6716 44.5056 51.3223 43.1106L49.5098 42.2651ZM51.3335 29.4023C50.6738 28.0097 49.4133 27.2804 48.0851 27.1762C46.7794 27.0738 45.4096 27.5683 44.393 28.5721L45.7982 29.9953C46.4163 29.385 47.2218 29.1147 47.9287 29.1701C48.6129 29.2238 49.2022 29.5749 49.5261 30.2585L51.3335 29.4023ZM49.4552 23.5736C48.7576 24.2624 48.7431 25.345 49.3345 26.0669L50.8817 24.7995C50.9146 24.8397 50.9311 24.927 50.8605 24.9967L49.4552 23.5736ZM52.9167 24.6584C52.9167 22.9876 50.9015 22.1455 49.7126 23.3194L51.1179 24.7425C51.1091 24.7512 51.0846 24.7673 51.0511 24.7729C51.023 24.7776 51.0023 24.7729 50.9893 24.7675C50.9762 24.762 50.9583 24.7506 50.942 24.7273C50.9225 24.6995 50.9167 24.6708 50.9167 24.6584H52.9167ZM50.9167 24.8789C50.9167 24.8601 50.9206 24.8347 50.931 24.8083C50.9411 24.7828 50.9534 24.7657 50.9614 24.7567C50.9689 24.7482 50.9715 24.7479 50.9652 24.7517C50.9589 24.7556 50.9472 24.7614 50.9305 24.7664C50.9138 24.7714 50.8964 24.7742 50.8802 24.7748C50.8641 24.7754 50.8533 24.7737 50.8484 24.7726C50.8438 24.7715 50.847 24.7716 50.8551 24.7764C50.864 24.7818 50.8738 24.7899 50.8817 24.7995L49.3345 26.0669C49.9249 26.7876 50.8375 26.8807 51.5008 26.6834C52.1687 26.4847 52.9167 25.8801 52.9167 24.8789H50.9167ZM52.9167 47.6663C52.9167 46.6731 52.1754 46.0733 51.5133 45.8768C50.8558 45.6816 49.9511 45.7757 49.3672 46.493L50.9183 47.7556C50.9094 47.7665 50.8982 47.7759 50.8876 47.7823C50.8778 47.7882 50.8727 47.7891 50.8751 47.7885C50.878 47.7879 50.8866 47.7863 50.9005 47.7868C50.9144 47.7873 50.9297 47.7898 50.9443 47.7941C50.959 47.7985 50.9687 47.8035 50.9733 47.8063C50.9778 47.809 50.9737 47.8074 50.965 47.7976C50.9558 47.7872 50.9425 47.7686 50.9319 47.7416C50.9209 47.7136 50.9167 47.6867 50.9167 47.6663H52.9167ZM49.7396 49.2072C50.9185 50.3713 52.9167 49.5362 52.9167 47.8794H50.9167C50.9167 47.8636 50.9235 47.8318 50.9448 47.8015C50.9629 47.7757 50.9832 47.7624 50.999 47.7558C51.0148 47.7492 51.0385 47.7441 51.0696 47.7493C51.1061 47.7555 51.1335 47.773 51.1448 47.7841L49.7396 49.2072ZM50.8962 47.5386C50.9718 47.6132 50.9563 47.709 50.9183 47.7556L49.3672 46.493C48.784 47.2095 48.8008 48.2802 49.491 48.9617L50.8962 47.5386ZM34.4236 41.2268C35.5907 40.0744 37.467 40.0729 38.636 41.2235L40.0389 39.7981C38.0907 37.8805 34.9636 37.883 33.0184 39.8037L34.4236 41.2268ZM30.5602 49.1164C29.8475 48.7955 29.4804 48.1935 29.4217 47.4959C29.361 46.7754 29.6376 45.9527 30.2712 45.3271L28.866 43.9039C27.8235 44.9333 27.3167 46.3334 27.4287 47.6637C27.5426 49.017 28.304 50.2939 29.7391 50.94L30.5602 49.1164ZM43.3853 50.9028C44.8086 50.2562 45.5593 48.987 45.6658 47.643C45.7703 46.323 45.2603 44.9375 44.2256 43.919L42.8226 45.3444C43.4517 45.9636 43.7282 46.7757 43.672 47.4851C43.6177 48.1706 43.2602 48.7629 42.558 49.0819L43.3853 50.9028ZM49.3876 49C48.7154 48.3384 47.6738 48.3154 46.9648 48.8875L48.2206 50.444C48.1639 50.4898 48.0594 50.499 47.9846 50.4254L49.3876 49ZM48.3215 52.4C49.9781 52.4 50.8009 50.3911 49.6203 49.2291L48.2173 50.6544C48.2038 50.6412 48.1844 50.611 48.1773 50.5713C48.1712 50.5372 48.1766 50.5105 48.1841 50.4922C48.1915 50.4739 48.2065 50.4512 48.2347 50.4311C48.2676 50.4079 48.3026 50.4 48.3215 50.4V52.4ZM24.9161 52.4C25.8847 52.4 26.4731 51.6818 26.6663 51.0353C26.8579 50.3941 26.7647 49.5144 26.0671 48.9434L24.8003 50.4911C24.7864 50.4797 24.7744 50.4654 24.7658 50.4512C24.7576 50.4376 24.755 50.4282 24.7544 50.4257C24.7541 50.4245 24.7567 50.4403 24.75 50.4627C24.743 50.4859 24.7379 50.4787 24.7628 50.4568C24.7768 50.4445 24.7991 50.4292 24.8297 50.4172C24.8613 50.4048 24.8919 50.4 24.9161 50.4V52.4ZM25.0639 50.4689C24.9758 50.5559 24.8604 50.5402 24.8003 50.4911L26.0671 48.9434C25.3717 48.3742 24.331 48.3819 23.6587 49.0457L25.0639 50.4689ZM23.5317 48.9499C24.2114 48.2809 24.2332 47.227 23.6578 46.5189L22.1056 47.78C22.0571 47.7203 22.0445 47.6075 22.1288 47.5246L23.5317 48.9499ZM20.1875 47.8608C20.1875 49.4886 22.1496 50.3104 23.3096 49.1685L21.9066 47.7432C21.9229 47.7272 21.9561 47.707 21.9984 47.7C22.0353 47.6938 22.065 47.6997 22.0862 47.7086C22.1074 47.7174 22.1325 47.7345 22.154 47.7651C22.1786 47.8002 22.1875 47.838 22.1875 47.8608H20.1875ZM22.1875 47.6687C22.1875 47.6915 22.1829 47.721 22.1709 47.7517C22.1593 47.7815 22.1443 47.8032 22.1324 47.8168C22.1113 47.8409 22.1049 47.8353 22.1286 47.8283C22.1517 47.8214 22.168 47.824 22.1675 47.8239C22.1654 47.8234 22.1564 47.8209 22.1434 47.813C22.1297 47.8047 22.1163 47.7931 22.1056 47.78L23.6578 46.5189C23.0868 45.816 22.2035 45.7191 21.5577 45.9115C20.9066 46.1054 20.1875 46.6972 20.1875 47.6687H22.1875ZM31.411 34.112C32.605 35.2873 32.605 37.2127 31.411 38.388L32.814 39.8134C34.804 37.8546 34.804 34.6454 32.814 32.6866L31.411 34.112ZM23.5357 30.2383C23.8566 29.5643 24.4372 29.2202 25.1123 29.169C25.8108 29.116 26.6084 29.3847 27.2223 29.989L28.6253 28.5637C27.6157 27.57 26.2574 27.0764 24.961 27.1747C23.6413 27.2749 22.3882 27.9959 21.7299 29.3786L23.5357 30.2383ZM23.3366 23.358C22.1665 22.2063 20.1875 23.0352 20.1875 24.677H22.1875C22.1875 24.6963 22.1796 24.731 22.1568 24.7636C22.137 24.7918 22.1144 24.8069 22.0959 24.8147C22.0775 24.8224 22.0508 24.8279 22.0169 24.8222C21.9776 24.8156 21.9473 24.7969 21.9336 24.7834L23.3366 23.358ZM22.1624 25.0085C22.0815 24.929 22.0971 24.8253 22.1398 24.7734L23.6846 26.0436C24.27 25.3317 24.2552 24.2622 23.5654 23.5832L22.1624 25.0085ZM23.7147 23.5096C24.3925 24.1788 25.4384 24.1847 26.1392 23.624L24.8897 22.0624C24.9376 22.024 25.0372 22.0048 25.12 22.0865L23.7147 23.5096ZM55 20.0417C55 18.9141 54.0859 18 52.9583 18V20C52.9813 20 53 20.0187 53 20.0417H55ZM20.1875 24.8735C20.1875 25.8501 20.9092 26.4475 21.5651 26.6453C22.2158 26.8415 23.1058 26.7475 23.6846 26.0436L22.1398 24.7734C22.1494 24.7617 22.1615 24.7514 22.1737 24.7441C22.1851 24.7373 22.1924 24.7355 22.1927 24.7354C22.1928 24.7354 22.1914 24.7357 22.1885 24.736C22.1856 24.7363 22.1815 24.7365 22.1764 24.7363C22.1658 24.7358 22.154 24.7339 22.1426 24.7305C22.1312 24.727 22.1244 24.7233 22.1224 24.7221C22.1205 24.7209 22.1266 24.7242 22.1366 24.7358C22.1472 24.7479 22.1611 24.7679 22.172 24.7959C22.1832 24.8248 22.1875 24.8525 22.1875 24.8735H20.1875ZM48.117 50.4C48.1385 50.4 48.1669 50.4043 48.1965 50.416C48.2253 50.4273 48.2458 50.4416 48.2581 50.4526C48.2699 50.4629 48.2732 50.4692 48.2719 50.4671C48.2706 50.465 48.2668 50.4579 48.2633 50.4459C48.2599 50.4341 48.2579 50.4216 48.2576 50.4104C48.2572 50.3991 48.2585 50.393 48.2586 50.3925C48.2587 50.3922 48.257 50.3992 48.2502 50.4104C48.2429 50.4224 48.2325 50.4345 48.2206 50.444L46.9648 48.8875C46.2525 49.4622 46.1526 50.3559 46.3442 51.009C46.5374 51.6675 47.1327 52.4 48.117 52.4V50.4ZM52.9583 54.6C54.0859 54.6 55 53.6859 55 52.5583H53C53 52.5813 52.9813 52.6 52.9583 52.6V54.6ZM24.984 22.1C24.9625 22.1 24.9344 22.0956 24.9053 22.0842C24.8773 22.0731 24.8576 22.0592 24.8461 22.0491C24.8352 22.0395 24.8326 22.0342 24.8345 22.0372C24.8364 22.0404 24.8406 22.0484 24.8444 22.0612C24.8482 22.0738 24.8502 22.0869 24.8506 22.0986C24.8508 22.1042 24.8506 22.1087 24.8503 22.1119C24.8501 22.1135 24.85 22.1147 24.8498 22.1156C24.8497 22.1164 24.8496 22.1168 24.8496 22.1168C24.8496 22.1168 24.8497 22.1163 24.85 22.1155C24.8503 22.1146 24.8507 22.1133 24.8514 22.1116C24.8528 22.1082 24.8551 22.1034 24.8586 22.0975C24.8664 22.0849 24.8773 22.0723 24.8897 22.0624L26.1392 23.624C26.8597 23.0475 26.9556 22.1468 26.7621 21.4933C26.5672 20.8353 25.9704 20.1 24.984 20.1V22.1ZM24.7738 20.1C23.1179 20.1 22.2941 22.1068 23.4723 23.2703L24.8776 21.8471C24.8909 21.8603 24.9102 21.8903 24.9172 21.9298C24.9232 21.9637 24.9179 21.9902 24.9104 22.0084C24.903 22.0265 24.8882 22.0491 24.86 22.069C24.8273 22.0922 24.7925 22.1 24.7738 22.1V20.1ZM23.4312 49.2704C22.268 50.4189 23.0813 52.4 24.7159 52.4V50.4C24.74 50.4 24.7794 50.4094 24.8159 50.4352C24.8477 50.4577 24.8654 50.484 24.8746 50.5063C24.8837 50.5286 24.8896 50.5598 24.8828 50.5982C24.875 50.6422 24.8535 50.6766 24.8364 50.6935L23.4312 49.2704ZM48.1754 22.0891C48.1873 22.0988 48.1972 22.1107 48.2039 22.1218C48.2101 22.1322 48.2111 22.1376 48.2106 22.1354C48.21 22.1328 48.2084 22.1243 48.2089 22.1106C48.2094 22.0968 48.2118 22.0817 48.2161 22.0673C48.2203 22.0529 48.2252 22.0434 48.2277 22.0392C48.2303 22.0351 48.2283 22.0397 48.2178 22.049C48.2068 22.0588 48.1873 22.0727 48.1591 22.0839C48.1299 22.0955 48.1015 22.1 48.0796 22.1V20.1C47.0869 20.1 46.4917 20.8438 46.2977 21.5018C46.105 22.1552 46.1975 23.0568 46.9114 23.639L48.1754 22.0891ZM18 52.5583C18 53.6859 18.9141 54.6 20.0417 54.6V52.6C20.0187 52.6 20 52.5813 20 52.5583H18ZM27.2455 42.4882C26.6235 43.1004 25.8143 43.3684 25.105 43.3092C24.4181 43.2519 23.8265 42.8952 23.5039 42.2045L21.6918 43.0508C22.3459 44.4515 23.6063 45.1911 24.9386 45.3023C26.2484 45.4116 27.6254 44.9206 28.6484 43.9135L27.2455 42.4882ZM38.636 31.2765C37.467 32.4271 35.5907 32.4256 34.4236 31.2732L33.0184 32.6963C34.9636 34.617 38.0907 34.6195 40.0389 32.7019L38.636 31.2765ZM20.0417 18C18.9141 18 18 18.9141 18 20.0417H20C20 20.0187 20.0187 20 20.0417 20V18Z" fill="white" mask="url(#path-2-inside-1)"/>
</svg>
