<svg width="72" height="72" viewBox="0 0 72 72" fill="none" xmlns="http://www.w3.org/2000/svg">
<rect width="72" height="72" rx="4" fill="#4390ED"/>
<path fill-rule="evenodd" clip-rule="evenodd" d="M44.81 33.1799L37.0458 17.9L36.1083 16L35.1708 17.9L27.3869 33.2188L14.2331 27.2C13.2956 26.8 12.3581 26.8 12.0456 27.4C11.8373 27.9 12.3581 28.7 13.2956 29.2L26.3855 35.1895L22.1344 43.5556L13.2956 47.6C12.3581 48.1 11.8373 48.9 12.0456 49.4C12.3581 50 13.2956 50 14.2331 49.6L20.5262 46.7204L18.5041 50.7L17.7749 52.2H19.4416H52.6708H54.4416L53.7125 50.7L51.722 46.7828L57.8789 49.6C58.8164 50 59.7539 50 60.0664 49.4C60.2748 48.9 59.7539 48.1 58.8164 47.6L50.1138 43.618L45.8114 35.1507L58.8164 29.2C59.7539 28.7 60.2748 27.9 60.0664 27.4C59.7539 26.8 58.8164 26.8 57.8789 27.2L44.81 33.1799ZM42.879 34.0635L36.1083 20.7L29.3178 34.1023L36.056 37.1855L42.879 34.0635ZM43.8781 36.0353L38.7102 38.4L46.9974 42.192L43.8781 36.0353ZM48.5995 45.354L36.056 39.6145L23.6486 45.2917L21.2124 50.1H51.0041L48.5995 45.354ZM25.2507 42.1297L33.4018 38.4L28.3188 36.0742L25.2507 42.1297Z" fill="white"/>
</svg>
