<svg width="72" height="72" viewBox="0 0 72 72" fill="none" xmlns="http://www.w3.org/2000/svg">
<rect width="72" height="72" rx="4" fill="#4390ED"/>
<mask id="path-2-inside-1" fill="white">
<path fill-rule="evenodd" clip-rule="evenodd" d="M36.1826 20C40.9743 20 45.3493 21.9 48.4743 25C49.7594 26.2749 50.8508 27.7527 51.6904 29.3779L55.7656 27.5C56.3906 27.2 57.0156 27.4 57.3281 28C57.5365 28.5 57.3281 29.2 56.7031 29.5L52.5758 31.4019C53.2231 33.1888 53.5784 35.1085 53.5784 37.1C53.5784 39.3533 53.1235 41.5148 52.3055 43.4961L56.7031 45.5C57.3281 45.8 57.5365 46.5 57.3281 47C57.0156 47.6 56.3906 47.8 55.7656 47.5L51.3375 45.4708C50.5532 46.8418 49.5863 48.0969 48.4743 49.2C45.3493 52.3 40.9743 54.2 36.1826 54.2C31.3909 54.2 27.0159 52.3 23.8909 49.2C22.8793 48.1964 21.9878 47.0672 21.2446 45.8393L17.6406 47.5C17.0156 47.8 16.3906 47.6 16.0781 47C15.8698 46.5 16.0781 45.8 16.7031 45.5L20.2229 43.8781C19.3024 41.7939 18.7868 39.499 18.7868 37.1C18.7868 34.985 19.1875 32.9511 19.9131 31.071L16.7031 29.6C16.0781 29.3 15.8698 28.6 16.0781 28.1C16.2865 27.6 17.0156 27.4 17.6406 27.7L20.8001 29.1398C21.6219 27.6082 22.6688 26.2123 23.8909 25C27.1201 21.9 31.3909 20 36.1826 20ZM21.8821 31.9732C21.2913 33.5808 20.9743 35.3119 20.9743 37.1C20.9743 39.1693 21.3988 41.1622 22.181 42.9758L34.0038 37.5279L21.8821 31.9732ZM36.5914 36.3355L22.76 30.0328C23.4711 28.7243 24.3786 27.5318 25.4534 26.5C28.1618 23.8 32.1201 22.1 36.2868 22.1C40.4534 22.1 44.3076 23.8 47.0159 26.5C48.1103 27.591 49.0516 28.8616 49.778 30.2591L36.5914 36.3355ZM36.65 38.7405L23.2079 44.9346C23.8391 45.9441 24.5926 46.8736 25.4534 47.7C28.1618 50.4 32.0159 52.1 36.1826 52.1C40.3493 52.1 44.2034 50.4 46.9118 47.7C47.8435 46.7711 48.6642 45.7121 49.3401 44.5555L36.65 38.7405ZM50.3091 42.5864L39.245 37.5447L50.6474 32.2905C51.1644 33.8077 51.4334 35.4289 51.3909 37.1C51.3909 39.0222 51.0017 40.8785 50.3091 42.5864Z"/>
</mask>
<path fill-rule="evenodd" clip-rule="evenodd" d="M36.1826 20C40.9743 20 45.3493 21.9 48.4743 25C49.7594 26.2749 50.8508 27.7527 51.6904 29.3779L55.7656 27.5C56.3906 27.2 57.0156 27.4 57.3281 28C57.5365 28.5 57.3281 29.2 56.7031 29.5L52.5758 31.4019C53.2231 33.1888 53.5784 35.1085 53.5784 37.1C53.5784 39.3533 53.1235 41.5148 52.3055 43.4961L56.7031 45.5C57.3281 45.8 57.5365 46.5 57.3281 47C57.0156 47.6 56.3906 47.8 55.7656 47.5L51.3375 45.4708C50.5532 46.8418 49.5863 48.0969 48.4743 49.2C45.3493 52.3 40.9743 54.2 36.1826 54.2C31.3909 54.2 27.0159 52.3 23.8909 49.2C22.8793 48.1964 21.9878 47.0672 21.2446 45.8393L17.6406 47.5C17.0156 47.8 16.3906 47.6 16.0781 47C15.8698 46.5 16.0781 45.8 16.7031 45.5L20.2229 43.8781C19.3024 41.7939 18.7868 39.499 18.7868 37.1C18.7868 34.985 19.1875 32.9511 19.9131 31.071L16.7031 29.6C16.0781 29.3 15.8698 28.6 16.0781 28.1C16.2865 27.6 17.0156 27.4 17.6406 27.7L20.8001 29.1398C21.6219 27.6082 22.6688 26.2123 23.8909 25C27.1201 21.9 31.3909 20 36.1826 20ZM21.8821 31.9732C21.2913 33.5808 20.9743 35.3119 20.9743 37.1C20.9743 39.1693 21.3988 41.1622 22.181 42.9758L34.0038 37.5279L21.8821 31.9732ZM36.5914 36.3355L22.76 30.0328C23.4711 28.7243 24.3786 27.5318 25.4534 26.5C28.1618 23.8 32.1201 22.1 36.2868 22.1C40.4534 22.1 44.3076 23.8 47.0159 26.5C48.1103 27.591 49.0516 28.8616 49.778 30.2591L36.5914 36.3355ZM36.65 38.7405L23.2079 44.9346C23.8391 45.9441 24.5926 46.8736 25.4534 47.7C28.1618 50.4 32.0159 52.1 36.1826 52.1C40.3493 52.1 44.2034 50.4 46.9118 47.7C47.8435 46.7711 48.6642 45.7121 49.3401 44.5555L36.65 38.7405ZM50.3091 42.5864L39.245 37.5447L50.6474 32.2905C51.1644 33.8077 51.4334 35.4289 51.3909 37.1C51.3909 39.0222 51.0017 40.8785 50.3091 42.5864Z" fill="white"/>
<path d="M48.4743 25L47.77 25.7099V25.7099L48.4743 25ZM51.6904 29.3779L50.802 29.8369L51.2407 30.6861L52.1089 30.2861L51.6904 29.3779ZM55.7656 27.5L56.1841 28.4082L56.1913 28.4049L56.1984 28.4015L55.7656 27.5ZM57.3281 28L58.2512 27.6154L58.2348 27.576L58.215 27.5381L57.3281 28ZM56.7031 29.5L57.1216 30.4082L57.1288 30.4049L57.1359 30.4015L56.7031 29.5ZM52.5758 31.4019L52.1573 30.4937L51.3226 30.8783L51.6356 31.7424L52.5758 31.4019ZM52.3055 43.4961L51.3811 43.1144L51.013 44.0061L51.8908 44.406L52.3055 43.4961ZM56.7031 45.5L57.1359 44.5985L57.1269 44.5942L57.1178 44.59L56.7031 45.5ZM57.3281 47L58.215 47.4619L58.2348 47.424L58.2512 47.3846L57.3281 47ZM55.7656 47.5L56.1984 46.5985L56.1903 46.5946L56.1822 46.5909L55.7656 47.5ZM51.3375 45.4708L51.7541 44.5617L50.9233 44.181L50.4695 44.9743L51.3375 45.4708ZM48.4743 49.2L47.77 48.49L48.4743 49.2ZM23.8909 49.2L23.1867 49.9099L23.8909 49.2ZM21.2446 45.8393L22.1001 45.3215L21.6375 44.5572L20.8261 44.9311L21.2446 45.8393ZM17.6406 47.5L17.2221 46.5918L17.215 46.5951L17.2079 46.5985L17.6406 47.5ZM16.0781 47L15.155 47.3846L15.1715 47.424L15.1912 47.4619L16.0781 47ZM16.7031 45.5L16.2846 44.5918L16.2775 44.5951L16.2704 44.5985L16.7031 45.5ZM20.2229 43.8781L20.6414 44.7863L21.5353 44.3744L21.1377 43.4741L20.2229 43.8781ZM19.9131 31.071L20.8461 31.431L21.1847 30.5537L20.3297 30.1619L19.9131 31.071ZM16.7031 29.6L16.2704 30.5016L16.2784 30.5054L16.2865 30.5091L16.7031 29.6ZM16.0781 28.1L15.155 27.7154L15.155 27.7154L16.0781 28.1ZM17.6406 27.7L17.2079 28.6016L17.2169 28.6059L17.226 28.61L17.6406 27.7ZM20.8001 29.1398L20.3855 30.0497L21.2382 30.4383L21.6813 29.6126L20.8001 29.1398ZM23.8909 25L23.1984 24.2786L23.1925 24.2843L23.1867 24.2901L23.8909 25ZM21.8821 31.9732L22.2987 31.0641L21.3162 30.6139L20.9434 31.6283L21.8821 31.9732ZM22.181 42.9758L21.2627 43.3718L21.6686 44.313L22.5995 43.884L22.181 42.9758ZM34.0038 37.5279L34.4223 38.4361L36.3987 37.5253L34.4204 36.6188L34.0038 37.5279ZM36.5914 36.3355L36.1767 37.2455L36.5937 37.4355L37.0099 37.2437L36.5914 36.3355ZM22.76 30.0328L21.8814 29.5554L21.3691 30.498L22.3454 30.9428L22.76 30.0328ZM25.4534 26.5L26.146 27.2214L26.1528 27.2148L26.1594 27.2082L25.4534 26.5ZM47.0159 26.5L47.7219 25.7918V25.7918L47.0159 26.5ZM49.778 30.2591L50.1965 31.1673L51.149 30.7284L50.6653 29.7979L49.778 30.2591ZM36.65 38.7405L37.0666 37.8314L36.6488 37.6399L36.2315 37.8323L36.65 38.7405ZM23.2079 44.9346L22.7894 44.0264L21.7579 44.5017L22.36 45.4647L23.2079 44.9346ZM25.4534 47.7L26.1594 46.9918L26.1528 46.9851L26.146 46.9786L25.4534 47.7ZM46.9118 47.7L46.2057 46.9918L46.9118 47.7ZM49.3401 44.5555L50.2035 45.0601L50.7607 44.1065L49.7566 43.6465L49.3401 44.5555ZM50.3091 42.5864L49.8944 43.4963L50.8437 43.9289L51.2358 42.9622L50.3091 42.5864ZM39.245 37.5447L38.8265 36.6365L36.8445 37.5498L38.8303 38.4547L39.245 37.5447ZM50.6474 32.2905L51.5939 31.968L51.2362 30.9181L50.2289 31.3823L50.6474 32.2905ZM51.3909 37.1L50.3913 37.0746L50.3909 37.0873V37.1H51.3909ZM49.1785 24.2901C45.8681 21.0061 41.2407 19 36.1826 19V21C40.7078 21 44.8304 22.7939 47.77 25.7099L49.1785 24.2901ZM52.5789 28.9189C51.6907 27.1997 50.5368 25.6374 49.1785 24.2901L47.77 25.7099C48.9821 26.9123 50.011 28.3058 50.802 29.8369L52.5789 28.9189ZM55.3471 26.5918L51.2719 28.4696L52.1089 30.2861L56.1841 28.4082L55.3471 26.5918ZM58.215 27.5381C57.9503 27.0298 57.5196 26.6363 56.9688 26.4601C56.4206 26.2847 55.8441 26.3531 55.3329 26.5985L56.1984 28.4015C56.2568 28.3735 56.2984 28.3651 56.322 28.3629C56.3449 28.3608 56.3559 28.3639 56.3593 28.3649C56.3625 28.366 56.3694 28.3685 56.3809 28.3786C56.3929 28.3891 56.4159 28.4133 56.4412 28.4619L58.215 27.5381ZM57.1359 30.4015C58.2438 29.8697 58.6626 28.6026 58.2512 27.6154L56.405 28.3846C56.4022 28.3777 56.4152 28.4122 56.393 28.4708C56.375 28.5183 56.3394 28.5654 56.2704 28.5985L57.1359 30.4015ZM52.9943 32.3101L57.1216 30.4082L56.2846 28.5918L52.1573 30.4937L52.9943 32.3101ZM54.5784 37.1C54.5784 34.9888 54.2016 32.9541 53.516 31.0613L51.6356 31.7424C52.2446 33.4236 52.5784 35.2282 52.5784 37.1H54.5784ZM53.2298 43.8777C54.096 41.7797 54.5784 39.4889 54.5784 37.1H52.5784C52.5784 39.2177 52.151 41.2498 51.3811 43.1144L53.2298 43.8777ZM57.1178 44.59L52.7201 42.5861L51.8908 44.406L56.2885 46.41L57.1178 44.59ZM58.2512 47.3846C58.6626 46.3974 58.2438 45.1303 57.1359 44.5985L56.2704 46.4015C56.3394 46.4346 56.375 46.4817 56.393 46.5292C56.4152 46.5878 56.4022 46.6223 56.405 46.6154L58.2512 47.3846ZM55.3329 48.4015C55.8441 48.6469 56.4206 48.7153 56.9688 48.5399C57.5196 48.3637 57.9503 47.9702 58.215 47.4619L56.4412 46.5381C56.4159 46.5867 56.3929 46.6109 56.3809 46.6214C56.3694 46.6315 56.3625 46.6341 56.3593 46.6351C56.3559 46.6361 56.3449 46.6392 56.322 46.6371C56.2984 46.6349 56.2568 46.6265 56.1984 46.5985L55.3329 48.4015ZM50.9209 46.3799L55.349 48.4091L56.1822 46.5909L51.7541 44.5617L50.9209 46.3799ZM49.1785 49.9099C50.3538 48.744 51.376 47.4173 52.2055 45.9674L50.4695 44.9743C49.7304 46.2663 48.8187 47.4497 47.77 48.49L49.1785 49.9099ZM36.1826 55.2C41.2407 55.2 45.8681 53.1938 49.1785 49.9099L47.77 48.49C44.8304 51.4061 40.7078 53.2 36.1826 53.2V55.2ZM23.1867 49.9099C26.4971 53.1938 31.1245 55.2 36.1826 55.2V53.2C31.6574 53.2 27.5348 51.4061 24.5952 48.49L23.1867 49.9099ZM20.3891 46.3571C21.175 47.6555 22.1175 48.8492 23.1867 49.9099L24.5952 48.49C23.6412 47.5436 22.8006 46.4788 22.1001 45.3215L20.3891 46.3571ZM18.0591 48.4082L21.6631 46.7475L20.8261 44.9311L17.2221 46.5918L18.0591 48.4082ZM15.1912 47.4619C15.4559 47.9702 15.8867 48.3637 16.4374 48.5399C16.9856 48.7153 17.5622 48.6469 18.0734 48.4015L17.2079 46.5985C17.1495 46.6265 17.1079 46.6349 17.0843 46.6371C17.0613 46.6392 17.0503 46.6361 17.047 46.6351C17.0438 46.634 17.0369 46.6315 17.0254 46.6214C17.0133 46.6109 16.9904 46.5867 16.965 46.5381L15.1912 47.4619ZM16.2704 44.5985C15.1624 45.1303 14.7437 46.3974 15.155 47.3846L17.0012 46.6154C17.0041 46.6223 16.9911 46.5878 17.0133 46.5292C17.0313 46.4817 17.0669 46.4346 17.1359 46.4015L16.2704 44.5985ZM19.8044 42.9699L16.2846 44.5918L17.1216 46.4082L20.6414 44.7863L19.8044 42.9699ZM17.7868 37.1C17.7868 39.6435 18.3337 42.0756 19.3082 44.2821L21.1377 43.4741C20.2712 41.5121 19.7868 39.3546 19.7868 37.1H17.7868ZM18.9802 30.7109C18.2118 32.702 17.7868 34.8578 17.7868 37.1H19.7868C19.7868 35.1122 20.1633 33.2001 20.8461 31.431L18.9802 30.7109ZM16.2865 30.5091L19.4965 31.9801L20.3297 30.1619L17.1197 28.6909L16.2865 30.5091ZM15.155 27.7154C14.7437 28.7027 15.1624 29.9697 16.2704 30.5016L17.1359 28.6985C17.0669 28.6654 17.0313 28.6184 17.0133 28.5708C16.9911 28.5122 17.0041 28.4777 17.0012 28.4847L15.155 27.7154ZM18.0734 26.7985C17.5497 26.5471 16.9682 26.4969 16.4498 26.6326C15.9373 26.7668 15.4066 27.1118 15.155 27.7154L17.0012 28.4847C16.958 28.5883 16.896 28.5832 16.9564 28.5674C17.011 28.5531 17.1066 28.5529 17.2079 28.6016L18.0734 26.7985ZM21.2148 28.2298L18.0553 26.7901L17.226 28.61L20.3855 30.0497L21.2148 28.2298ZM23.1867 24.2901C21.895 25.5713 20.7882 27.0469 19.919 28.667L21.6813 29.6126C22.4556 28.1695 23.4426 26.8533 24.5952 25.7099L23.1867 24.2901ZM36.1826 19C31.1155 19 26.6009 21.0122 23.1984 24.2786L24.5835 25.7214C27.6393 22.7878 31.6664 21 36.1826 21V19ZM20.9434 31.6283C20.3123 33.3455 19.9743 35.1933 19.9743 37.1H21.9743C21.9743 35.4305 22.2702 33.8161 22.8207 32.3182L20.9434 31.6283ZM19.9743 37.1C19.9743 39.3066 20.4271 41.4342 21.2627 43.3718L23.0992 42.5798C22.3705 40.8902 21.9743 39.032 21.9743 37.1H19.9743ZM22.5995 43.884L34.4223 38.4361L33.5853 36.6196L21.7625 42.0676L22.5995 43.884ZM21.4655 32.8823L33.5872 38.437L34.4204 36.6188L22.2987 31.0641L21.4655 32.8823ZM37.006 35.4255L23.1747 29.1229L22.3454 30.9428L36.1767 37.2455L37.006 35.4255ZM24.7609 25.7786C23.6112 26.8823 22.6412 28.1572 21.8814 29.5554L23.6387 30.5103C24.301 29.2915 25.1459 28.1814 26.146 27.2214L24.7609 25.7786ZM36.2868 21.1C31.8565 21.1 27.644 22.9041 24.7474 25.7918L26.1594 27.2082C28.6795 24.6959 32.3836 23.1 36.2868 23.1V21.1ZM47.7219 25.7918C44.8305 22.9093 40.7242 21.1 36.2868 21.1V23.1C40.1827 23.1 43.7847 24.6907 46.3099 27.2082L47.7219 25.7918ZM50.6653 29.7979C49.8906 28.3075 48.8876 26.9539 47.7219 25.7918L46.3099 27.2082C47.333 28.2281 48.2127 29.4158 48.8907 30.7203L50.6653 29.7979ZM37.0099 37.2437L50.1965 31.1673L49.3595 29.3509L36.1729 35.4273L37.0099 37.2437ZM36.2315 37.8323L22.7894 44.0264L23.6264 45.8428L37.0685 39.6487L36.2315 37.8323ZM22.36 45.4647C23.0346 46.5437 23.8401 47.5374 24.7609 48.4213L26.146 46.9786C25.3451 46.2097 24.6437 45.3446 24.0558 44.4044L22.36 45.4647ZM24.7474 48.4082C27.6388 51.2907 31.7452 53.1 36.1826 53.1V51.1C32.2867 51.1 28.6847 49.5092 26.1594 46.9918L24.7474 48.4082ZM36.1826 53.1C40.62 53.1 44.7264 51.2907 47.6178 48.4082L46.2057 46.9918C43.6805 49.5092 40.0785 51.1 36.1826 51.1V53.1ZM47.6178 48.4082C48.6103 47.4186 49.484 46.2912 50.2035 45.0601L48.4767 44.051C47.8444 45.1331 47.0766 46.1236 46.2057 46.9918L47.6178 48.4082ZM36.2334 39.6496L48.9235 45.4646L49.7566 43.6465L37.0666 37.8314L36.2334 39.6496ZM50.7237 41.6764L39.6597 36.6347L38.8303 38.4547L49.8944 43.4963L50.7237 41.6764ZM50.2289 31.3823L38.8265 36.6365L39.6635 38.4529L51.0659 33.1987L50.2289 31.3823ZM52.3906 37.1254C52.4362 35.3299 52.147 33.591 51.5939 31.968L49.7008 32.613C50.1817 34.0244 50.4305 35.528 50.3913 37.0746L52.3906 37.1254ZM51.2358 42.9622C51.9742 41.1414 52.3909 39.1579 52.3909 37.1H50.3909C50.3909 38.8865 50.0292 40.6155 49.3824 42.2106L51.2358 42.9622Z" fill="white" mask="url(#path-2-inside-1)"/>
</svg>
