<svg width="375" height="949" viewBox="0 0 375 949" fill="none" xmlns="http://www.w3.org/2000/svg">
<path d="M220.161 36.6005C308.312 15.8846 386.015 42.6934 409.685 49.2941L391 778L-29 790.5L-10.4998 29.9997C34.8815 49.8018 132.01 57.3165 220.161 36.6005Z" fill="#4390ED"/>
<path d="M220.161 36.6005C308.312 15.8846 386.015 42.6934 409.685 49.2941L391 778L-29 790.5L-10.4998 29.9997C34.8815 49.8018 132.01 57.3165 220.161 36.6005Z" fill="url(#paint0_linear)" fill-opacity="0.8"/>
<ellipse cx="99.5" cy="42.5621" rx="24" ry="23.8144" fill="#4390ED"/>
<path d="M141.5 7.60035C141.5 11.7979 138.142 15.2007 134 15.2007C129.858 15.2007 126.5 11.7979 126.5 7.60035C126.5 3.40279 129.858 0 134 0C138.142 0 141.5 3.40279 141.5 7.60035Z" fill="#4390ED"/>
<ellipse cx="91.5" cy="34.9613" rx="5" ry="5.0669" fill="#EFEFEF"/>
<path d="M83 568.245C65.4 539.845 -2.33333 547.412 -34 554.745L-27.5 730.245C-14.3333 717.745 24.9 688.545 76.5 671.745C141 650.745 105 603.745 83 568.245Z" fill="#99C7FF" fill-opacity="0.35"/>
<path d="M285.5 425.5C375.1 367.9 390.167 257.5 386.5 209.5C539 209.5 466 504 380 544.5C294 585 173.5 497.5 285.5 425.5Z" fill="#99C7FF" fill-opacity="0.35"/>
<path d="M158.5 757.602C68.5001 737.202 -10.8333 763.602 -34.9999 770.102L-44 949H394V751.102C347.667 770.602 248.5 778.002 158.5 757.602Z" fill="#EFEFEF"/>
<path d="M270.675 705.606C271.078 705.278 271.546 705.007 272.085 704.913C274.001 704.552 275.504 706.336 274.949 708.127C274.598 709.299 273.926 710.189 272.806 710.682C271.806 711.168 270.743 711.597 269.687 712.147C269.276 712.354 268.865 712.561 268.453 712.769C267.632 711.245 266.762 709.906 265.941 708.382C265.263 707.213 265.366 705.935 265.958 704.747C266.332 703.937 267.09 703.466 268.12 703.463C269.149 703.459 269.91 704.018 270.389 704.897C270.524 705.131 270.539 705.372 270.675 705.606Z" fill="#F4A5A7"/>
<path d="M253.279 666.929C253.389 666.635 253.55 666.351 253.802 666.138C254.688 665.367 256.014 665.837 256.271 666.938C256.446 667.655 256.367 668.322 255.935 668.92C255.563 669.478 255.14 670.025 254.758 670.633C254.608 670.866 254.457 671.099 254.306 671.332C253.414 670.79 252.554 670.358 251.662 669.816C250.953 669.414 250.617 668.718 250.563 667.919C250.511 667.384 250.762 666.908 251.296 666.592C251.831 666.277 252.397 666.336 252.914 666.647C253.056 666.727 253.137 666.848 253.279 666.929Z" fill="#F4A5A7"/>
<ellipse cx="177.996" cy="826.859" rx="94.6026" ry="22.141" fill="#C4C4C4"/>
<g clip-path="url(#clip0)">
<path d="M162.288 826.428H147.127V834.239H162.288V826.428Z" fill="#848484"/>
<path d="M234.961 826.428H219.8V834.239H234.961V826.428Z" fill="#848484"/>
<path d="M232.242 830.375H149.516C143.584 830.375 138.722 825.524 138.722 819.604V702.771C138.805 696.851 143.584 692 149.516 692H232.242C238.175 692 243.036 696.851 243.036 702.771V819.686C243.036 825.606 238.175 830.375 232.242 830.375Z" fill="white"/>
<path d="M191.044 801.845C210.657 801.845 226.557 785.98 226.557 766.409C226.557 746.838 210.657 730.972 191.044 730.972C171.431 730.972 155.531 746.838 155.531 766.409C155.531 785.98 171.431 801.845 191.044 801.845Z" fill="#9A9999"/>
<path d="M191.044 797.734C208.382 797.734 222.437 783.709 222.437 766.408C222.437 749.108 208.382 735.083 191.044 735.083C173.706 735.083 159.651 749.108 159.651 766.408C159.651 783.709 173.706 797.734 191.044 797.734Z" fill="#394A70"/>
<path d="M236.197 715.268C237.517 715.268 238.587 714.201 238.587 712.884C238.587 711.567 237.517 710.499 236.197 710.499C234.878 710.499 233.808 711.567 233.808 712.884C233.808 714.201 234.878 715.268 236.197 715.268Z" fill="#848484"/>
<path d="M230.841 712.884C230.841 714.199 229.77 715.268 228.452 715.268C227.134 715.268 226.062 714.199 226.062 712.884C226.062 711.568 230.841 711.568 230.841 712.884Z" fill="#848484"/>
<path d="M220.624 715.268C221.944 715.268 223.014 714.201 223.014 712.884C223.014 711.567 221.944 710.499 220.624 710.499C219.305 710.499 218.235 711.567 218.235 712.884C218.235 714.201 219.305 715.268 220.624 715.268Z" fill="#848484"/>
<path d="M208.759 717.652H203.321C200.602 717.652 198.295 715.432 198.295 712.637C198.295 709.924 200.519 707.622 203.321 707.622H208.759C211.478 707.622 213.785 709.842 213.785 712.637C213.703 715.432 211.478 717.652 208.759 717.652Z" fill="#848484"/>
<path d="M213.703 711.486H198.295V718.146H213.703V711.486Z" fill="#848484"/>
<path d="M186.512 716.995C188.788 716.995 190.632 715.154 190.632 712.884C190.632 710.613 188.788 708.773 186.512 708.773C184.237 708.773 182.392 710.613 182.392 712.884C182.392 715.154 184.237 716.995 186.512 716.995Z" fill="#848484"/>
<path d="M186.512 704.497V707.293" stroke="#848484" stroke-width="0.5166" stroke-miterlimit="10"/>
<path d="M186.512 718.475V721.27" stroke="#848484" stroke-width="0.5166" stroke-miterlimit="10"/>
<path d="M192.362 706.964L190.467 708.937" stroke="#848484" stroke-width="0.5166" stroke-miterlimit="10"/>
<path d="M182.475 716.83L180.58 718.803" stroke="#848484" stroke-width="0.5166" stroke-miterlimit="10"/>
<path d="M194.834 712.884H192.115" stroke="#848484" stroke-width="0.5166" stroke-miterlimit="10"/>
<path d="M180.827 712.884H178.108" stroke="#848484" stroke-width="0.5166" stroke-miterlimit="10"/>
<path d="M180.58 706.964L182.475 708.937" stroke="#848484" stroke-width="0.5166" stroke-miterlimit="10"/>
<path d="M190.467 716.83L192.362 718.803" stroke="#848484" stroke-width="0.5166" stroke-miterlimit="10"/>
<path d="M168.55 707.622C167.973 704.169 164.924 701.62 161.299 701.62H151.659C148.033 701.62 145.067 704.251 144.408 707.622H144.325V708.937V710.006V718.146H168.632V710.006V708.937V707.622H168.55Z" fill="#848484"/>
<path d="M138.805 697.755H243.036" stroke="#AFAFAF" stroke-width="0.3977" stroke-miterlimit="10"/>
<path d="M138.805 724.888H243.036" stroke="#AFAFAF" stroke-width="0.3977" stroke-miterlimit="10"/>
<path d="M138.805 824.209H243.036" stroke="#AFAFAF" stroke-width="0.3977" stroke-miterlimit="10"/>
<path d="M183.052 761.229C179.096 760.489 163.606 752.842 158.827 758.598C154.048 764.353 151.823 770.848 160.228 772.411C168.632 773.973 177.943 772.246 182.228 768.711C186.512 765.34 183.052 761.229 183.052 761.229Z" fill="#BDDECF"/>
<path d="M122.326 801.845C141.939 801.845 157.838 785.98 157.838 766.409C157.838 746.838 141.939 730.972 122.326 730.972C102.713 730.972 86.8129 746.838 86.8129 766.409C86.8129 785.98 102.713 801.845 122.326 801.845Z" fill="#AFAFAF"/>
<path d="M122.326 793.705C137.434 793.705 149.681 781.484 149.681 766.409C149.681 751.333 137.434 739.112 122.326 739.112C107.217 739.112 94.97 751.333 94.97 766.409C94.97 781.484 107.217 793.705 122.326 793.705Z" fill="#A8ECF6"/>
<path d="M174.4 766.408C174.4 766.408 171.269 767.313 172.752 764.517C174.235 761.722 194.093 755.391 201.426 760.735C208.759 766.08 218.729 765.011 220.46 763.531C222.19 762.051 226.062 763.202 225.815 765.422C225.568 767.642 226.639 785.812 217.328 786.388C207.853 786.881 167.149 774.219 174.4 766.408Z" fill="#FF7076"/>
<g opacity="0.52">
<g opacity="0.52">
<path opacity="0.52" d="M138.369 745.004L100.797 781.235L106.835 787.944L144.408 751.043L138.369 745.004Z" fill="white"/>
<path opacity="0.52" d="M148.433 761.778L117.57 792.641L128.305 792.641L148.433 772.513L148.433 761.778Z" fill="white"/>
<path opacity="0.52" d="M113.545 740.979L92.0745 763.12L92.0745 774.526L124.95 739.637L113.545 740.979Z" fill="white"/>
</g>
</g>
<path d="M112.356 766.409C112.356 775.946 104.61 783.675 95.0525 783.675C93.6517 783.675 92.3334 783.51 91.0151 783.181C88.296 778.166 86.7305 772.411 86.7305 766.326C86.7305 760.242 88.296 754.487 91.0151 749.471C92.3334 749.142 93.6517 748.978 95.0525 748.978C104.61 749.142 112.356 756.871 112.356 766.409Z" fill="#AFAFAF"/>
<path d="M158.827 769.615C162.288 769.122 172.67 762.873 180.662 768.546C188.655 774.219 189.726 775.288 193.433 775.124C197.141 775.041 207.853 774.63 207.358 778.577C206.864 782.523 197.141 785.73 197.141 785.73C197.141 785.73 159.486 790.17 160.31 782.688C160.969 775.37 158.827 769.615 158.827 769.615Z" fill="#AF6D71"/>
<path d="M218.976 780.797C218.976 780.797 214.856 772.986 197.8 776.11C180.744 779.235 162.617 779.235 160.969 775.37C159.404 771.506 160.64 778.495 161.546 780.797C162.452 783.181 180.827 800.858 187.171 800.529C193.516 800.201 204.145 797.405 209.748 793.705C215.433 790.088 219.8 781.948 218.976 780.797Z" fill="#F4A5A7"/>
<path d="M166.984 789.594C166.984 789.594 179.509 781.619 193.516 785.894C207.523 790.17 218.235 784.579 218.235 784.579C218.235 784.579 212.385 796.501 198.377 797.652C184.288 798.885 168.138 794.281 166.984 789.594Z" fill="#FFE99C"/>
<path d="M191.044 735.905C207.935 735.905 221.613 749.554 221.613 766.409C221.613 783.263 207.935 796.912 191.044 796.912C174.153 796.912 160.475 783.263 160.475 766.409C160.475 749.554 174.235 735.905 191.044 735.905ZM191.044 730.972C171.434 730.972 155.531 746.84 155.531 766.409C155.531 785.977 171.434 801.845 191.044 801.845C210.654 801.845 226.557 785.977 226.557 766.409C226.557 746.84 210.654 730.972 191.044 730.972Z" fill="#9A9999"/>
<g clip-path="url(#clip1)">
<path d="M207.947 752.972C208.139 752.623 208.393 752.297 208.748 752.076C210.004 751.271 211.581 752.105 211.701 753.534C211.788 754.466 211.567 755.29 210.914 755.961C210.344 756.592 209.713 757.201 209.121 757.894C208.889 758.159 208.657 758.424 208.425 758.688C207.406 757.843 206.405 757.143 205.386 756.298C204.569 755.663 204.276 754.727 204.356 753.715C204.388 753.033 204.791 752.482 205.52 752.184C206.249 751.887 206.949 752.065 207.54 752.551C207.704 752.678 207.783 752.845 207.947 752.972Z" fill="#F4A5A7"/>
</g>
</g>
<g clip-path="url(#clip2)">
<path d="M241.38 738.956C242.07 738.395 242.87 737.931 243.793 737.77C247.07 737.153 249.642 740.206 248.692 743.269C248.091 745.275 246.942 746.796 245.025 747.64C243.316 748.471 241.496 749.206 239.69 750.146C238.986 750.501 238.283 750.855 237.58 751.209C236.175 748.603 234.686 746.312 233.282 743.705C232.122 741.705 232.297 739.518 233.311 737.487C233.951 736.1 235.248 735.295 237.009 735.289C238.769 735.284 240.072 736.239 240.89 737.743C241.122 738.143 241.148 738.556 241.38 738.956Z" fill="#F4A5A7"/>
</g>
<defs>
<linearGradient id="paint0_linear" x1="190.343" y1="28.8811" x2="190.343" y2="790.5" gradientUnits="userSpaceOnUse">
<stop stop-color="#2371E2"/>
<stop offset="0.625" stop-color="#4390ED"/>
</linearGradient>
<clipPath id="clip0">
<rect width="169.077" height="142.239" fill="white" transform="translate(74 692)"/>
</clipPath>
<clipPath id="clip1">
<rect width="7.2585" height="7.06232" fill="white" transform="matrix(0.94296 0.332906 -0.332907 0.94296 205.557 750.116)"/>
</clipPath>
<clipPath id="clip2">
<rect width="16.2326" height="15.7939" fill="white" transform="translate(238.817 731.033) rotate(41.4573)"/>
</clipPath>
</defs>
</svg>
