<svg width="375" height="692" viewBox="0 0 375 692" fill="none" xmlns="http://www.w3.org/2000/svg">
<path d="M238.541 74C229.741 80.8 228.208 95.5 228.541 102C251.741 92.4 255.208 71.3333 254.042 62C252.541 63.1667 247.341 67.2 238.541 74Z" fill="#BDDECF"/>
<path d="M159 79.0446C69 60.1396 -10.3333 84.6048 -34.5 90.6285L-38 671C-38 671 61.5 698.5 191 677C320.5 655.5 401.5 691.5 401.5 691.5L394.5 73.0209C348.167 91.0918 249 97.9496 159 79.0446Z" fill="#BDDECF"/>
<path d="M306.475 63.3935C284.402 73.6298 281.733 102.34 283.157 115.416C327.103 108.547 338.752 69.1563 339.083 50.3192C337.411 50.4122 328.548 53.1573 306.475 63.3935Z" fill="#6DAA8E"/>
<path d="M315.629 14.75C306.626 19.1572 304.179 32.262 304.081 38.2635C330.027 31.0009 332.341 10.3162 330.255 0.881696C329.131 3.66816 324.633 10.3429 315.629 14.75Z" fill="#6DAA8E"/>
</svg>
