<svg width="246" height="212" viewBox="0 0 246 212" fill="none" xmlns="http://www.w3.org/2000/svg">
<ellipse cx="120.662" cy="193.806" rx="113.496" ry="18.194" fill="#E1E1E1"/>
<path d="M75.9057 79.0994H50.726V88.4683H75.9057V79.0994Z" fill="#99C7FF"/>
<path d="M64.675 68.4216H39.4953V77.7906H64.675V68.4216Z" fill="#99C7FF"/>
<path d="M91.2049 68.4216H66.0252V77.7906H91.2049V68.4216Z" fill="#99C7FF"/>
<path d="M78.624 57.7435H53.4443V67.1124H78.624V57.7435Z" fill="#99C7FF"/>
<path d="M37.9954 68.4216H12.8157V77.7906H37.9954V68.4216Z" fill="#99C7FF"/>
<path d="M25.4147 57.7435H0.23497V67.1124H25.4147V57.7435Z" fill="#99C7FF"/>
<path d="M37.9954 47.0844H12.8157V56.4533H37.9954V47.0844Z" fill="#99C7FF"/>
<path d="M64.675 47.0844H39.4953V56.4533H64.675V47.0844Z" fill="#99C7FF"/>
<path d="M52.0758 36.4065H26.8961V45.7754H52.0758V36.4065Z" fill="#99C7FF"/>
<path d="M78.624 36.4065H53.4443V45.7754H78.624V36.4065Z" fill="#99C7FF"/>
<path d="M64.675 25.7284H39.4953V35.0973H64.675V25.7284Z" fill="#99C7FF"/>
<path d="M91.2049 47.0844H66.0252V56.4533H91.2049V47.0844Z" fill="#99C7FF"/>
<path d="M68.308 190.295H54.566V197.092H68.308V190.295Z" fill="#858585"/>
<path d="M134.026 190.295H120.298V197.092H134.026V190.295Z" fill="#858585"/>
<path d="M131.516 193.757H56.7314C51.3515 193.757 46.9891 189.57 46.9891 184.407V82.7509C46.9891 77.5879 51.3515 73.4014 56.7314 73.4014H131.516C136.896 73.4014 141.259 77.5879 141.259 82.7509V184.407C141.269 189.57 136.906 193.757 131.516 193.757Z" fill="white"/>
<path d="M94.286 168.898C112.019 168.898 126.394 155.103 126.394 138.084C126.394 121.066 112.019 107.271 94.286 107.271C76.5531 107.271 62.1777 121.066 62.1777 138.084C62.1777 155.103 76.5531 168.898 94.286 168.898Z" fill="#9B9A9A"/>
<path d="M94.287 165.34C109.961 165.34 122.668 153.146 122.668 138.104C122.668 123.062 109.961 110.867 94.287 110.867C78.6128 110.867 65.9064 123.062 65.9064 138.104C65.9064 153.146 78.6128 165.34 94.287 165.34Z" fill="#394A70"/>
<path d="M112.238 89.3063C111.825 87.6336 110.253 86.3864 108.379 86.3864H104.037C102.163 86.3864 100.601 87.6336 100.178 89.3063L100.067 90.1958V94.3823H112.338V90.1958L112.238 89.3063Z" fill="#B3B3B3"/>
<path d="M90.67 91.733C92.1334 91.733 93.3197 90.5946 93.3197 89.1902C93.3197 87.7858 92.1334 86.6473 90.67 86.6473C89.2067 86.6473 88.0204 87.7858 88.0204 89.1902C88.0204 90.5946 89.2067 91.733 90.67 91.733Z" fill="#B3B3B3"/>
<path d="M90.6748 83.9982V85.6998" stroke="#858585" stroke-width="2.7299" stroke-miterlimit="10"/>
<path d="M90.6697 92.6709V94.3822" stroke="#858585" stroke-width="2.7299" stroke-miterlimit="10"/>
<path d="M94.4957 85.5161L93.2363 86.7247" stroke="#858585" stroke-width="2.7299" stroke-miterlimit="10"/>
<path d="M88.1082 91.6556L86.8489 92.8642" stroke="#858585" stroke-width="2.7299" stroke-miterlimit="10"/>
<path d="M96.0868 89.1902H94.3035" stroke="#858585" stroke-width="2.7299" stroke-miterlimit="10"/>
<path d="M87.0402 89.1902H85.2569" stroke="#858585" stroke-width="2.7299" stroke-miterlimit="10"/>
<path d="M86.8491 85.5161L88.1085 86.7247" stroke="#858585" stroke-width="2.7299" stroke-miterlimit="10"/>
<path d="M93.2357 91.6556L94.4951 92.8642" stroke="#858585" stroke-width="2.7299" stroke-miterlimit="10"/>
<path d="M76.3904 86.3767C75.9065 83.7565 73.517 81.7744 70.6537 81.7744H62.9509C60.0775 81.7744 57.6981 83.7662 57.2141 86.3767L57.1234 87.3629V88.1847V94.3823H76.4912V88.1847V87.3629L76.3904 86.3767Z" fill="#B3B3B3"/>
<path d="M46.9891 101.982H141.269" stroke="#B0B0B0" stroke-width="2.9409" stroke-miterlimit="10"/>
<path d="M87.0506 133.579C83.4741 132.931 69.4198 126.327 65.1279 131.336C60.826 136.344 58.7707 142.02 66.4074 143.364C74.0441 144.698 82.4364 143.19 86.3152 140.173C90.1939 137.156 87.0506 133.579 87.0506 133.579Z" fill="#BDDECF"/>
<path d="M32.1101 168.898C49.844 168.898 64.2202 155.103 64.2202 138.084C64.2202 121.066 49.844 107.271 32.1101 107.271C14.3762 107.271 3.8147e-05 121.066 3.8147e-05 138.084C3.8147e-05 155.103 14.3762 168.898 32.1101 168.898Z" fill="#9B9A9A"/>
<path d="M79.1813 138.104C79.1813 138.104 76.3503 138.868 77.7104 136.46C79.0705 134.043 97.0036 128.513 103.613 133.134C110.222 137.756 119.239 136.847 120.81 135.551C122.382 134.256 125.848 135.252 125.636 137.166C125.425 139.08 126.372 154.889 117.929 155.382C109.496 155.875 72.6831 144.882 79.1813 138.104Z" fill="#FF7076"/>
<path d="M32.109 161.85C45.7856 161.85 56.8728 151.21 56.8728 138.085C56.8728 124.959 45.7856 114.319 32.109 114.319C18.4323 114.319 7.34518 124.959 7.34518 138.085C7.34518 151.21 18.4323 161.85 32.109 161.85Z" fill="#A9EDF7"/>
<path opacity="0.52" d="M46.5863 119.73L13.2307 151.787L18.429 156.552L51.3514 124.496L46.5863 119.73Z" fill="white"/>
<path opacity="0.52" d="M56.1165 134.459L28.3923 160.883L38.3557 160.45L55.6833 143.556L56.1165 134.459Z" fill="white"/>
<path opacity="0.52" d="M24.0605 116.265L4.83228 134.304L9.76183 139.035L34.457 115.399L24.0605 116.265Z" fill="white"/>
<path d="M23.1425 138.085C23.1425 146.39 16.1305 153.119 7.47625 153.119C6.22697 153.119 5.00793 152.974 3.84933 152.713C1.40116 148.362 0.0108414 143.383 0.0108414 138.085C0.0108414 132.786 1.40116 127.807 3.84933 123.456C5.018 123.195 6.22697 123.05 7.47625 123.05C16.1305 123.05 23.1425 129.789 23.1425 138.085Z" fill="#9B9A9A"/>
<path d="M65.1209 140.879C68.2642 140.473 77.6035 135.039 84.8372 139.97C92.0709 144.901 93.0179 145.81 96.3728 145.703C99.7277 145.597 109.379 145.297 108.956 148.72C108.533 152.143 99.7277 154.956 99.7277 154.956C99.7277 154.956 65.7253 158.833 66.4004 152.355C67.0854 145.877 65.1209 140.879 65.1209 140.879Z" fill="#AF6D71"/>
<path d="M119.501 150.615C119.501 150.615 115.783 143.799 100.357 146.516C84.9402 149.232 68.506 149.261 67.0752 145.877C65.6444 142.493 66.7931 148.565 67.6294 150.615C68.4657 152.655 85.0409 168.057 90.8145 167.758C96.5882 167.458 106.201 165.021 111.249 161.86C116.307 158.698 120.277 151.582 119.501 150.615Z" fill="#F4A5A7"/>
<path d="M72.4641 158.263C72.4641 158.263 83.7982 151.311 96.4521 155.072C109.106 158.833 118.808 153.96 118.808 153.96C118.808 153.96 113.519 164.335 100.825 165.34C88.1303 166.346 73.5521 162.353 72.4641 158.263Z" fill="#FFE99C"/>
<path d="M94.286 111.563C98.0238 111.563 101.641 112.26 105.046 113.642C108.34 114.977 111.292 116.891 113.831 119.327C116.37 121.764 118.365 124.597 119.755 127.758C121.196 131.026 121.921 134.497 121.921 138.085C121.921 141.672 121.196 145.143 119.755 148.411C118.365 151.572 116.37 154.405 113.831 156.842C111.292 159.278 108.34 161.193 105.046 162.527C101.641 163.909 98.0238 164.606 94.286 164.606C90.5483 164.606 86.9314 163.909 83.5262 162.527C80.2317 161.193 77.2798 159.278 74.741 156.842C72.2021 154.405 70.2073 151.572 68.817 148.411C67.3763 145.143 66.6509 141.672 66.6509 138.085C66.6509 134.497 67.3763 131.026 68.817 127.758C70.2073 124.597 72.2021 121.764 74.741 119.327C77.2798 116.891 80.2317 114.977 83.5262 113.642C86.9314 112.269 90.5483 111.563 94.286 111.563ZM94.286 107.28C76.5544 107.28 62.1777 121.077 62.1777 138.094C62.1777 155.111 76.5544 168.908 94.286 168.908C112.018 168.908 126.394 155.111 126.394 138.094C126.394 121.068 112.018 107.28 94.286 107.28Z" fill="#9B9A9A"/>
<path d="M130.21 92.2359C131.273 92.2359 132.134 91.4091 132.134 90.3892C132.134 89.3693 131.273 88.5425 130.21 88.5425C129.147 88.5425 128.286 89.3693 128.286 90.3892C128.286 91.4091 129.147 92.2359 130.21 92.2359Z" fill="#B3B3B3"/>
<path d="M117.818 92.2359C118.881 92.2359 119.743 91.4091 119.743 90.3892C119.743 89.3693 118.881 88.5425 117.818 88.5425C116.756 88.5425 115.894 89.3693 115.894 90.3892C115.894 91.4091 116.756 92.2359 117.818 92.2359Z" fill="#B3B3B3"/>
<path d="M124.014 92.2359C125.077 92.2359 125.938 91.4091 125.938 90.3892C125.938 89.3693 125.077 88.5425 124.014 88.5425C122.951 88.5425 122.09 89.3693 122.09 90.3892C122.09 91.4091 122.951 92.2359 124.014 92.2359Z" fill="#B3B3B3"/>
<path d="M47.9857 78.3806H140.301" stroke="#B0B0B0" stroke-width="2.9409" stroke-miterlimit="10"/>
<path d="M47.6732 188.332H140.663" stroke="#B0B0B0" stroke-width="2.9409" stroke-miterlimit="10"/>
<path d="M167.563 191.36L177.34 190.454L176.567 182.769L166.79 183.675L167.563 191.36Z" fill="white"/>
<path d="M168.198 154.329C172.136 154.329 175.328 151.265 175.328 147.486C175.328 143.707 172.136 140.644 168.198 140.644C164.261 140.644 161.069 143.707 161.069 147.486C161.069 151.265 164.261 154.329 168.198 154.329Z" fill="url(#paint0_linear)"/>
<path d="M177.18 182.924L165.9 183.894L161.101 148.099L175.296 146.874L177.18 182.924Z" fill="url(#paint1_linear)"/>
<path d="M164.814 183.619L163.974 176.214C163.974 175.959 164.24 175.724 164.559 175.704C168.656 175.387 172.764 175.071 176.871 174.754C177.201 174.734 177.457 174.917 177.457 175.173L178.297 182.577C178.297 182.832 178.031 183.067 177.701 183.087C171.827 183.537 168.23 183.823 165.389 184.037C165.08 184.058 164.814 183.874 164.814 183.619Z" fill="url(#paint2_linear)"/>
<path d="M139.175 183.574L129.398 182.668L128.624 190.353L138.402 191.259L139.175 183.574Z" fill="white"/>
<path d="M137.763 154.216C141.701 154.216 144.893 151.153 144.893 147.374C144.893 143.595 141.701 140.531 137.763 140.531C133.825 140.531 130.633 143.595 130.633 147.374C130.633 151.153 133.825 154.216 137.763 154.216Z" fill="url(#paint3_linear)"/>
<path d="M128.782 182.812L140.062 183.782L144.872 147.987L130.665 146.761L128.782 182.812Z" fill="url(#paint4_linear)"/>
<path d="M139.051 183.966L141.35 197.753L106.105 197.743C106.105 197.743 105.53 192.422 121.195 188.153C121.195 188.153 126.345 186.825 128.697 183.966H139.051Z" fill="white"/>
<path d="M141.147 183.496L141.988 176.092C141.988 175.836 141.722 175.602 141.403 175.581C137.306 175.264 133.198 174.948 129.09 174.631C128.76 174.611 128.505 174.795 128.505 175.05L127.664 182.454C127.664 182.709 127.93 182.944 128.25 182.965C134.124 183.414 137.721 183.7 140.562 183.915C140.881 183.945 141.147 183.761 141.147 183.496Z" fill="url(#paint5_linear)"/>
<path d="M126.664 68.4202C124.397 65.2646 122.641 61.782 121.492 58.0851L117.15 44.1959L108.541 46.6572L112.883 60.5463C114.351 65.2645 116.607 69.7173 119.555 73.7104C121.332 76.141 128.154 70.5036 126.664 68.4202Z" fill="white"/>
<path d="M119.056 28.7952C119.088 28.7238 121.302 26.3953 123.036 28.1927C124.771 29.9901 119.259 30.9093 118.099 33.0335C116.949 35.1577 116.396 37.9764 114.928 37.9458C113.459 37.9151 104.861 34.8922 104.861 34.8922C104.861 34.8922 111.437 26.0072 111.724 25.9766C112.012 25.9459 119.056 28.7952 119.056 28.7952Z" fill="#BBDEED"/>
<path d="M110.128 25.2514L106.595 22.9127L108.33 20.6046L111.703 23.168L110.128 25.2514Z" fill="#ACCDDB"/>
<path d="M110.873 25.4658C111.614 25.4658 112.214 24.8897 112.214 24.179C112.214 23.4683 111.614 22.8922 110.873 22.8922C110.133 22.8922 109.532 23.4683 109.532 24.179C109.532 24.8897 110.133 25.4658 110.873 25.4658Z" fill="#ACCDDB"/>
<path d="M107.468 23.1782C108.285 23.1782 108.948 22.5427 108.948 21.7587C108.948 20.9747 108.285 20.3391 107.468 20.3391C106.651 20.3391 105.989 20.9747 105.989 21.7587C105.989 22.5427 106.651 23.1782 107.468 23.1782Z" fill="#ACCDDB"/>
<path d="M109.118 28.8462L105.148 27.4471L106.223 24.8326L110.097 26.4871L109.118 28.8462Z" fill="#ACCDDB"/>
<path d="M109.554 28.928C110.289 28.928 110.884 28.3565 110.884 27.6515C110.884 26.9464 110.289 26.3749 109.554 26.3749C108.82 26.3749 108.224 26.9464 108.224 27.6515C108.224 28.3565 108.82 28.928 109.554 28.928Z" fill="#ACCDDB"/>
<path d="M105.691 27.5493C106.502 27.5493 107.16 26.9183 107.16 26.1399C107.16 25.3616 106.502 24.7306 105.691 24.7306C104.88 24.7306 104.223 25.3616 104.223 26.1399C104.223 26.9183 104.88 27.5493 105.691 27.5493Z" fill="#ACCDDB"/>
<path d="M106.724 31.6751L103.255 30.6845L104.01 28.3969L107.416 29.6019L106.724 31.6751Z" fill="#ACCDDB"/>
<path d="M107.033 31.7057C107.656 31.7057 108.161 31.2211 108.161 30.6232C108.161 30.0253 107.656 29.5406 107.033 29.5406C106.41 29.5406 105.905 30.0253 105.905 30.6232C105.905 31.2211 106.41 31.7057 107.033 31.7057Z" fill="#ACCDDB"/>
<path d="M103.638 30.7457C104.331 30.7457 104.893 30.2062 104.893 29.5407C104.893 28.8751 104.331 28.3356 103.638 28.3356C102.944 28.3356 102.382 28.8751 102.382 29.5407C102.382 30.2062 102.944 30.7457 103.638 30.7457Z" fill="#ACCDDB"/>
<path d="M106.278 34.3814L102.862 33.8095L103.32 31.5525L106.693 32.3389L106.278 34.3814Z" fill="#ACCDDB"/>
<path d="M106.448 34.3916C107.047 34.3916 107.533 33.9252 107.533 33.3499C107.533 32.7746 107.047 32.3082 106.448 32.3082C105.849 32.3082 105.363 32.7746 105.363 33.3499C105.363 33.9252 105.849 34.3916 106.448 34.3916Z" fill="#ACCDDB"/>
<path d="M103.084 33.8299C103.748 33.8299 104.287 33.3132 104.287 32.6759C104.287 32.0385 103.748 31.5219 103.084 31.5219C102.42 31.5219 101.882 32.0385 101.882 32.6759C101.882 33.3132 102.42 33.8299 103.084 33.8299Z" fill="#ACCDDB"/>
<path d="M115.874 39.4777C115.172 37.0267 112.607 35.5765 110.16 36.2301C107.712 36.8837 106.297 39.396 107.01 41.847L108.17 45.7482C111.82 44.778 113.395 44.3491 117.034 43.3789L115.874 39.4777Z" fill="#BBDEED"/>
<path d="M110.968 40.5714L103.161 36.8368C102.127 36.3404 101.703 35.1331 102.221 34.1289L111.074 17.1144C111.591 16.1215 112.849 15.7153 113.895 16.2118L121.702 19.9464C122.736 20.4428 123.16 21.6501 122.642 22.6543L113.789 39.6688C113.272 40.6617 112.002 41.0679 110.968 40.5714Z" fill="#242728"/>
<path d="M112.884 38.1909L103.996 33.9372C103.679 33.7793 103.538 33.4069 103.702 33.091L111.967 17.1935C112.132 16.8889 112.52 16.7535 112.849 16.9114L121.737 21.1651C122.055 21.323 122.196 21.6953 122.031 22.0113L113.766 37.9088C113.602 38.2134 113.214 38.3488 112.884 38.1909Z" fill="#4390ED"/>
<path d="M107.77 38.2022C108.257 38.2022 108.651 37.8233 108.651 37.356C108.651 36.8886 108.257 36.5098 107.77 36.5098C107.283 36.5098 106.888 36.8886 106.888 37.356C106.888 37.8233 107.283 38.2022 107.77 38.2022Z" fill="#999999"/>
<path d="M107.468 23.1782C108.285 23.1782 108.948 22.5427 108.948 21.7587C108.948 20.9747 108.285 20.3391 107.468 20.3391C106.651 20.3391 105.989 20.9747 105.989 21.7587C105.989 22.5427 106.651 23.1782 107.468 23.1782Z" fill="#BBDEED"/>
<path d="M105.691 27.5493C106.502 27.5493 107.16 26.9183 107.16 26.1399C107.16 25.3616 106.502 24.7306 105.691 24.7306C104.88 24.7306 104.223 25.3616 104.223 26.1399C104.223 26.9183 104.88 27.5493 105.691 27.5493Z" fill="#BBDEED"/>
<path d="M103.638 30.7457C104.331 30.7457 104.893 30.2062 104.893 29.5407C104.893 28.8751 104.331 28.3356 103.638 28.3356C102.944 28.3356 102.382 28.8751 102.382 29.5407C102.382 30.2062 102.944 30.7457 103.638 30.7457Z" fill="#BBDEED"/>
<path d="M103.084 33.8299C103.748 33.8299 104.287 33.3132 104.287 32.6759C104.287 32.0385 103.748 31.5219 103.084 31.5219C102.42 31.5219 101.882 32.0385 101.882 32.6759C101.882 33.3132 102.42 33.8299 103.084 33.8299Z" fill="#BBDEED"/>
<path d="M145.116 49.6903C143.903 49.1184 142.754 48.3729 141.966 47.4436C141.817 47.2699 141.626 47.0555 141.466 46.841C141.37 46.7593 141.275 46.6878 141.179 46.6163C140.253 47.2904 139.37 48.0052 138.508 48.761C137.955 49.2512 137.71 48.7508 137.316 48.3321L126.227 59.6374C124.482 61.4451 122.556 63.0689 120.481 64.4986C119.236 65.3565 117.938 66.1429 116.586 66.8475L116.576 66.8577C117.501 68.1547 118.204 69.6151 118.566 71.147V71.1573C118.608 71.1573 118.651 71.1573 118.693 71.1573C120.651 71.1164 123.184 71.1777 124.78 72.3521C127.739 70.0849 131.165 67.2254 132.815 65.5097L146.968 50.8648C146.329 50.5073 145.712 50.109 145.116 49.6903Z" fill="white"/>
<path d="M181.479 50.8749C179.957 52.4272 178.489 54.0102 177.073 55.6544C176.414 56.4203 175.615 56.6348 174.881 56.4918L178.776 78.3775C179.308 81.3902 180.223 84.2599 181.49 86.9254C181.894 87.7833 182.341 88.6207 182.82 89.4377C183.554 90.6837 186.012 91.4394 188.343 89.9382C190.737 88.4063 191.152 86.0471 190.609 85.1689C189.95 84.0965 189.364 82.9731 188.854 81.8191C188.013 79.8787 187.396 77.826 187.013 75.6813L183.958 58.5343C183.958 58.5343 183.533 52.8663 181.713 51.0587C181.649 50.9974 181.564 50.9362 181.479 50.8749Z" fill="white"/>
<path d="M177.521 60.148C180.647 60.148 183.182 57.7155 183.182 54.7149C183.182 51.7142 180.647 49.2817 177.521 49.2817C174.394 49.2817 171.859 51.7142 171.859 54.7149C171.859 57.7155 174.394 60.148 177.521 60.148Z" fill="white"/>
<path d="M141.722 57.8195C144.996 57.8195 147.65 55.2727 147.65 52.1311C147.65 48.9894 144.996 46.4426 141.722 46.4426C138.449 46.4426 135.795 48.9894 135.795 52.1311C135.795 55.2727 138.449 57.8195 141.722 57.8195Z" fill="white"/>
<path d="M138.2 60.8628V60.8424C138.275 60.1888 138.349 59.5556 138.434 58.9632C138.551 58.0645 139.222 51.3344 139.52 48.2911C139.647 48.1174 139.764 47.9438 139.828 47.7396C139.998 47.423 140.073 47.086 140.062 46.7285C140.062 46.7183 140.062 46.6979 140.062 46.6877C140.701 46.4936 141.988 46.1158 142.787 45.9422C142.659 46.0749 147.937 45.1354 149.129 45.023C149.14 45.023 150.534 44.9209 151.247 44.8903C151.247 44.8903 150.864 52.3455 165.783 45.6358C167.943 45.9524 177.744 49.0672 179.766 49.731C179.713 50.2212 179.649 50.7012 179.575 51.1914C179.191 53.7752 178.84 56.3692 178.776 58.9837L178.649 58.902C177.989 59.8517 177.531 60.9241 177.308 62.0679C176.669 65.3359 175.212 69.0023 172.956 72.9954C172.36 74.0575 169.114 83.8616 168.731 84.8114L166.39 84.0046C164.889 83.5859 163.857 82.248 163.9 80.7366V80.7263C163.9 80.7263 137.998 82.8301 137.359 83.4429C137.274 82.5748 137.625 66.347 138.2 60.8628Z" fill="white"/>
<path d="M165.847 64.6006L167.273 62.119C167.326 62.0373 167.337 61.9453 167.326 61.8841C167.305 61.8228 167.273 61.7717 167.219 61.7411C166.645 62.7726 166.07 63.804 165.485 64.8253C165.623 64.8253 165.762 64.7334 165.847 64.6006Z" fill="#E6DEE4"/>
<path d="M162.825 60.1582C162.804 60.1582 162.782 60.148 162.761 60.148C162.633 60.1378 162.484 60.2297 162.41 60.3727L161.026 62.8543C160.973 62.936 160.963 63.0177 160.984 63.0892C161.005 63.1607 161.037 63.222 161.112 63.2322C161.697 62.2109 162.282 61.1795 162.857 60.1582H162.825Z" fill="#E6DEE4"/>
<path d="M145.447 61.7616L145.16 59.1574C145.149 59.0144 145.054 58.9021 144.926 58.8918C144.915 58.8918 144.915 58.8918 144.905 58.8918C144.937 59.2084 144.969 59.5148 145.011 59.8314C145.022 59.9642 145.16 61.0161 145.288 62.1088C145.33 62.0884 145.373 62.0475 145.405 62.0067C145.447 61.925 145.469 61.8433 145.447 61.7616Z" fill="#E6DEE4"/>
<path d="M165.496 64.8253C166.082 63.804 166.646 62.7725 167.231 61.7411C167.22 61.7411 167.22 61.7309 167.21 61.7309L162.847 60.1683C162.272 61.1896 161.687 62.2211 161.101 63.2423L165.422 64.8049C165.443 64.8151 165.464 64.8253 165.496 64.8253Z" fill="url(#paint6_linear)"/>
<path d="M140.137 58.7999L144.756 57.8706C144.777 57.8603 144.787 57.8705 144.809 57.8603C144.766 57.5029 144.745 57.1455 144.724 56.7982C144.575 54.6332 144.607 52.4579 145.064 50.3438C145.362 48.9754 145.852 47.6273 146.628 46.4324C146.714 46.2996 146.788 46.1465 146.905 46.0341C147.469 45.4826 147.937 45.1354 149.14 45.0231C146.852 45.1967 144.702 45.5031 142.797 45.9422C142.67 46.075 142.563 46.2282 142.457 46.3609C140.68 48.6996 140.105 51.7838 140.063 54.6638C140.041 56.0425 140.116 57.4212 140.137 58.7999Z" fill="url(#paint7_linear)"/>
<path d="M140.243 59.8416C140.339 60.6586 140.499 61.925 140.626 63.0586L145.224 62.119C145.245 62.1088 145.255 62.1088 145.287 62.0986C145.16 61.0058 145.021 59.9539 145.011 59.8212C144.979 59.5148 144.947 59.1982 144.904 58.8816C144.894 58.8918 144.872 58.8816 144.862 58.8816L140.265 59.8212C140.254 59.8314 140.243 59.8314 140.243 59.8416Z" fill="url(#paint8_linear)"/>
<path d="M140.03 60.1889L140.317 62.7931C140.339 62.9565 140.466 63.0791 140.615 63.0586H140.626C140.488 61.925 140.339 60.6587 140.243 59.8417C140.105 59.8723 140.02 60.0255 140.03 60.1889Z" fill="#E6DEE4"/>
<path d="M159.569 33.5645L159.761 33.6769C160.282 34.0037 161.187 34.0956 161.761 33.8811L161.974 33.8096C162.559 33.5952 162.474 33.3705 161.793 33.299L159.857 33.105C159.175 33.0335 159.048 33.248 159.569 33.5645Z" fill="#F4906E"/>
<path d="M155.599 25.1187C154.599 24.9859 154.003 25.4965 153.907 26.5587C153.769 27.6208 154.237 28.2335 155.237 28.305C156.237 28.4378 156.833 27.9271 156.929 26.865C157.078 25.8131 156.61 25.2004 155.599 25.1187Z" fill="#444444"/>
<path d="M167.688 26.3441C166.688 26.2114 166.092 26.722 166.007 27.7841C165.868 28.8462 166.336 29.459 167.337 29.5305C168.337 29.6632 168.933 29.1526 169.029 28.0905C169.167 27.0386 168.699 26.4258 167.688 26.3441Z" fill="#444444"/>
<path d="M158.291 21.9937L154.152 21.575C153.875 21.5443 153.63 21.7384 153.598 22.0039C153.566 22.2694 153.768 22.5043 154.045 22.5349L158.185 22.9537C158.461 22.9843 158.706 22.7903 158.738 22.5247C158.77 22.2592 158.568 22.0141 158.291 21.9937Z" fill="#4D3300"/>
<path d="M169.881 23.168L165.741 22.7493C165.464 22.7186 165.22 22.9127 165.188 23.1782C165.156 23.4437 165.358 23.6786 165.635 23.7093L169.774 24.128C170.051 24.1586 170.296 23.9646 170.328 23.6991C170.36 23.4335 170.157 23.1986 169.881 23.168Z" fill="#4D3300"/>
<path d="M151.971 40.1414C153.834 41.9592 156.366 42.9907 159.495 43.2051C159.697 43.2358 159.867 43.2562 160.048 43.2664C163.124 43.583 165.773 42.9703 167.944 41.4486C170.115 39.9269 171.818 37.4861 173.01 34.1976C173.169 33.7687 173.308 33.3295 173.446 32.87C173.457 32.3491 173.712 21.4727 172.978 19.7774C172.222 18.0413 169.7 15.8047 167.614 15.3247C165.486 14.8447 162.687 14.4464 162.687 14.4464C162.687 14.4464 159.857 14.2626 157.675 14.3136C155.526 14.3545 152.567 16.0396 151.461 17.5919C150.364 19.1034 148.236 29.8266 148.151 30.2964C148.183 30.7662 148.225 31.236 148.289 31.6853C148.747 35.3721 149.992 38.2112 151.971 40.1414ZM153.919 26.5688C154.015 25.5067 154.6 24.996 155.611 25.1288C156.622 25.2003 157.09 25.8233 156.941 26.8854C156.845 27.9475 156.26 28.4581 155.249 28.3254C154.238 28.2437 153.77 27.6207 153.919 26.5688ZM167.338 29.5407C166.327 29.4692 165.859 28.8462 166.008 27.7943C166.103 26.7322 166.689 26.2216 167.689 26.3543C168.7 26.4258 169.168 27.0488 169.03 28.1109C168.934 29.1628 168.349 29.6734 167.338 29.5407ZM159.857 33.1049L161.794 33.2989C162.475 33.3704 162.56 33.5951 161.974 33.8095L161.762 33.881C161.187 34.0955 160.282 34.0036 159.761 33.6768L159.569 33.5644C159.048 33.2478 159.176 33.0334 159.857 33.1049Z" fill="#FFCEA1"/>
<path d="M147.437 31.7262C147.437 31.7466 147.437 31.7671 147.448 31.7977C147.948 35.6479 149.268 38.6504 151.375 40.7031C153.269 42.5516 155.791 43.6443 158.877 43.9609C159.058 43.9814 159.239 43.9916 159.398 44.0018C159.579 44.0222 159.771 44.0529 159.952 44.0631C163.24 44.4001 166.092 43.7363 168.422 42.1022C170.732 40.4886 172.53 37.9151 173.786 34.4734C173.796 34.453 173.796 34.4326 173.807 34.4121C174.446 34.5143 176.436 34.4836 177.702 30.6028C178.734 27.4267 177.67 26.4157 176.883 26.0991C175.499 29.6428 173.445 32.9109 173.445 32.9109C173.445 32.9109 173.445 32.9007 173.445 32.8905C173.307 33.35 173.158 33.7892 173.009 34.2181C171.817 37.5066 170.114 39.9474 167.944 41.4691C165.783 42.9805 163.123 43.5933 160.048 43.2869C159.877 43.2665 159.696 43.2461 159.494 43.2256C156.366 43.0112 153.833 41.9695 151.971 40.1618C149.991 38.2317 148.746 35.3823 148.267 31.716C148.214 31.2666 148.172 30.8071 148.129 30.3271C148.129 30.3373 148.129 30.3475 148.129 30.3475C148.129 30.3475 146.831 26.7425 146.245 23.0046C145.405 23.1578 144.138 23.9238 144.458 27.2429C144.851 31.2666 146.788 31.6956 147.437 31.7262Z" fill="#FFBA7B"/>
<path d="M146.246 22.9842C146.831 26.7323 148.129 30.3271 148.129 30.3271C148.129 30.3271 148.129 30.3169 148.129 30.3067C148.225 29.8369 150.343 19.1137 151.439 17.6022C152.556 16.0601 155.504 14.375 157.654 14.3239C159.835 14.2729 162.666 14.4567 162.666 14.4567C162.666 14.4567 165.465 14.8448 167.593 15.335C169.689 15.815 172.201 18.0515 172.956 19.7877C173.69 21.483 173.435 32.3492 173.424 32.8803C173.424 32.8905 173.424 32.9007 173.424 32.9007C173.424 32.9007 175.478 29.6429 176.862 26.0889C177.085 25.517 177.298 24.9349 177.468 24.3629C178.681 20.4209 178.096 15.6414 176.032 12.2814C173.967 8.91125 168.487 4.44834 168.487 4.44834L167.327 6.58277L164.219 0.48584L159.824 5.82704L159.154 3.50878C159.154 3.50878 152.822 6.77681 150.066 9.65677C147.31 12.5367 145.692 17.0813 146.022 21.1868C146.076 21.7792 146.161 22.3817 146.246 22.9842Z" fill="#70421B"/>
<path d="M171.71 54.0306C173.583 51.1302 176.062 48.7711 179.914 49.7821V49.7719C177.946 48.6791 175.456 47.7498 172.657 47.0043H172.646C172.114 47.1268 171.593 47.3209 171.167 47.6068C169.784 48.5157 168.751 49.8944 167.911 51.2731C167.155 52.5089 166.474 53.7854 165.772 55.0314C164.984 56.4203 164.186 57.8092 163.399 59.1981L167.772 60.7505C169.028 58.473 170.305 56.2058 171.71 54.0306Z" fill="url(#paint9_linear)"/>
<path d="M165.847 64.6006L167.273 62.119C167.326 62.0373 167.337 61.9453 167.326 61.8841C167.305 61.8228 167.273 61.7717 167.219 61.7411C166.645 62.7726 166.07 63.804 165.485 64.8253C165.623 64.8253 165.762 64.7334 165.847 64.6006Z" fill="#E6DEE4"/>
<path d="M162.825 60.1582C162.804 60.1582 162.782 60.148 162.761 60.148C162.633 60.1378 162.484 60.2297 162.41 60.3727L161.026 62.8543C160.973 62.936 160.963 63.0177 160.984 63.0892C161.005 63.1607 161.037 63.222 161.112 63.2322C161.697 62.2109 162.282 61.1795 162.857 60.1582H162.825Z" fill="#E6DEE4"/>
<path d="M145.447 61.7616L145.16 59.1574C145.149 59.0144 145.054 58.9021 144.926 58.8918C144.915 58.8918 144.915 58.8918 144.905 58.8918C144.937 59.2084 144.969 59.5148 145.011 59.8314C145.022 59.9642 145.16 61.0161 145.288 62.1088C145.33 62.0884 145.373 62.0475 145.405 62.0067C145.447 61.925 145.469 61.8433 145.447 61.7616Z" fill="#E6DEE4"/>
<path d="M140.03 60.1889L140.317 62.7931C140.339 62.9565 140.466 63.0791 140.615 63.0586H140.626C140.488 61.925 140.339 60.6587 140.243 59.8417C140.105 59.8723 140.02 60.0255 140.03 60.1889Z" fill="#E6DEE4"/>
<path d="M159.569 33.5645L159.761 33.6769C160.282 34.0037 161.187 34.0956 161.761 33.8811L161.974 33.8096C162.559 33.5952 162.474 33.3705 161.793 33.299L159.857 33.105C159.175 33.0335 159.048 33.248 159.569 33.5645Z" fill="#F4906E"/>
<path d="M155.599 25.1187C154.599 24.9859 154.003 25.4965 153.907 26.5587C153.769 27.6208 154.237 28.2335 155.237 28.305C156.237 28.4378 156.833 27.9271 156.929 26.865C157.078 25.8131 156.61 25.2004 155.599 25.1187Z" fill="#444444"/>
<path d="M167.688 26.3441C166.688 26.2114 166.092 26.722 166.007 27.7841C165.868 28.8462 166.336 29.459 167.337 29.5305C168.337 29.6632 168.933 29.1526 169.029 28.0905C169.167 27.0386 168.699 26.4258 167.688 26.3441Z" fill="#444444"/>
<path d="M158.291 21.9937L154.152 21.575C153.875 21.5443 153.63 21.7384 153.598 22.0039C153.566 22.2694 153.768 22.5043 154.045 22.5349L158.185 22.9537C158.461 22.9843 158.706 22.7903 158.738 22.5247C158.77 22.2592 158.568 22.0141 158.291 21.9937Z" fill="#4D3300"/>
<path d="M169.881 23.168L165.741 22.7493C165.464 22.7186 165.22 22.9127 165.188 23.1782C165.156 23.4437 165.358 23.6786 165.635 23.7093L169.774 24.128C170.051 24.1586 170.296 23.9646 170.328 23.6991C170.36 23.4335 170.157 23.1986 169.881 23.168Z" fill="#4D3300"/>
<path d="M151.971 40.1414C153.834 41.9592 156.366 42.9907 159.495 43.2051C159.697 43.2358 159.867 43.2562 160.048 43.2664C163.124 43.583 165.773 42.9703 167.944 41.4486C170.115 39.9269 171.818 37.4861 173.01 34.1976C173.169 33.7687 173.308 33.3295 173.446 32.87C173.457 32.3491 173.712 21.4727 172.978 19.7774C172.222 18.0413 169.7 15.8047 167.614 15.3247C165.486 14.8447 162.687 14.4464 162.687 14.4464C162.687 14.4464 159.857 14.2626 157.675 14.3136C155.526 14.3545 152.567 16.0396 151.461 17.5919C150.364 19.1034 148.236 29.8266 148.151 30.2964C148.183 30.7662 148.225 31.236 148.289 31.6853C148.747 35.3721 149.992 38.2112 151.971 40.1414ZM153.919 26.5688C154.015 25.5067 154.6 24.996 155.611 25.1288C156.622 25.2003 157.09 25.8233 156.941 26.8854C156.845 27.9475 156.26 28.4581 155.249 28.3254C154.238 28.2437 153.77 27.6207 153.919 26.5688ZM167.338 29.5407C166.327 29.4692 165.859 28.8462 166.008 27.7943C166.103 26.7322 166.689 26.2216 167.689 26.3543C168.7 26.4258 169.168 27.0488 169.03 28.1109C168.934 29.1628 168.349 29.6734 167.338 29.5407ZM159.857 33.1049L161.794 33.2989C162.475 33.3704 162.56 33.5951 161.974 33.8095L161.762 33.881C161.187 34.0955 160.282 34.0036 159.761 33.6768L159.569 33.5644C159.048 33.2478 159.176 33.0334 159.857 33.1049Z" fill="#FFCEA1"/>
<path d="M147.437 31.7262C147.437 31.7466 147.437 31.7671 147.448 31.7977C147.948 35.6479 149.268 38.6504 151.375 40.7031C153.269 42.5516 155.791 43.6443 158.877 43.9609C159.058 43.9814 159.239 43.9916 159.398 44.0018C159.579 44.0222 159.771 44.0529 159.952 44.0631C163.24 44.4001 166.092 43.7363 168.422 42.1022C170.732 40.4886 172.53 37.9151 173.786 34.4734C173.796 34.453 173.796 34.4326 173.807 34.4121C174.446 34.5143 176.436 34.4836 177.702 30.6028C178.734 27.4267 177.67 26.4157 176.883 26.0991C175.499 29.6428 173.445 32.9109 173.445 32.9109C173.445 32.9109 173.445 32.9007 173.445 32.8905C173.307 33.35 173.158 33.7892 173.009 34.2181C171.817 37.5066 170.114 39.9474 167.944 41.4691C165.783 42.9805 163.123 43.5933 160.048 43.2869C159.877 43.2665 159.696 43.2461 159.494 43.2256C156.366 43.0112 153.833 41.9695 151.971 40.1618C149.991 38.2317 148.746 35.3823 148.267 31.716C148.214 31.2666 148.172 30.8071 148.129 30.3271C148.129 30.3373 148.129 30.3475 148.129 30.3475C148.129 30.3475 146.831 26.7425 146.245 23.0046C145.405 23.1578 144.138 23.9238 144.458 27.2429C144.851 31.2666 146.788 31.6956 147.437 31.7262Z" fill="#FFBA7B"/>
<path d="M146.246 22.9842C146.831 26.7323 148.129 30.3271 148.129 30.3271C148.129 30.3271 148.129 30.3169 148.129 30.3067C148.225 29.8369 150.343 19.1137 151.439 17.6022C152.556 16.0601 155.504 14.375 157.654 14.3239C159.835 14.2729 162.666 14.4567 162.666 14.4567C162.666 14.4567 165.465 14.8448 167.593 15.335C169.689 15.815 172.201 18.0515 172.956 19.7877C173.69 21.483 173.435 32.3492 173.424 32.8803C173.424 32.8905 173.424 32.9007 173.424 32.9007C173.424 32.9007 175.478 29.6429 176.862 26.0889C177.085 25.517 177.298 24.9349 177.468 24.3629C178.681 20.4209 178.096 15.6414 176.032 12.2814C173.967 8.91125 168.487 4.44834 168.487 4.44834L167.327 6.58277L164.219 0.48584L159.824 5.82704L159.154 3.50878C159.154 3.50878 152.822 6.77681 150.066 9.65677C147.31 12.5367 145.692 17.0813 146.022 21.1868C146.076 21.7792 146.161 22.3817 146.246 22.9842Z" fill="#70421B"/>
<path d="M165.496 64.8254C166.081 63.8041 166.645 62.7727 167.231 61.7412C167.22 61.7412 167.22 61.731 167.209 61.731L162.846 60.1685C162.272 61.1897 161.686 62.2212 161.101 63.2424L165.422 64.805C165.443 64.8152 165.464 64.8254 165.496 64.8254Z" fill="url(#paint10_linear)"/>
<path d="M145.287 62.0986C145.159 61.0058 145.021 59.9539 145.01 59.8212C144.978 59.5148 144.947 59.1982 144.904 58.8816C144.893 58.8918 144.872 58.8816 144.861 58.8816L140.254 59.8212C140.243 59.8212 140.243 59.8314 140.232 59.8314C140.328 60.6484 140.488 61.9147 140.615 63.0483L145.213 62.1088C145.255 62.119 145.266 62.119 145.287 62.0986Z" fill="url(#paint11_linear)"/>
<path d="M188.811 83.2386C191.259 85.5262 194.089 87.3441 197.186 88.6002L210.105 93.8291L206.583 101.836L193.674 96.6069C189.705 95.0035 186.108 92.6649 183.011 89.693C181.139 87.8956 187.204 81.7271 188.811 83.2386Z" fill="white"/>
<path d="M186.567 94.8096C186.386 96.2291 185.843 97.7916 185.843 98.6189C185.843 99.4461 186.748 100.447 189.653 101.264C192.548 102.071 212.841 104.501 217.013 104.736C221.184 104.971 221.546 104.042 223.536 103.695C225.526 103.347 241.286 99.1806 242.925 98.578C244.553 97.9755 242.925 96.6274 242.925 96.6274C242.925 96.6274 224.292 98.3738 224.451 96.944C224.632 95.2896 219.013 94.544 216.119 94.35C213.224 94.1559 193.835 92.573 193.835 92.573C191.281 93.0428 186.748 93.39 186.567 94.8096Z" fill="#F7F7F7"/>
<path d="M200.571 92.4402C200.571 92.4402 215.118 93.3696 216.863 93.5636C218.609 93.7576 221.673 93.9517 224.036 93.5636C226.388 93.1755 233.869 91.6028 235.199 91.3373C236.529 91.0717 236.327 90.2241 234.177 90.2241C232.028 90.2241 219.439 89.7645 218.311 89.7645C217.172 89.7645 216.267 89.7645 214.363 90.0301C212.458 90.2956 202.518 91.5007 200.986 91.7764C199.454 92.0624 200.571 92.4402 200.571 92.4402Z" fill="#FEE8A0"/>
<path d="M223.951 97.0564C223.791 98.4964 223.525 103.429 220.652 104.491L243.031 98.6904C246.309 97.2913 243.606 92.7875 242.148 91.4599C240.69 90.1323 238.509 89.8769 236.508 89.7646C234.508 89.6523 222.131 89.2948 220.854 89.2948C219.577 89.2948 217.396 89.0599 215.395 89.2948C213.395 89.5297 195.74 92.2054 193.186 92.665C193.186 92.665 212.66 94.2582 215.576 94.4522C218.492 94.6462 224.132 95.3918 223.951 97.0564Z" fill="#D3D3D3"/>
<path d="M183.906 87.0276C183.726 88.4471 183.183 90.0097 183.183 90.8369C183.183 91.6641 184.087 92.6649 186.993 93.482C189.887 94.2888 210.181 96.7194 214.352 96.9542C218.524 97.1891 218.885 96.2598 220.875 95.9126C222.865 95.5653 238.626 91.3986 240.264 90.796C241.893 90.1935 240.264 88.8454 240.264 88.8454C240.264 88.8454 221.631 90.5918 221.791 89.162C221.971 87.5076 216.353 86.7621 213.458 86.568C210.564 86.374 191.175 84.791 191.175 84.791C188.621 85.2608 184.087 85.608 183.906 87.0276Z" fill="#C2FDF2"/>
<path d="M221.29 89.2743C221.13 90.7143 220.864 95.647 217.991 96.7091L240.37 90.9083C243.648 89.5092 240.945 85.0054 239.487 83.6778C238.029 82.3502 235.847 82.0948 233.847 81.9825C231.846 81.8702 219.47 81.5127 218.193 81.5127C216.916 81.5127 214.734 81.2778 212.734 81.5127C210.733 81.7476 193.079 84.4233 190.525 84.8829C190.525 84.8829 209.999 86.4761 212.915 86.6701C215.831 86.8641 221.481 87.6097 221.29 89.2743Z" fill="#DFF4E9"/>
<path d="M186.897 81.9009C186.716 83.3204 186.173 84.883 186.173 85.7102C186.173 86.5374 187.078 87.5382 189.983 88.3552C192.877 89.162 213.171 91.5926 217.342 91.8275C221.514 92.0624 221.876 91.1331 223.866 90.7858C225.856 90.4386 241.616 86.2719 243.255 85.6693C244.883 85.0668 243.255 83.7187 243.255 83.7187C243.255 83.7187 224.621 85.4651 224.781 84.0353C224.962 82.3809 219.343 81.6353 216.449 81.4413C213.554 81.2473 194.165 79.6643 194.165 79.6643C191.6 80.1341 187.078 80.4813 186.897 81.9009Z" fill="#FEDFC9"/>
<path d="M224.28 84.1477C224.12 85.5877 223.854 90.5204 220.981 91.5825L243.36 85.7817C246.638 84.3826 243.935 79.8789 242.477 78.5512C241.019 77.2236 238.838 76.9683 236.837 76.8559C234.837 76.7436 222.46 76.3861 221.183 76.3861C219.906 76.3861 217.725 76.1512 215.724 76.3861C213.724 76.621 196.069 79.2967 193.515 79.7563C193.515 79.7563 212.989 81.3495 215.905 81.5435C218.821 81.7375 224.461 82.4933 224.28 84.1477Z" fill="#F3A478"/>
<path d="M217.416 82.3911L195.686 80.2975C208.86 77.3664 224.695 76.7435 238.976 79.1332L217.416 82.3911Z" fill="#E4EFD9"/>
<path d="M201.668 79.5826C201.668 79.5826 216.215 80.5119 217.96 80.7059C219.705 80.9 222.77 81.094 225.132 80.7059C227.484 80.3179 234.965 78.7451 236.295 78.4796C237.626 78.2141 237.423 77.3664 235.274 77.3664C233.124 77.3664 220.535 76.9069 219.407 76.9069C218.279 76.9069 217.364 76.9069 215.459 77.1724C213.554 77.4379 203.615 78.643 202.083 78.9187C200.54 79.2047 201.668 79.5826 201.668 79.5826Z" fill="#FEE8A0"/>
<path d="M184.991 74.1699C184.81 75.5895 184.268 77.152 184.268 77.9792C184.268 78.8064 185.172 79.8073 188.077 80.6243C190.972 81.4311 211.265 83.8617 215.437 84.0966C219.608 84.3315 219.97 83.4021 221.96 83.0549C223.95 82.7077 239.71 78.5409 241.349 77.9384C242.977 77.3358 241.349 75.9878 241.349 75.9878C241.349 75.9878 222.716 77.7341 222.875 76.3044C223.056 74.6499 217.438 73.9044 214.543 73.7103C211.648 73.5163 192.259 71.9333 192.259 71.9333C189.705 72.4031 185.172 72.7504 184.991 74.1699Z" fill="#E4EFD9"/>
<path d="M222.387 76.4168C222.227 77.8567 221.961 82.7894 219.088 83.8516L241.467 78.0508C244.745 76.6517 242.042 72.1479 240.584 70.8203C239.126 69.4926 236.944 69.2373 234.944 69.125C232.943 69.0126 220.567 68.6552 219.29 68.6552C218.013 68.6552 215.831 68.4203 213.831 68.6552C211.83 68.8901 194.176 71.5658 191.622 72.0253C191.622 72.0253 211.096 73.6185 214.012 73.8126C216.917 74.0066 222.568 74.7521 222.387 76.4168Z" fill="#BEDECF"/>
<path d="M187.982 69.0432C187.801 70.4628 187.259 72.0253 187.259 72.8525C187.259 73.6797 188.163 74.6806 191.068 75.4976C193.963 76.3044 214.256 78.735 218.428 78.9699C222.599 79.2048 222.961 78.2754 224.951 77.9282C226.941 77.581 242.701 73.4142 244.34 72.8117C245.968 72.2091 244.34 70.861 244.34 70.861C244.34 70.861 225.707 72.6074 225.866 71.1776C226.047 69.5232 220.428 68.7777 217.534 68.5836C214.639 68.3896 195.25 66.8066 195.25 66.8066C192.686 67.2764 188.163 67.6236 187.982 69.0432Z" fill="#99C7FF"/>
<path d="M225.366 71.2899C225.206 72.7299 224.94 77.6626 222.067 78.7247L244.446 72.924C247.724 71.5248 245.021 67.0211 243.563 65.6934C242.105 64.3658 239.924 64.1105 237.923 63.9981C235.922 63.8858 223.546 63.5283 222.269 63.5283C220.992 63.5283 218.811 63.2935 216.81 63.5283C214.809 63.7632 197.155 66.4389 194.601 66.8985C194.601 66.8985 214.075 68.4917 216.991 68.6857C219.907 68.8798 225.547 69.6253 225.366 71.2899Z" fill="#4390ED"/>
<path d="M218.502 69.5334L196.772 67.4398C209.946 64.5088 225.781 63.8858 240.062 66.2756L218.502 69.5334Z" fill="#99C7FF"/>
<path d="M172.71 47.0043L172.763 47.0349C172.731 47.0247 172.689 47.0145 172.657 47.0043H172.646C172.114 47.1268 171.593 47.3209 171.167 47.6068C169.784 48.5157 168.751 49.8944 167.911 51.2731C167.155 52.5089 166.474 53.7854 165.772 55.0314C164.984 56.4203 164.186 57.8092 163.399 59.1981L167.772 60.7505C169.028 58.473 170.305 56.2058 171.71 54.0306C173.583 51.1302 176.062 48.7711 179.914 49.7821C179.914 49.7821 180.713 49.0059 172.71 47.0043Z" fill="url(#paint12_linear)"/>
<path d="M143.478 45.3602C143.478 45.3602 143.127 45.5031 142.787 45.9321C142.659 46.0648 142.553 46.218 142.446 46.3508C140.669 48.6895 140.094 51.7737 140.052 54.6536C140.041 56.0426 140.116 57.4213 140.126 58.8H140.137L144.745 57.8706C144.766 57.8604 144.777 57.8706 144.798 57.8604C144.755 57.503 144.734 57.1455 144.713 56.7983C144.564 54.6332 144.596 52.4579 145.053 50.3439C145.351 48.9754 145.841 47.6274 146.618 46.4325C146.703 46.2997 146.777 46.1465 146.894 46.0342C147.458 45.4827 147.927 45.1355 149.129 45.0231C148.97 45.0334 148.81 45.0538 148.65 45.064C148.895 45.0231 149.065 45.0027 149.129 45.0231C149.14 45.0129 149.491 44.2368 143.478 45.3602Z" fill="url(#paint13_linear)"/>
<path d="M175.116 145.903L172.2 114.979C171.562 110.608 170.476 103.786 170.242 97.4137C170.008 91.6436 169.721 85.8837 169.731 85.8531C169.838 85.3527 169.529 84.8522 169.018 84.7195L168.231 84.505L167.188 84.2191L166.411 84.0046C164.911 83.5859 163.878 82.248 163.921 80.7366V80.7263L164.655 66.4287C164.655 66.4287 164.825 65.9997 164.953 65.8057C164.932 65.7955 164.921 65.7955 164.9 65.7853L160.579 64.2227C160.569 64.2227 160.569 64.2228 160.569 64.2125C160.43 64.4679 160.281 64.7232 160.132 64.9887L160.015 64.9581C150.087 64.2534 155.461 64.6415 145.522 63.9368C145.5 63.7019 145.468 63.4262 145.436 63.13C145.415 63.1402 145.383 63.1504 145.362 63.1504L140.765 64.0798C140.797 64.3555 140.807 64.8355 140.807 64.8355L139.882 79.0208C139.754 80.0115 139.584 80.9408 138.945 81.5536C138.881 81.6148 138.817 81.6863 138.732 81.7374L137.072 83.1569L136.753 83.402C136.412 83.6472 136.349 84.1169 136.317 84.5356C136.317 84.5356 135.699 89.9994 136.242 96.3823C136.019 101.254 134.337 110.598 133.699 114.969L130.783 145.893C130.081 148.804 131.443 151.929 134.316 153.43C137.774 155.238 142.106 154.012 143.989 150.703C144.319 150.121 144.543 149.519 144.692 148.916L151.438 123.323C151.438 123.323 151.789 120.372 152.151 116.185C152.683 116.185 153.226 116.185 153.779 116.174C154.141 120.372 154.492 123.323 154.492 123.323L161.239 148.916C161.378 149.529 161.612 150.131 161.942 150.703C163.825 154.022 168.156 155.238 171.615 153.43C174.456 151.939 175.818 148.814 175.116 145.903Z" fill="url(#paint14_linear)"/>
<path d="M192.845 197.875C192.845 197.875 188.067 186.233 174.435 184.793L167.06 186.386C167.06 186.386 162.804 191.411 164.762 197.753L192.845 197.875Z" fill="white"/>
<path d="M111.072 22.6653C110.738 22.5024 110.604 22.0849 110.773 21.7375L111.389 20.474C111.785 19.6633 112.746 19.311 113.525 19.691L114.739 20.2833C115.073 20.4462 115.208 20.8638 115.038 21.2112C114.869 21.5586 114.457 21.7097 114.123 21.5468L112.909 20.9545C112.797 20.9002 112.66 20.9505 112.604 21.0663L111.987 22.3298C111.818 22.6772 111.406 22.8282 111.072 22.6653Z" fill="white"/>
<path d="M117.954 26.0218C117.62 25.8589 117.485 25.4413 117.655 25.0939L118.271 23.8305C118.327 23.7146 118.283 23.5755 118.171 23.5212L116.957 22.9289C116.623 22.766 116.488 22.3484 116.658 22.001C116.827 21.6535 117.239 21.5025 117.573 21.6654L118.787 22.2577C119.567 22.6378 119.881 23.6121 119.485 24.4228L118.869 25.6862C118.7 26.0336 118.288 26.1847 117.954 26.0218Z" fill="white"/>
<path d="M110.631 28.7062L109.417 28.1139C108.638 27.7339 108.324 26.7596 108.719 25.9489L109.335 24.6854C109.505 24.338 109.916 24.187 110.25 24.3499C110.584 24.5127 110.719 24.9303 110.55 25.2777L109.933 26.5412C109.877 26.657 109.922 26.7962 110.033 26.8505L111.247 27.4428C111.581 27.6057 111.716 28.0232 111.547 28.3707C111.377 28.7181 110.965 28.8691 110.631 28.7062Z" fill="white"/>
<path d="M114.679 30.6806L113.465 30.0883C113.131 29.9254 112.996 29.5079 113.166 29.1604C113.335 28.813 113.747 28.662 114.081 28.8249L115.295 29.4172C115.407 29.4715 115.544 29.4211 115.601 29.3053L116.217 28.0419C116.386 27.6944 116.798 27.5434 117.132 27.7063C117.466 27.8692 117.601 28.2867 117.431 28.6342L116.815 29.8976C116.42 30.7083 115.459 31.0607 114.679 30.6806Z" fill="white"/>
<defs>
<linearGradient id="paint0_linear" x1="167.779" y1="143.918" x2="170.006" y2="164.578" gradientUnits="userSpaceOnUse">
<stop stop-color="#394675"/>
<stop offset="1" stop-color="#2C355A"/>
</linearGradient>
<linearGradient id="paint1_linear" x1="167.779" y1="143.918" x2="170.006" y2="164.578" gradientUnits="userSpaceOnUse">
<stop stop-color="#394675"/>
<stop offset="1" stop-color="#2C355A"/>
</linearGradient>
<linearGradient id="paint2_linear" x1="78.5725" y1="126.381" x2="141.016" y2="186.466" gradientUnits="userSpaceOnUse">
<stop stop-color="#394675"/>
<stop offset="1" stop-color="#2C355A"/>
</linearGradient>
<linearGradient id="paint3_linear" x1="138.185" y1="143.805" x2="135.958" y2="164.465" gradientUnits="userSpaceOnUse">
<stop stop-color="#394675"/>
<stop offset="1" stop-color="#2C355A"/>
</linearGradient>
<linearGradient id="paint4_linear" x1="138.185" y1="143.805" x2="135.958" y2="164.465" gradientUnits="userSpaceOnUse">
<stop stop-color="#394675"/>
<stop offset="1" stop-color="#2C355A"/>
</linearGradient>
<linearGradient id="paint5_linear" x1="227.391" y1="126.268" x2="164.947" y2="186.353" gradientUnits="userSpaceOnUse">
<stop stop-color="#394675"/>
<stop offset="1" stop-color="#2C355A"/>
</linearGradient>
<linearGradient id="paint6_linear" x1="160.28" y1="69.9104" x2="116.779" y2="159.692" gradientUnits="userSpaceOnUse">
<stop stop-color="#374C79"/>
<stop offset="1" stop-color="#27385D"/>
</linearGradient>
<linearGradient id="paint7_linear" x1="139.503" y1="59.8438" x2="96.0018" y2="149.625" gradientUnits="userSpaceOnUse">
<stop stop-color="#374C79"/>
<stop offset="1" stop-color="#27385D"/>
</linearGradient>
<linearGradient id="paint8_linear" x1="142.587" y1="61.3382" x2="99.0857" y2="151.12" gradientUnits="userSpaceOnUse">
<stop stop-color="#374C79"/>
<stop offset="1" stop-color="#27385D"/>
</linearGradient>
<linearGradient id="paint9_linear" x1="162.895" y1="71.1781" x2="119.394" y2="160.959" gradientUnits="userSpaceOnUse">
<stop stop-color="#374C79"/>
<stop offset="1" stop-color="#27385D"/>
</linearGradient>
<linearGradient id="paint10_linear" x1="167.194" y1="45.234" x2="158.57" y2="98.7319" gradientUnits="userSpaceOnUse">
<stop stop-color="#394675"/>
<stop offset="1" stop-color="#2C355A"/>
</linearGradient>
<linearGradient id="paint11_linear" x1="146.121" y1="41.8365" x2="137.496" y2="95.3344" gradientUnits="userSpaceOnUse">
<stop stop-color="#394675"/>
<stop offset="1" stop-color="#2C355A"/>
</linearGradient>
<linearGradient id="paint12_linear" x1="163.395" y1="53.8803" x2="179.939" y2="53.8803" gradientUnits="userSpaceOnUse">
<stop stop-color="#394675"/>
<stop offset="1" stop-color="#2C355A"/>
</linearGradient>
<linearGradient id="paint13_linear" x1="140.057" y1="51.7794" x2="149.141" y2="51.7794" gradientUnits="userSpaceOnUse">
<stop stop-color="#394675"/>
<stop offset="1" stop-color="#2C355A"/>
</linearGradient>
<linearGradient id="paint14_linear" x1="153.234" y1="85.8676" x2="152.95" y2="151.305" gradientUnits="userSpaceOnUse">
<stop stop-color="#394675"/>
<stop offset="1" stop-color="#2C355A"/>
</linearGradient>
</defs>
</svg>
