<svg width="72" height="72" viewBox="0 0 72 72" fill="none" xmlns="http://www.w3.org/2000/svg">
<rect width="72" height="72" rx="4" fill="#4390ED"/>
<path fill-rule="evenodd" clip-rule="evenodd" d="M55.7869 18.0154C55.2661 17.9154 54.6411 18.3154 54.5369 18.8154L53.4338 23.7817C53.3427 24.192 52.838 24.3289 52.5582 24.0154L52.5581 24.0154C51.6206 22.9154 50.6831 21.9154 49.4331 21.9154C48.2645 21.9154 47.3691 22.8768 46.4914 23.8191L46.4907 23.8199C46.4298 23.8852 46.369 23.9505 46.3081 24.0154L46.3081 24.0154C45.6831 24.7154 45.0581 25.4154 44.7456 25.4154C44.4331 25.4154 43.8081 24.7154 43.1831 24.0154C42.2456 22.9154 41.3081 21.9154 40.0581 21.9154C38.8895 21.9154 37.9941 22.8768 37.1164 23.8191C37.0553 23.8847 36.9942 23.9503 36.9331 24.0154C36.3081 24.7154 35.6831 25.4154 35.3706 25.4154C35.0581 25.4154 34.4331 24.7154 33.8081 24.0154C32.7665 23.0154 31.6206 21.9154 30.3706 21.9154C29.2021 21.9154 28.3066 22.8768 27.4289 23.8191L27.4288 23.8192C27.3677 23.8848 27.3067 23.9503 27.2456 24.0154C26.6206 24.7154 25.9956 25.4154 25.6831 25.4154C25.3706 25.4154 24.7456 24.7154 24.1207 24.0154L24.1206 24.0154C23.1831 22.9154 22.2456 21.9154 20.9956 21.9154C19.8271 21.9154 18.9316 22.8768 18.0539 23.8191L18.0538 23.8192L18.0534 23.8196C17.9924 23.8851 17.9315 23.9504 17.8706 24.0154C17.6628 24.2481 17.2837 24.1471 17.216 23.8425L16.0994 18.8154C15.9952 18.3154 15.4744 17.9154 14.8494 18.0154C14.3286 18.1154 13.9119 18.7154 14.0161 19.2154L20.2661 47.2154C20.3702 47.7154 20.7869 48.1154 21.3077 48.1154H49.3286C49.8494 48.1154 50.2661 47.8154 50.3702 47.3154L56.6202 19.3154C56.7244 18.7154 56.4119 18.1154 55.7869 18.0154ZM19.3541 25.6117C18.5326 26.4937 18.0817 27.74 18.3431 28.9165L21.4452 42.8828C21.8518 44.7131 23.4751 46.0154 25.3501 46.0154H45.2862C47.1612 46.0154 48.7845 44.7131 49.1911 42.8828L52.2441 29.1378C52.521 27.8912 52.0103 26.5886 51.1743 25.6234C51.0617 25.4935 50.9529 25.3401 50.8585 25.1964C50.4516 24.5765 49.9213 24.0154 49.6415 24.0154C49.329 24.0154 48.704 24.7154 48.079 25.4154C48.0181 25.4803 47.9572 25.5457 47.8962 25.6111L47.8957 25.6117C47.018 26.554 46.1226 27.5154 44.954 27.5154C43.8006 27.5154 42.9132 26.664 42.0465 25.6682C41.9008 25.5008 41.7429 25.3444 41.5761 25.198C41.4105 25.0526 41.2545 24.9104 41.1091 24.7779C40.6341 24.3449 40.2726 24.0154 40.0581 24.0154C39.7456 24.0154 39.1206 24.7154 38.4956 25.4154C38.4346 25.4805 38.3735 25.5461 38.3124 25.6117C37.4347 26.554 36.5392 27.5154 35.3706 27.5154C34.1206 27.5154 33.1831 26.5154 32.2456 25.4154C32.0935 25.2693 31.9458 25.1232 31.8046 24.9835C31.2692 24.4537 30.8263 24.0154 30.579 24.0154C30.2665 24.0154 29.6415 24.7154 29.0165 25.4154C28.9555 25.4805 28.8945 25.5459 28.8334 25.6115L28.8333 25.6116L28.8332 25.6117C27.9555 26.554 27.0601 27.5154 25.8915 27.5154C24.6415 27.5154 23.704 26.5154 22.7665 25.4154C22.6143 25.2693 22.4666 25.1232 22.3254 24.9835L22.3254 24.9835C21.79 24.4537 21.3471 24.0154 21.0998 24.0154C20.7873 24.0154 20.1623 24.7154 19.5373 25.4154C19.4763 25.4805 19.4152 25.546 19.3541 25.6116L19.3541 25.6117ZM21.7245 53.5154C21.0995 53.5154 20.6828 53.0154 20.6828 52.4154C20.6828 51.8154 21.2037 51.3154 21.7245 51.3154H49.537C50.162 51.3154 50.5787 51.8154 50.5787 52.4154C50.5787 53.0154 50.0578 53.5154 49.537 53.5154H21.7245ZM29.2467 31.5666C29.0635 31.6236 28.9447 31.7921 28.9447 31.984C28.9447 32.4155 28.9782 32.7771 29.045 33.0687C29.1265 33.4238 29.4688 33.6202 29.8324 33.6406L29.951 33.6473C30.2887 33.6662 30.6181 33.4996 30.7139 33.1753C30.7304 33.1194 30.7459 33.0611 30.7603 33.0004C30.8298 32.708 31.0522 32.46 31.3527 32.46C31.8007 32.46 32.1367 32.5674 32.3607 32.782C32.5847 32.9967 32.6967 33.342 32.6967 33.818C32.6967 34.7327 32.1694 35.2414 31.1147 35.344L30.4662 35.4023C30.1379 35.4318 29.8975 35.7247 29.9326 36.0525C29.967 36.3737 30.2534 36.6062 30.576 36.5911C30.7913 36.5811 31.0128 36.576 31.2407 36.576C32.3327 36.576 32.8787 37.136 32.8787 38.256C32.8787 39.2454 32.1927 39.74 30.8207 39.74C30.4701 39.74 30.1067 39.6943 29.7305 39.6028C29.3553 39.5116 28.9564 39.7129 28.8566 40.086C28.7772 40.3827 28.9155 40.696 29.2067 40.7935C29.3766 40.8504 29.5693 40.9053 29.7847 40.958C30.2514 41.0607 30.6714 41.112 31.0447 41.112C32.23 41.112 33.196 40.8507 33.9427 40.328C34.6894 39.8054 35.0627 39.0167 35.0627 37.962C35.0627 36.919 34.5335 36.1988 33.4751 35.8016C33.4368 35.7872 33.4107 35.7507 33.4107 35.7097C33.4107 35.6742 33.4303 35.6416 33.4611 35.6239C33.7852 35.4382 34.067 35.1722 34.3067 34.826C34.5587 34.4527 34.6847 34.056 34.6847 33.636C34.6847 33.2067 34.5914 32.824 34.4047 32.488C34.2274 32.1427 33.98 31.886 33.6627 31.718C33.3454 31.5407 33.0187 31.4147 32.6827 31.34C32.3467 31.2654 31.9734 31.228 31.5627 31.228C31.1614 31.228 30.6854 31.2747 30.1347 31.368C29.7686 31.4301 29.4726 31.4963 29.2467 31.5666ZM36.8648 40.006C37.3688 40.7434 38.2368 41.112 39.4688 41.112C40.7101 41.112 41.6154 40.6967 42.1848 39.866C42.7634 39.0354 43.0528 37.738 43.0528 35.974C43.0528 34.21 42.8008 32.978 42.2968 32.278C41.8021 31.578 40.9294 31.228 39.6788 31.228C38.4374 31.228 37.5321 31.6247 36.9628 32.418C36.4028 33.2114 36.1228 34.49 36.1228 36.254C36.1228 38.018 36.3701 39.2687 36.8648 40.006ZM38.2228 36.072C38.2228 34.7187 38.3068 33.79 38.4748 33.286C38.6428 32.782 39.0021 32.53 39.5528 32.53C40.1128 32.53 40.4861 32.8007 40.6728 33.342C40.8594 33.8834 40.9528 34.9007 40.9528 36.394C40.9528 37.8874 40.8268 38.844 40.5748 39.264C40.3601 39.628 40.0288 39.81 39.5808 39.81C39.0488 39.81 38.6894 39.5254 38.5028 38.956C38.3161 38.3867 38.2228 37.4254 38.2228 36.072Z" fill="white"/>
</svg>
