<svg width="40" height="40" viewBox="0 0 40 40" fill="none" xmlns="http://www.w3.org/2000/svg">
<path fill-rule="evenodd" clip-rule="evenodd" d="M17 23.9999L24 20.5003L17 16.9999V23.9999Z" fill="white"/>
<path d="M20 0C8.95628 0 0 8.95628 0 20C0 31.0437 8.95628 40 20 40C31.0437 40 40 31.0437 40 20C40 8.95628 31.0437 0 20 0ZM32.4967 20.0205C32.4967 20.0205 32.4967 24.0763 31.9823 26.0326C31.8393 26.56 31.5608 27.0409 31.1743 27.4273C30.7879 27.8138 30.307 28.0924 29.7795 28.2353C27.8233 28.7498 20 28.7498 20 28.7498C20 28.7498 12.1972 28.7498 10.2205 28.2149C9.69303 28.0718 9.21222 27.7932 8.82579 27.4068C8.43935 27.0203 8.16076 26.5395 8.01768 26.0121C7.50233 24.0772 7.50233 20 7.50233 20C7.50233 20 7.50233 15.9442 8.01768 13.9879C8.16334 13.4595 8.44247 12.9775 8.82824 12.5881C9.21401 12.1988 9.69345 11.9152 10.2205 11.7647C12.1767 11.2502 20 11.2502 20 11.2502C20 11.2502 27.8233 11.2502 29.7795 11.7851C30.307 11.9282 30.7878 12.2068 31.1742 12.5932C31.5606 12.9797 31.8392 13.4605 31.9823 13.9879C32.5181 15.9442 32.4967 20.0205 32.4967 20.0205Z" fill="white"/>
</svg>
